STARTFONT 2.3
FONT -FontForge-Fredoka One-Book-R-Normal--32-320-72-72-P-184-ISO10646-1
SIZE 32 72 72  4
FONTBOUNDINGBOX 43 40 -5 -8
COMMENT "Generated by fontforge, http://fontforge.sourceforge.net"
COMMENT "Copyright (c) 2011 Milena B Brandao (milenabbrandao@gmail.com), with Reserved Font Name "Fredoka""
STARTPROPERTIES 40
FOUNDRY "FontForge"
FAMILY_NAME "Fredoka One"
WEIGHT_NAME "Book"
SLANT "R"
SETWIDTH_NAME "Normal"
ADD_STYLE_NAME ""
PIXEL_SIZE 32
POINT_SIZE 320
RESOLUTION_X 72
RESOLUTION_Y 72
SPACING "P"
AVERAGE_WIDTH 184
CHARSET_REGISTRY "ISO10646"
CHARSET_ENCODING "1"
FONTNAME_REGISTRY ""
CHARSET_COLLECTIONS "ISO10646-1"
BITS_PER_PIXEL 4
FONT_NAME "FredokaOne-Regular"
FACE_NAME "Fredoka One"
COPYRIGHT "Copyright (c) 2011 Milena B Brandao (milenabbrandao@gmail.com), with Reserved Font Name "Fredoka""
FONT_VERSION "1.001"
FONT_ASCENT 26
FONT_DESCENT 6
UNDERLINE_POSITION -3
UNDERLINE_THICKNESS 2
X_HEIGHT 17
CAP_HEIGHT 23
RAW_ASCENT 800
RAW_DESCENT 200
NORM_SPACE 8
RELATIVE_WEIGHT 40
RELATIVE_SETWIDTH 50
SUPERSCRIPT_X 0
SUPERSCRIPT_Y 15
SUPERSCRIPT_SIZE 20
SUBSCRIPT_X 0
SUBSCRIPT_Y 4
SUBSCRIPT_SIZE 20
AVG_LOWERCASE_WIDTH 182
AVG_UPPERCASE_WIDTH 220
ENDPROPERTIES
CHARS 235
STARTCHAR space
ENCODING 32
SWIDTH 253 0
DWIDTH 8 0
BBX 1 1 0 0
BITMAP
00
ENDCHAR
STARTCHAR exclam
ENCODING 33
SWIDTH 267 0
DWIDTH 9 0
BBX 7 24 1 0
BITMAP
05887200
5FFFFD00
8FFFFF10
8FFFFF20
8FFFFF20
8FFFFF20
8FFFFF20
8FFFFF20
8FFFFF20
8FFFFF20
8FFFFF20
8FFFFF20
8FFFFF20
8FFFFF10
5FFFFD00
05887200
00000000
00000000
1ADED600
8FFFFF10
AFFFFF40
AFFFFF40
8FFFFF20
1BFFE700
ENDCHAR
STARTCHAR quotedbl
ENCODING 34
SWIDTH 429 0
DWIDTH 14 0
BBX 13 12 0 12
BITMAP
01564000157500
0CFFF700BFFF80
2FFFFB01FFFFC0
3FFFFD02FFFFE0
2FFFFD01FFFFE0
1FFFFC00FFFFD0
0EFFFA00DFFFB0
0CFFF700BFFF80
09FFF4008FFF50
05FFE0004FFF10
01EF90000DFA00
005B100004B200
ENDCHAR
STARTCHAR numbersign
ENCODING 35
SWIDTH 749 0
DWIDTH 24 0
BBX 24 24 0 0
BITMAP
000000004640000003551000
0000000BFFF700006FFFC000
0000001FFFF80000BFFFD000
0000003FFFF60000DFFFB000
0000006FFFF30001FFFF8000
0000008FFFF10003FFFF6000
001455CFFFE55558FFFF7540
00BFFFFFFFFFFFFFFFFFFFF6
02FFFFFFFFFFFFFFFFFFFFF6
03FFFFFFFFFFFFFFFFFFFFF4
01BDDEFFFFDDDDDFFFFEDD90
000008FFFF10003FFFF60000
00000BFFFD00005FFFF30000
00000DFFFB00008FFFF10000
05999FFFFD9999DFFFF99700
3FFFFFFFFFFFFFFFFFFFFF20
7FFFFFFFFFFFFFFFFFFFFF20
7FFFFFFFFFFFFFFFFFFFFD00
2899EFFFE9999CFFFFA98200
0000DFFFB00008FFFF100000
0000FFFF90000AFFFE000000
0003FFFF60000CFFFB000000
0005FFFF20000FFFF7000000
0001BDC6000008DD91000000
ENDCHAR
STARTCHAR dollar
ENCODING 36
SWIDTH 475 0
DWIDTH 15 0
BBX 15 28 0 -3
BITMAP
0000008C91000000
000003FFF6000000
000004FFF7000000
000004FFF7000000
00004AFFFB400000
001BFFFFFFFD3000
00BFFFFFFFFFE200
05FFFFFFFFFFF300
0AFFFF958EFFA000
0CFFFB0002A91000
0BFFFD1000000000
09FFFFD851000000
02FFFFFFFFC61000
007FFFFFFFFFD200
0004CFFFFFFFFB00
0000026BFFFFFF20
0012000019FFFF50
04EF900003FFFF60
1EFFFA1009FFFF40
1FFFFFECEFFFFE10
08FFFFFFFFFFF700
00AFFFFFFFFFA000
0005DFFFFFD60000
000005FFF8000000
000004FFF7000000
000004FFF7000000
000002FFF5000000
0000005970000000
ENDCHAR
STARTCHAR percent
ENCODING 37
SWIDTH 838 0
DWIDTH 27 0
BBX 25 26 1 -1
BITMAP
000000000000000006F9000000
00026874000000001EFF100000
009FFFFFD30000008FF9000000
09FFFFFFFE100001EFF2000000
2FFFFFFFFF800009FF90000000
7FFF957EFFD0002FFE10000000
AFFD0008FFF0009FF800000000
BFFB0007FFF103FFE100000000
AFFE000AFFF00AFF7000000000
7FFFC7AFFFC03FFD0000000000
2FFFFFFFFF70BFF60000000000
07FFFFFFFD14FFD00000000000
006EFFFFB20CFF500000000000
00004552005FFC004ADDB71000
0000000000DFF408FFFFFFC100
0000000006FFB05FFFFFFFFA00
000000000DFF30CFFFFFFFFF20
000000007FFA01FFFB107FFF60
00000001EFF303FFF5000FFF70
00000008FFA003FFF4000FFF80
0000001EFF2002FFF9005FFF60
0000008FF90000DFFFDDFFFF30
000002FFE100006FFFFFFFFC00
000009FF8000000AFFFFFFE300
00000FFE100000006CFFEA2000
000007D6000000000001000000
ENDCHAR
STARTCHAR ampersand
ENCODING 38
SWIDTH 748 0
DWIDTH 24 0
BBX 24 26 0 -1
BITMAP
000000047898510000000000
000005DFFFFFFF8000000000
00006FFFFFFFFFFA00000000
0002FFFFFFFFFFFF40000000
0007FFFFFBAEFFFF90000000
000BFFFF7005FFFFC0000000
000CFFFF4006FFFFC0000000
000BFFFF605EFFFF90000000
0009FFFFB9FFFFFF30000000
0005FFFFFFFFFFF900000000
0001FFFFFFFFFF9000000000
0000AFFFFFFFF70000000000
0004EFFFFFFD400000000000
003FFFFFFFF9000007CDB400
01DFFFFFFFFF60006FFFFC00
07FFFFFFFFFFF500BFFFFA00
0DFFFFFCFFFFFF63FFFFF700
1FFFFF91DFFFFFFDFFFFF200
3FFFFF703EFFFFFFFFFF8000
2FFFFFC004EFFFFFFFFF5200
0EFFFFFD88CFFFFFFFFFFF90
09FFFFFFFFFFFFFFFFFFFFF1
02EFFFFFFFFFFFFFFFFFFFF3
003DFFFFFFFFFFDBFFFFFFF1
00017CFFFFFEB50038CEFE80
000000123320000000000000
ENDCHAR
STARTCHAR quotesingle
ENCODING 39
SWIDTH 208 0
DWIDTH 7 0
BBX 6 12 0 12
BITMAP
015640
0CFFF7
2FFFFB
3FFFFD
2FFFFD
1FFFFC
0EFFFA
0CFFF7
09FFF4
05FFE0
01EF90
005B10
ENDCHAR
STARTCHAR parenleft
ENCODING 40
SWIDTH 384 0
DWIDTH 12 0
BBX 11 33 1 -8
BITMAP
0000005ACB40
00002CFFFFB0
0001DFFFFFC0
000CFFFFFF90
006FFFFE6400
00DFFFF30000
05FFFF800000
0AFFFF100000
0EFFFB000000
3FFFF7000000
7FFFF4000000
AFFFF1000000
CFFFF0000000
EFFFD0000000
FFFFC0000000
FFFFC0000000
FFFFC0000000
FFFFC0000000
EFFFD0000000
DFFFE0000000
BFFFF0000000
8FFFF2000000
5FFFF5000000
1FFFF8000000
0CFFFD000000
07FFFF300000
01FFFFB00000
009FFFF80000
001EFFFFDC40
0005FFFFFFB0
00007FFFFFC0
000004CFFF80
000000024300
ENDCHAR
STARTCHAR parenright
ENCODING 41
SWIDTH 384 0
DWIDTH 12 0
BBX 12 33 0 -8
BITMAP
19CA71000000
7FFFFE400000
8FFFFFF40000
5FFFFFFE2000
035BFFFFA000
0000CFFFF300
00003FFFF900
00000BFFFE00
000006FFFF40
000002FFFF80
000000EFFFB0
000000CFFFE0
000000AFFFF1
0000009FFFF3
0000008FFFF4
0000007FFFF4
0000007FFFF5
0000008FFFF4
0000008FFFF3
0000009FFFF2
000000BFFFF0
000000CFFFD0
000000FFFF90
000003FFFF60
000008FFFF20
00000DFFFB00
00007FFFF600
0004FFFFD000
2BDFFFFF5000
7FFFFFF90000
7FFFFFA00000
4FFFE7000000
024300000000
ENDCHAR
STARTCHAR asterisk
ENCODING 42
SWIDTH 503 0
DWIDTH 16 0
BBX 16 15 0 9
BITMAP
0000009CC9100000
000006FFFF800000
000008FFFFA00000
017518FFFFA04720
0CFFFEFFFFEEFFD0
4FFFFFFFFFFFFFF5
7FFFFFFFFFFFFFF8
5FFFFFFFFFFFFFF6
06CFFFFFFFFFFC60
0006FFFFFFFF8000
002EFFFFFFFFF300
00AFFFFFFFFFFB00
00CFFFFDBFFFFD00
003EFFE32EFFE400
00019D5003BA2000
ENDCHAR
STARTCHAR plus
ENCODING 43
SWIDTH 527 0
DWIDTH 17 0
BBX 17 16 0 1
BITMAP
000000156400000000
000000CFFFA0000000
000001FFFFE0000000
000001FFFFF0000000
000001FFFFF0000000
003445FFFFF4443000
0DFFFFFFFFFFFFFA00
2FFFFFFFFFFFFFFF00
3FFFFFFFFFFFFFFF10
1FFFFFFFFFFFFFFE00
06BBCCFFFFFCCBA500
000001FFFFF0000000
000001FFFFF0000000
000001FFFFE0000000
000000EFFFD0000000
0000005CCB40000000
ENDCHAR
STARTCHAR comma
ENCODING 44
SWIDTH 238 0
DWIDTH 8 0
BBX 7 12 0 -6
BITMAP
05CEEA20
1EFFFF90
2FFFFFC0
3FFFFFC0
1FFFFFA0
05DFFF80
002FFF40
008FFD00
06FFF400
2FFF8000
1FD60000
01000000
ENDCHAR
STARTCHAR hyphen
ENCODING 45
SWIDTH 433 0
DWIDTH 14 0
BBX 13 6 0 4
BITMAP
02778888887610
0EFFFFFFFFFFC0
3FFFFFFFFFFFF0
3FFFFFFFFFFFF0
1EFFFFFFFFFFD0
02788888888720
ENDCHAR
STARTCHAR period
ENCODING 46
SWIDTH 237 0
DWIDTH 8 0
BBX 7 6 0 0
BITMAP
05DEDA20
1EFFFF90
3FFFFFB0
3FFFFFC0
1FFFFF90
06DFFC20
ENDCHAR
STARTCHAR slash
ENCODING 47
SWIDTH 526 0
DWIDTH 17 0
BBX 17 27 0 -2
BITMAP
000000000003EE8100
00000000000CFFFD10
00000000005FFFFF50
0000000000CFFFFF10
0000000004FFFFF900
000000000BFFFFF200
000000003FFFFFA000
00000000AFFFFF3000
00000003FFFFFA0000
0000000AFFFFF30000
0000002FFFFFB00000
0000009FFFFF400000
000002FFFFFB000000
000009FFFFF4000000
00001EFFFFC0000000
00008FFFFF50000000
0001EFFFFC00000000
0007FFFFF500000000
001EFFFFD000000000
007FFFFF6000000000
00DFFFFD0000000000
06FFFFF60000000000
0DFFFFE10000000000
4FFFFF700000000000
7FFFFE100000000000
2DFFF8000000000000
006B91000000000000
ENDCHAR
STARTCHAR zero
ENCODING 48
SWIDTH 608 0
DWIDTH 19 0
BBX 19 25 0 -1
BITMAP
00000038ACB950000000
00002BFFFFFFFE500000
0002EFFFFFFFFFF80000
001DFFFFFFFFFFFF5000
007FFFFFFFFFFFFFE100
00EFFFFFFEEFFFFFF600
05FFFFFD3019FFFFFC00
09FFFFF40000DFFFFF10
0DFFFFE000007FFFFF40
0FFFFFA000003FFFFF70
1FFFFF8000002FFFFF80
2FFFFF7000001FFFFF90
3FFFFF7000000FFFFFA0
2FFFFF8000001FFFFF90
1FFFFF9000002FFFFF80
0EFFFFB000004FFFFF60
0BFFFFF100009FFFFF30
08FFFFF80002EFFFFF10
04FFFFFF946DFFFFFA00
00DFFFFFFFFFFFFFF400
005FFFFFFFFFFFFFB000
000AFFFFFFFFFFFE2000
0000AFFFFFFFFFE40000
000005CFFFFFE9100000
00000002566410000000
ENDCHAR
STARTCHAR one
ENCODING 49
SWIDTH 407 0
DWIDTH 13 0
BBX 12 25 0 -1
BITMAP
000000016740
0000004EFFF6
000005FFFFFA
00007FFFFFFB
0008FFFFFFFB
00AFFFFFFFFB
0BFFFFFFFFFB
6FFFFFFFFFFB
6FFFFFFFFFFB
1DFFFFFFFFFB
02CFC4EFFFFB
000100EFFFFB
000000EFFFFB
000000EFFFFB
000000EFFFFB
000000EFFFFB
000000EFFFFB
000000EFFFFB
000000EFFFFB
000000EFFFFB
000000EFFFFB
000000EFFFFB
000000CFFFF9
0000004DFFC3
000000001000
ENDCHAR
STARTCHAR two
ENCODING 50
SWIDTH 609 0
DWIDTH 19 0
BBX 19 25 0 -1
BITMAP
00000059BCB840000000
00005DFFFFFFFC300000
0007FFFFFFFFFFE50000
005FFFFFFFFFFFFF3000
01EFFFFFFFFFFFFFD000
08FFFFFFFDFFFFFFF500
0DFFFFF9101AFFFFFA00
1FFFFFC00001EFFFFE00
3FFFFF800000AFFFFF10
3FFFFF700000CFFFFF00
1EFFFF400005FFFFFD00
02899500004EFFFFF900
0000000006EFFFFFF300
00000002AFFFFFFFA000
0000007EFFFFFFFC1000
00003CFFFFFFFFB10000
0007FFFFFFFFF8000000
008FFFFFFFFB30000000
05FFFFFFFFC999999710
0DFFFFFFFFFFFFFFFFB0
2FFFFFFFFFFFFFFFFFF0
2FFFFFFFFFFFFFFFFFF0
0CFFFFFFFFFFFFFFFFD0
02CFFFFFFFFFFFFFFD50
00001111111111110000
ENDCHAR
STARTCHAR three
ENCODING 51
SWIDTH 608 0
DWIDTH 19 0
BBX 19 25 0 -1
BITMAP
00000048BCBA62000000
00004DFFFFFFFF910000
0006FFFFFFFFFFFC1000
004FFFFFFFFFFFFFB000
00BFFFFFFFFFFFFFF600
02FFFFFFEBBEFFFFFC00
02FFFFFA1002DFFFFF10
008FFFE200009FFFFF20
0004AB401346EFFFFF00
00000004FFFFFFFFFA00
0000000AFFFFFFFFD100
0000000CFFFFFFFD1000
0000000BFFFFFFFF9000
00000006FFFFFFFFF900
00000000478BFFFFFF30
04ACC80000008FFFFF80
1FFFFF5000001FFFFFA0
2FFFFFC000005FFFFF80
0EFFFFFB5237EFFFFF60
09FFFFFFFFFFFFFFFF10
02EFFFFFFFFFFFFFF800
005FFFFFFFFFFFFFB000
0005EFFFFFFFFFF91000
000028EFFFFFFB400000
00000003565410000000
ENDCHAR
STARTCHAR four
ENCODING 52
SWIDTH 592 0
DWIDTH 19 0
BBX 18 24 0 0
BITMAP
000068610000157730
0006FFFF6000BFFFF5
000BFFFFD000FFFFF9
000EFFFFD000FFFFFA
003FFFFF9000FFFFFA
007FFFFF5000FFFFFA
00BFFFFF2000FFFFFA
00EFFFFD0000FFFFFA
03FFFFF90000FFFFFA
07FFFFF50000FFFFFA
0BFFFFF20000FFFFFA
0EFFFFD11111FFFFFA
3FFFFFFFFFFFFFFFFA
7FFFFFFFFFFFFFFFFA
8FFFFFFFFFFFFFFFFA
7FFFFFFFFFFFFFFFFA
2DFFFFFFFFFFFFFFFA
002333333334FFFFFA
000000000000FFFFFA
000000000000FFFFFA
000000000000FFFFFA
000000000000FFFFF9
000000000000DFFFF7
0000000000004CEEB1
ENDCHAR
STARTCHAR five
ENCODING 53
SWIDTH 530 0
DWIDTH 17 0
BBX 17 25 0 -1
BITMAP
000278877777774000
002EFFFFFFFFFFF500
00AFFFFFFFFFFFF900
00DFFFFFFFFFFFFA00
01FFFFFFFFFFFFF900
03FFFFFFFFFFFFD300
05FFFFF72222210000
07FFFFF40000000000
09FFFFF97620000000
0BFFFFFFFFFB300000
0DFFFFFFFFFFF60000
0FFFFFFFFFFFFF5000
1FFFFFFFFFFFFFE200
1EFFFFFFFFFFFFF900
02BFFFA33AFFFFFE00
0003640000CFFFFF10
00000000009FFFFF20
009EA20000CFFFFF10
0AFFFE745BFFFFFD00
5FFFFFFFFFFFFFF800
7FFFFFFFFFFFFFE100
1CFFFFFFFFFFFF5000
01BFFFFFFFFFF60000
0005CFFFFFFB300000
000002566510000000
ENDCHAR
STARTCHAR six
ENCODING 54
SWIDTH 560 0
DWIDTH 18 0
BBX 18 25 0 -1
BITMAP
000000000014676200
000000017CFFFFFF20
0000005EFFFFFFFF60
000009FFFFFFFFFF70
00009FFFFFFFFFFF50
0005FFFFFFFFFFFD10
001EFFFFFFC7432000
008FFFFFE600000000
01EFFFFF4000000000
06FFFFF80000000000
0AFFFFFADEDB600000
0DFFFFFFFFFFFD3000
0FFFFFFFFFFFFFF400
2FFFFFFFFFFFFFFE10
3FFFFFFFFFFFFFFF90
2FFFFFF8216FFFFFE0
1FFFFFB00009FFFFF1
0EFFFFA00008FFFFF1
0BFFFFE3003EFFFFE0
05FFFFFFDDFFFFFF90
00DFFFFFFFFFFFFF20
004FFFFFFFFFFFF700
0005FFFFFFFFFF7000
00003BFFFFFFB30000
000000145651000000
ENDCHAR
STARTCHAR seven
ENCODING 55
SWIDTH 561 0
DWIDTH 18 0
BBX 18 24 0 0
BITMAP
025666666666666510
3FFFFFFFFFFFFFFFE2
7FFFFFFFFFFFFFFFF6
8FFFFFFFFFFFFFFFF7
6FFFFFFFFFFFFFFFF5
1DFFFFFFFFFFFFFFF1
0033444444AFFFFFB0
0000000001EFFFFF40
000000000AFFFFFC00
000000005FFFFFF400
00000001EFFFFFA000
0000000AFFFFFE1000
0000004FFFFFF60000
000000DFFFFFB00000
000005FFFFFF200000
00000CFFFFF9000000
00003FFFFFE1000000
00008FFFFF90000000
0000CFFFFF20000000
0000FFFFFD00000000
0001FFFFF900000000
0003FFFFF700000000
0002FFFFF600000000
00009EFEB100000000
ENDCHAR
STARTCHAR eight
ENCODING 56
SWIDTH 582 0
DWIDTH 19 0
BBX 18 25 0 -1
BITMAP
0000016BDEDA500000
00005EFFFFFFFC2000
0008FFFFFFFFFFE300
005FFFFFFFFFFFFE10
00DFFFFFFFFFFFFF80
04FFFFFFA8CFFFFFD0
06FFFFF7000CFFFFF1
07FFFFF40009FFFFF1
05FFFFFC204EFFFFE0
01EFFFFFFFFFFFFF90
006FFFFFFFFFFFFE10
000DFFFFFFFFFFF800
00AFFFFFFFFFFFFF40
05FFFFFFFFFFFFFFD0
0CFFFFFC547EFFFFF6
1FFFFFC00003FFFFFA
3FFFFF800000EFFFFC
2FFFFFB00001FFFFFB
0EFFFFF8103CFFFFF8
09FFFFFFFFFFFFFFF3
02FFFFFFFFFFFFFFB0
005FFFFFFFFFFFFD10
0005EFFFFFFFFFB200
000029EFFFFFD60000
000000046652000000
ENDCHAR
STARTCHAR nine
ENCODING 57
SWIDTH 560 0
DWIDTH 18 0
BBX 18 24 0 0
BITMAP
0000038BCCA6200000
0001AFFFFFFFF80000
002DFFFFFFFFFFA000
00DFFFFFFFFFFFF700
07FFFFFFFFFFFFFE10
0DFFFFFA77CFFFFF60
1FFFFFA0001EFFFFB0
3FFFFF60000BFFFFE0
2FFFFFA0001EFFFFF1
0DFFFFFB78EFFFFFF2
07FFFFFFFFFFFFFFF1
00CFFFFFFFFFFFFFF0
001CFFFFFFFFFFFFE0
00008EFFFFFFFFFFB0
00000157867FFFFF70
0000000001DFFFFF30
000000001BFFFFFB00
00000004CFFFFFF400
00599BEFFFFFFFA000
04FFFFFFFFFFFD1000
08FFFFFFFFFFE30000
09FFFFFFFFFD300000
07FFFFFFFE81000000
01BFFFDA6100000000
ENDCHAR
STARTCHAR colon
ENCODING 58
SWIDTH 238 0
DWIDTH 8 0
BBX 7 17 0 0
BITMAP
00022000
08EFFD30
1FFFFFA0
3FFFFFC0
2FFFFFC0
0EFFFF80
04ACC910
00000000
00000000
00000000
00000000
05CEEB20
1FFFFF90
3FFFFFC0
3FFFFFC0
1FFFFF90
06DFFC20
ENDCHAR
STARTCHAR semicolon
ENCODING 59
SWIDTH 237 0
DWIDTH 8 0
BBX 7 23 0 -6
BITMAP
00121000
08FFFD30
1FFFFFA0
3FFFFFC0
2FFFFFB0
0EFFFF80
04ACC910
00000000
00000000
00000000
00000000
05DEDA20
1EFFFF90
3FFFFFB0
3FFFFFB0
1FFFFFA0
06DFFF80
002FFF40
008FFD00
06FFF400
2FFF9000
1FE70000
01000000
ENDCHAR
STARTCHAR less
ENCODING 60
SWIDTH 627 0
DWIDTH 20 0
BBX 20 22 0 0
BITMAP
0000000000000006DD30
00000000000003CFFFD0
0000000000019FFFFFF6
00000000006EFFFFFFF7
000000004CFFFFFFFFB1
0000002AFFFFFFFFE600
000007EFFFFFFFF91000
0004DFFFFFFFFC300000
02AFFFFFFFFE50000000
2EFFFFFFFF8100000000
7FFFFFFFB20000000000
7FFFFFFFC30000000000
2EFFFFFFFF9100000000
02AFFFFFFFFE60000000
0004CFFFFFFFFC300000
000007EFFFFFFFF91000
00000019FFFFFFFFE600
000000003CFFFFFFFFC1
00000000006EFFFFFFF8
0000000000019FFFFFF6
00000000000003CFFFC0
0000000000000005CC20
ENDCHAR
STARTCHAR equal
ENCODING 61
SWIDTH 478 0
DWIDTH 15 0
BBX 15 12 0 1
BITMAP
08DEEEEEEEEEEA10
1FFFFFFFFFFFFF60
2FFFFFFFFFFFFF70
1FFFFFFFFFFFFF60
06CDDDDDDDDDDA10
0000000000000000
0012222222222000
0BFFFFFFFFFFFD10
2FFFFFFFFFFFFF60
3FFFFFFFFFFFFF70
1FFFFFFFFFFFFF50
049AAAAAAAAAA700
ENDCHAR
STARTCHAR greater
ENCODING 62
SWIDTH 627 0
DWIDTH 20 0
BBX 20 22 0 0
BITMAP
02DD6000000000000000
0CFFFC40000000000000
5FFFFFFA200000000000
6FFFFFFFE70000000000
1BFFFFFFFFD400000000
006EFFFFFFFFA2000000
00018FFFFFFFFE700000
000003BFFFFFFFFD4000
00000005DFFFFFFFFB20
0000000018FFFFFFFFE2
00000000002BFFFFFFF7
00000000002BFFFFFFF7
0000000018FFFFFFFFE2
00000006EFFFFFFFFA20
000003CFFFFFFFFD4000
00019FFFFFFFFE700000
006EFFFFFFFFA2000000
1BFFFFFFFFC400000000
7FFFFFFFE70000000000
5FFFFFF9100000000000
0CFFFC30000000000000
02CC6000000000000000
ENDCHAR
STARTCHAR question
ENCODING 63
SWIDTH 512 0
DWIDTH 16 0
BBX 16 24 0 0
BITMAP
00004ADFFD930000
001BFFFFFFFF9000
00BFFFFFFFFFFB00
09FFFFFFFFFFFF70
2FFFFFFFFFFFFFE1
6FFFFF7226FFFFF5
6FFFFA00009FFFF8
07EFF300008FFFF8
0003200001DFFFF6
000000016DFFFFF2
0000004EFFFFFFA0
000002EFFFFFFD10
000005FFFFFFA100
000007FFFFD40000
000005FFFF900000
0000006997100000
0000000000000000
0000000000000000
000003BEEC300000
00000BFFFFD00000
00000EFFFFF00000
00000EFFFFF00000
00000CFFFFD00000
000003CFFD400000
ENDCHAR
STARTCHAR at
ENCODING 64
SWIDTH 908 0
DWIDTH 29 0
BBX 29 27 0 -5
BITMAP
000000000003555430000000000000
000000005BFFFFFFFFC83000000000
0000005DFFFFFFFFFFFFFC30000000
00001AFFFFFFFFFFFFFFFFF9000000
0000BFFFFFFDBA9ACFFFFFFFB00000
0009FFFFE9200000004AFFFFFA0000
005FFFFC2000242002423CFFFF5000
00DFFFC1002BFFFB7FFF31BFFFD100
05FFFF2005EFFFFFFFFF402EFFF600
0AFFF9004FFFFFFFFFFF2007FFFB00
0EFFF300DFFFFDEFFFFF0002FFFE00
1FFFE005FFFE401CFFFD0000EFFF20
2FFFD008FFF80007FFFB0000CFFF30
3FFFC009FFF8000BFFF90000BFFF30
2FFFD008FFFE539FFFF70000CFFF20
1FFFE004FFFFFFFFFFF50000EFFF10
0EFFF300CFFFFFFFFFF30004FFFD00
0AFFF8002DFFFFFFFFF1001CFFF900
06FFFE10018DDB4FFFF001BFFFF200
01EFFF900000000EFFFCBFFFFF9000
008FFFF90000000AFFFFFFFFFC1000
000CFFFFD6200002EFFFFFFFB10000
0002EFFFFFFEDC702CFFFFC5000000
00002DFFFFFFFFE000244200000000
0000018FFFFFFFE000000000000000
000000027BEFFFA000000000000000
000000000001220000000000000000
ENDCHAR
STARTCHAR A
ENCODING 65
SWIDTH 765 0
DWIDTH 24 0
BBX 24 25 0 -1
BITMAP
000000000005620000000000
0000000001CFFF5000000000
0000000008FFFFE100000000
000000001EFFFFF700000000
000000007FFFFFFD00000000
00000001EFFFFFFF60000000
00000006FFFFFFFFD0000000
0000000DFFFFFFFFF6000000
0000006FFFFFFFFFFD000000
000000DFFFFFFFFFFF500000
000005FFFFFD8FFFFFC00000
00000DFFFFF71EFFFFF50000
00005FFFFFE107FFFFFC0000
0000CFFFFF7001EFFFFF4000
0004FFFFFFCBBBEFFFFFB000
000CFFFFFFFFFFFFFFFFF400
004FFFFFFFFFFFFFFFFFFB00
00BFFFFFFFFFFFFFFFFFFF30
03FFFFFFFFFFFFFFFFFFFFA0
0BFFFFF9000000002FFFFFF3
2FFFFFF20000000009FFFFFA
7FFFFF900000000002FFFFFE
3FFFFF200000000000AFFFFB
04CFF80000000000002EFF91
000330000000000000014100
ENDCHAR
STARTCHAR B
ENCODING 66
SWIDTH 646 0
DWIDTH 21 0
BBX 19 24 1 0
BITMAP
04777777777751000000
6FFFFFFFFFFFFFA10000
AFFFFFFFFFFFFFFD2000
BFFFFFFFFFFFFFFFD100
BFFFFFFFFFFFFFFFF700
BFFFFFFFFFFFFFFFFD00
BFFFFE333335DFFFFF10
BFFFFE0000008FFFFF30
BFFFFE0000008FFFFF20
BFFFFE000589EFFFFD00
BFFFFE006FFFFFFFF800
BFFFFE009FFFFFFFF200
BFFFFE008FFFFFFFFB00
BFFFFE002CFFFFFFFF40
BFFFFE0000016FFFFF90
BFFFFE0000000DFFFFC0
BFFFFE0000000DFFFFD0
BFFFFE0000003FFFFFB0
BFFFFFBBBBBBFFFFFF80
BFFFFFFFFFFFFFFFFF30
BFFFFFFFFFFFFFFFFA00
BFFFFFFFFFFFFFFFD100
9FFFFFFFFFFFFFFB1000
2AEFFFFFFFFEDA500000
ENDCHAR
STARTCHAR C
ENCODING 67
SWIDTH 679 0
DWIDTH 22 0
BBX 21 25 0 -1
BITMAP
000000000269AA85100000
00000005CFFFFFFFFB3000
000003CFFFFFFFFFFFFA10
00006FFFFFFFFFFFFFFFA0
0006FFFFFFFFFFFFFFFFD0
003FFFFFFFFFFFFFFFFF80
00CFFFFFFD720038FFFD10
04FFFFFF910000002AA100
09FFFFFA00000000000000
0EFFFFF200000000000000
1FFFFFB000000000000000
2FFFFF8000000000000000
3FFFFF7000000000000000
1FFFFF9000000000000000
0FFFFFD000000000000000
0BFFFFF500000000000000
07FFFFFD20000000011000
01EFFFFFD50000008FF500
007FFFFFFFC8679EFFFE20
000BFFFFFFFFFFFFFFFFA0
0001CFFFFFFFFFFFFFFFD0
00001BFFFFFFFFFFFFFF60
0000006EFFFFFFFFFFD400
000000016BFFFFFEB50000
0000000000134430000000
ENDCHAR
STARTCHAR D
ENCODING 68
SWIDTH 704 0
DWIDTH 23 0
BBX 21 24 1 0
BITMAP
0477777776530000000000
6FFFFFFFFFFFD810000000
AFFFFFFFFFFFFFE7000000
BFFFFFFFFFFFFFFFA10000
BFFFFFFFFFFFFFFFFB0000
BFFFFFFFFFFFFFFFFF9000
BFFFFE33346BFFFFFFF300
BFFFFE0000005EFFFFFB00
BFFFFE00000004FFFFFF20
BFFFFE000000009FFFFF60
BFFFFE000000003FFFFF90
BFFFFE000000000FFFFFA0
BFFFFE000000000FFFFFA0
BFFFFE000000001FFFFF90
BFFFFE000000006FFFFF70
BFFFFE00000001DFFFFF30
BFFFFE0000001BFFFFFD00
BFFFFE000004CFFFFFF600
BFFFFFBBBBEFFFFFFFD000
BFFFFFFFFFFFFFFFFE2000
BFFFFFFFFFFFFFFFE40000
AFFFFFFFFFFFFFFD300000
8FFFFFFFFFFFFF81000000
2BEFFFFFFECA6100000000
ENDCHAR
STARTCHAR E
ENCODING 69
SWIDTH 638 0
DWIDTH 20 0
BBX 19 24 1 0
BITMAP
03677777777777776300
5FFFFFFFFFFFFFFFFF40
AFFFFFFFFFFFFFFFFF80
BFFFFFFFFFFFFFFFFF90
BFFFFFFFFFFFFFFFFF70
BFFFFFFFFFFFFFFFFE20
BFFFFE33333333332000
BFFFFE00000000000000
BFFFFE00000000000000
BFFFFF88888887100000
BFFFFFFFFFFFFFC00000
BFFFFFFFFFFFFFF10000
BFFFFFFFFFFFFFF10000
BFFFFFFFFFFFFFE00000
BFFFFFFFFFFFFE600000
BFFFFE22222210000000
BFFFFE00000000000000
BFFFFE00000000000000
BFFFFFAAAAAAAAAA9600
BFFFFFFFFFFFFFFFFF50
BFFFFFFFFFFFFFFFFF80
BFFFFFFFFFFFFFFFFF90
9FFFFFFFFFFFFFFFFF70
2BEFFFFFFFFFFFFFEB10
ENDCHAR
STARTCHAR F
ENCODING 70
SWIDTH 637 0
DWIDTH 20 0
BBX 19 24 1 0
BITMAP
03677777777777776300
5FFFFFFFFFFFFFFFFF40
AFFFFFFFFFFFFFFFFF80
BFFFFFFFFFFFFFFFFF80
BFFFFFFFFFFFFFFFFF70
BFFFFFFFFFFFFFFFFE20
BFFFFE33333333333000
BFFFFE00000000000000
BFFFFE00000000000000
BFFFFF88888887100000
BFFFFFFFFFFFFFB00000
BFFFFFFFFFFFFFF00000
BFFFFFFFFFFFFFF10000
BFFFFFFFFFFFFFE00000
BFFFFFFFFFFFFF600000
BFFFFE22222221000000
BFFFFE00000000000000
BFFFFE00000000000000
BFFFFE00000000000000
BFFFFE00000000000000
BFFFFE00000000000000
BFFFFE00000000000000
9FFFFC00000000000000
2BEFC400000000000000
ENDCHAR
STARTCHAR G
ENCODING 71
SWIDTH 714 0
DWIDTH 23 0
BBX 22 25 0 -1
BITMAP
0000000016ABDCB8300000
00000029FFFFFFFFFC5000
000005EFFFFFFFFFFFFA10
00008FFFFFFFFFFFFFFFA0
0007FFFFFFFFFFFFFFFFB0
004FFFFFFFFECEFFFFFF40
00CFFFFFFA300018EFF800
05FFFFFF60000000175000
0AFFFFF800000000000000
0EFFFFE100001222222100
1FFFFFA00005FFFFFFFFD2
2FFFFF80000AFFFFFFFFF7
2FFFFF80000AFFFFFFFFF8
1FFFFFA00008FFFFFFFFF8
0EFFFFE000017889FFFFF8
0AFFFFF700000001FFFFF8
06FFFFFF40000001FFFFF8
01DFFFFFF6000001FFFFF8
006FFFFFFFD8678DFFFFF8
000AFFFFFFFFFFFFFFFFF8
0001CFFFFFFFFFFFFFFFF5
00001BFFFFFFFFFFFFFFA0
0000007EFFFFFFFFFFF700
000000018DFFFFFFC81000
0000000000134431000000
ENDCHAR
STARTCHAR H
ENCODING 72
SWIDTH 699 0
DWIDTH 22 0
BBX 21 24 1 0
BITMAP
0366400000000003675000
5FFFF9000000003FFFFB00
AFFFFD000000008FFFFF10
BFFFFE000000009FFFFF10
BFFFFE000000009FFFFF10
BFFFFE000000009FFFFF10
BFFFFE000000009FFFFF10
BFFFFE000000009FFFFF10
BFFFFE000000009FFFFF10
BFFFFE111111119FFFFF10
BFFFFFFFFFFFFFFFFFFF10
BFFFFFFFFFFFFFFFFFFF10
BFFFFFFFFFFFFFFFFFFF10
BFFFFFFFFFFFFFFFFFFF10
BFFFFF99999999DFFFFF10
BFFFFE000000009FFFFF10
BFFFFE000000009FFFFF10
BFFFFE000000009FFFFF10
BFFFFE000000009FFFFF10
BFFFFE000000009FFFFF10
BFFFFE000000009FFFFF10
BFFFFE000000008FFFFF10
9FFFFC000000007FFFFE00
2BEEC4000000001AEED500
ENDCHAR
STARTCHAR I
ENCODING 73
SWIDTH 257 0
DWIDTH 8 0
BBX 6 24 1 0
BITMAP
036640
5FFFF9
AFFFFD
BFFFFE
BFFFFE
BFFFFE
BFFFFE
BFFFFE
BFFFFE
BFFFFE
BFFFFE
BFFFFE
BFFFFE
BFFFFE
BFFFFE
BFFFFE
BFFFFE
BFFFFE
BFFFFE
BFFFFE
BFFFFE
BFFFFE
9FFFFC
2BEFC4
ENDCHAR
STARTCHAR J
ENCODING 74
SWIDTH 549 0
DWIDTH 18 0
BBX 17 25 0 -1
BITMAP
000000000001575100
00000000001DFFFD00
00000000004FFFFF30
00000000005FFFFF40
00000000006FFFFF40
00000000006FFFFF40
00000000006FFFFF40
00000000006FFFFF40
00000000006FFFFF40
00000000006FFFFF40
00000000006FFFFF40
00000000006FFFFF40
00000000006FFFFF40
00000000006FFFFF40
00000000006FFFFF40
00000000006FFFFF40
00273000008FFFFF30
04EFF60001EFFFFF10
2EFFFFB68EFFFFFC00
7FFFFFFFFFFFFFF600
4FFFFFFFFFFFFFC000
09FFFFFFFFFFFE2000
007FFFFFFFFFD20000
00029EFFFFD7000000
000001344200000000
ENDCHAR
STARTCHAR K
ENCODING 75
SWIDTH 639 0
DWIDTH 20 0
BBX 19 25 1 -1
BITMAP
03664000000002BB3000
5FFFF90000002EFFF500
AFFFFD000001DFFFFF20
BFFFFE00000BFFFFFF40
BFFFFE0000AFFFFFFC00
BFFFFE0008FFFFFFE200
BFFFFE006FFFFFFE3000
BFFFFE05FFFFFFE30000
BFFFFE3EFFFFFE300000
BFFFFFEFFFFFE3000000
BFFFFFFFFFFE30000000
BFFFFFFFFFE300000000
BFFFFFFFFFA000000000
BFFFFFFFFFF900000000
BFFFFFFFFFFFA0000000
BFFFFE9FFFFFFA000000
BFFFFE0AFFFFFFA00000
BFFFFE01CFFFFFF90000
BFFFFE001DFFFFFF8000
BFFFFE0002EFFFFFF600
BFFFFE00003EFFFFFF20
BFFFFE000005FFFFFF40
9FFFFC0000006FFFFB00
2BEFC400000007FF9100
00000000000000330000
ENDCHAR
STARTCHAR L
ENCODING 76
SWIDTH 587 0
DWIDTH 19 0
BBX 17 24 1 0
BITMAP
036640000000000000
5FFFF9000000000000
AFFFFD000000000000
BFFFFE000000000000
BFFFFE000000000000
BFFFFE000000000000
BFFFFE000000000000
BFFFFE000000000000
BFFFFE000000000000
BFFFFE000000000000
BFFFFE000000000000
BFFFFE000000000000
BFFFFE000000000000
BFFFFE000000000000
BFFFFE000000000000
BFFFFE000000000000
BFFFFE000000000000
BFFFFE000000000000
BFFFFE000000000000
BFFFFFBBBBBBBBBA30
BFFFFFFFFFFFFFFFD0
BFFFFFFFFFFFFFFFF0
9FFFFFFFFFFFFFFFE0
2BEFFFFFFFFFFFFE60
ENDCHAR
STARTCHAR M
ENCODING 77
SWIDTH 870 0
DWIDTH 28 0
BBX 26 24 1 0
BITMAP
03663000000000000000046520
5FFFFA00000000000001CFFFF3
AFFFFF7000000000000AFFFFF8
BFFFFFF400000000007FFFFFF8
BFFFFFFD1000000003FFFFFFF8
BFFFFFFFB00000001DFFFFFFF8
BFFFFFFFF8000000BFFFFFFFF8
BFFFFFFFFF400008FFFFFFFFF8
BFFFFFFFFFE2004FFFFFFFFFF8
BFFFFFFFFFFC02EFFFFFFFFFF8
BFFFFEEFFFFF9BFFFFFDFFFFF8
BFFFFE4FFFFFFFFFFFE3FFFFF8
BFFFFE08FFFFFFFFFF52FFFFF8
BFFFFE00CFFFFFFFF902FFFFF8
BFFFFE002EFFFFFFD102FFFFF8
BFFFFE0005FFFFFF3002FFFFF8
BFFFFE00009FFFF60002FFFFF8
BFFFFE000008DD600002FFFFF8
BFFFFE00000000000002FFFFF8
BFFFFE00000000000002FFFFF8
BFFFFE00000000000002FFFFF8
BFFFFE00000000000001FFFFF8
9FFFFC00000000000000EFFFF6
2BEEC3000000000000005CEEA0
ENDCHAR
STARTCHAR N
ENCODING 78
SWIDTH 720 0
DWIDTH 23 0
BBX 21 24 1 0
BITMAP
0366400000000000466300
5FFFFA0000000008FFFF60
AFFFFF700000000CFFFFA0
BFFFFFF40000000DFFFFB0
BFFFFFFD1000000DFFFFC0
BFFFFFFFA000000DFFFFC0
BFFFFFFFF600000DFFFFC0
BFFFFFFFFF30000DFFFFC0
BFFFFFFFFFD1000DFFFFC0
BFFFFFFFFFFA000DFFFFC0
BFFFFFFFFFFF600DFFFFC0
BFFFFE7FFFFFF30DFFFFC0
BFFFFE0AFFFFFD1DFFFFC0
BFFFFE01DFFFFFADFFFFC0
BFFFFE003FFFFFFFFFFFC0
BFFFFE0006FFFFFFFFFFC0
BFFFFE0000AFFFFFFFFFC0
BFFFFE00001DFFFFFFFFC0
BFFFFE000003EFFFFFFFC0
BFFFFE0000006FFFFFFFC0
BFFFFE0000000AFFFFFFC0
BFFFFE00000001DFFFFFB0
9FFFFC000000003EFFFF90
2CFFC40000000004DFFC20
ENDCHAR
STARTCHAR O
ENCODING 79
SWIDTH 775 0
DWIDTH 25 0
BBX 24 25 0 -1
BITMAP
00000000158ABA8400000000
00000019EFFFFFFFE7000000
000005EFFFFFFFFFFFD30000
00008FFFFFFFFFFFFFFE5000
0006FFFFFFFFFFFFFFFFF300
003FFFFFFFFFEFFFFFFFFE10
00BFFFFFFC40016DFFFFFF90
03FFFFFF80000001BFFFFFF2
08FFFFFA000000000CFFFFF6
0DFFFFE10000000004FFFFFB
0FFFFFB00000000000EFFFFD
2FFFFF800000000000BFFFFE
3FFFFF700000000000AFFFFF
2FFFFF900000000000BFFFFD
0FFFFFC00000000000EFFFFC
0CFFFFF40000000006FFFFF8
08FFFFFD100000002EFFFFF4
02FFFFFFC2000004DFFFFFD0
009FFFFFFFA656BFFFFFFF50
001DFFFFFFFFFFFFFFFFFA00
0002EFFFFFFFFFFFFFFFD100
00003DFFFFFFFFFFFFFC1000
000002AFFFFFFFFFFF910000
00000004AEFFFFFEA3000000
000000000035643000000000
ENDCHAR
STARTCHAR P
ENCODING 80
SWIDTH 632 0
DWIDTH 20 0
BBX 19 24 1 0
BITMAP
03677777776410000000
5FFFFFFFFFFFF9200000
AFFFFFFFFFFFFFE50000
BFFFFFFFFFFFFFFF6000
BFFFFFFFFFFFFFFFF200
BFFFFFFFFFFFFFFFFA00
BFFFFE33335BFFFFFE10
BFFFFE000000AFFFFF40
BFFFFE0000005FFFFF50
BFFFFE0000004FFFFF60
BFFFFE0000009FFFFF40
BFFFFE222239FFFFFF10
BFFFFFFFFFFFFFFFFB00
BFFFFFFFFFFFFFFFF300
BFFFFFFFFFFFFFFF7000
BFFFFFFFFFFFFFF60000
BFFFFFFFFFFFFA200000
BFFFFF88887510000000
BFFFFE00000000000000
BFFFFE00000000000000
BFFFFE00000000000000
BFFFFE00000000000000
9FFFFC00000000000000
2BEEC400000000000000
ENDCHAR
STARTCHAR Q
ENCODING 81
SWIDTH 830 0
DWIDTH 27 0
BBX 26 25 0 -1
BITMAP
00000000158ABA840000000000
00000019EFFFFFFFE700000000
000005EFFFFFFFFFFFD3000000
00008FFFFFFFFFFFFFFE500000
0006FFFFFFFFFFFFFFFFF30000
003FFFFFFFFFEFFFFFFFFE1000
00BFFFFFFC40016DFFFFFF8000
03FFFFFF80000001BFFFFFF100
08FFFFFA000000000CFFFFF600
0DFFFFE10000000004FFFFFA00
0FFFFFB00000000000EFFFFD00
2FFFFF800000000000BFFFFE00
3FFFFF700000000000AFFFFF00
2FFFFF900000000000BFFFFE00
0FFFFFC00000000000EFFFFC00
0CFFFFF40000000006FFFFF800
08FFFFFD100000002EFFFFF400
02FFFFFFC2000004DFFFFFE100
009FFFFFFFA656BFFFFFFFFD30
001DFFFFFFFFFFFFFFFFFFFFF6
0002EFFFFFFFFFFFFFFFFFFFFF
00003DFFFFFFFFFFFFFFFFFFFD
000001AFFFFFFFFFFF94DFFFF5
00000004AEFFFFFEA30018FF90
00000000003465300000002300
ENDCHAR
STARTCHAR R
ENCODING 82
SWIDTH 631 0
DWIDTH 20 0
BBX 19 25 1 -1
BITMAP
03677777776410000000
5FFFFFFFFFFFF9200000
AFFFFFFFFFFFFFE60000
BFFFFFFFFFFFFFFF6000
BFFFFFFFFFFFFFFFF200
BFFFFFFFFFFFFFFFFA00
BFFFFE33335BFFFFFF10
BFFFFE000000AFFFFF40
BFFFFE0000004FFFFF60
BFFFFE0000004FFFFF60
BFFFFE0000009FFFFF50
BFFFFE222239FFFFFF10
BFFFFFFFFFFFFFFFFB00
BFFFFFFFFFFFFFFFF400
BFFFFFFFFFFFFFFF7000
BFFFFFFFFFFFFFFF4000
BFFFFFFFFFFFFFFFA000
BFFFFF88888EFFFFF200
BFFFFE000009FFFFF800
BFFFFE000003FFFFFE10
BFFFFE000000BFFFFF60
BFFFFE0000005FFFFFA0
9FFFFC0000000DFFFF60
2BEEC400000005FFC500
00000000000000120000
ENDCHAR
STARTCHAR S
ENCODING 83
SWIDTH 583 0
DWIDTH 19 0
BBX 18 25 0 -1
BITMAP
0000037BCCB9510000
0001AFFFFFFFFE7000
001CFFFFFFFFFFFA00
00AFFFFFFFFFFFFF60
03FFFFFFFFFFFFFF50
08FFFFFE87AFFFFC00
0BFFFFF20004DFD200
0BFFFFE00000020000
0AFFFFF70000000000
06FFFFFFD962000000
01EFFFFFFFFFD83000
005FFFFFFFFFFFFA10
0005EFFFFFFFFFFFA0
000017DFFFFFFFFFF3
000000038BFFFFFFF9
000000000019FFFFFB
008ED4000000EFFFFC
08FFFF500001FFFFFB
2FFFFFF8102AFFFFF9
1FFFFFFFFEFFFFFFF4
07FFFFFFFFFFFFFFC0
00AFFFFFFFFFFFFE20
0008FFFFFFFFFFC200
000029EFFFFFB50000
000000024431000000
ENDCHAR
STARTCHAR T
ENCODING 84
SWIDTH 731 0
DWIDTH 23 0
BBX 23 24 0 0
BITMAP
047777777777777777777610
5FFFFFFFFFFFFFFFFFFFFFB0
7FFFFFFFFFFFFFFFFFFFFFD0
7FFFFFFFFFFFFFFFFFFFFFD0
3EFFFFFFFFFFFFFFFFFFFF80
002222223FFFFF8222222100
000000001FFFFF7000000000
000000001FFFFF7000000000
000000001FFFFF7000000000
000000001FFFFF7000000000
000000001FFFFF7000000000
000000001FFFFF7000000000
000000001FFFFF7000000000
000000001FFFFF7000000000
000000001FFFFF7000000000
000000001FFFFF7000000000
000000001FFFFF7000000000
000000001FFFFF7000000000
000000001FFFFF7000000000
000000001FFFFF7000000000
000000001FFFFF7000000000
000000001FFFFF7000000000
000000000EFFFF5000000000
0000000006DFEA0000000000
ENDCHAR
STARTCHAR U
ENCODING 85
SWIDTH 726 0
DWIDTH 23 0
BBX 21 25 1 -1
BITMAP
0477500000000000477500
6FFFF90000000006FFFF90
AFFFFD000000000AFFFFD0
BFFFFE000000000BFFFFE0
BFFFFF000000000BFFFFE0
BFFFFF000000000BFFFFE0
BFFFFF000000000BFFFFE0
BFFFFF000000000BFFFFE0
BFFFFF000000000BFFFFE0
BFFFFF000000000BFFFFE0
BFFFFF000000000BFFFFE0
BFFFFF000000000BFFFFE0
BFFFFF000000000BFFFFE0
AFFFFF100000000BFFFFE0
9FFFFF200000000DFFFFD0
7FFFFF700000002FFFFFA0
3FFFFFD00000009FFFFF70
0DFFFFF9000005FFFFFF20
07FFFFFFC756AFFFFFFA00
01DFFFFFFFFFFFFFFFF200
004FFFFFFFFFFFFFFF7000
0005FFFFFFFFFFFFF90000
00004EFFFFFFFFFE700000
0000018EFFFFFE92000000
0000000035643000000000
ENDCHAR
STARTCHAR V
ENCODING 86
SWIDTH 783 0
DWIDTH 25 0
BBX 25 24 0 0
BITMAP
00289100000000000001883000
08FFFB0000000000000BFFF900
6FFFFF4000000000003FFFFF70
6FFFFFB00000000000AFFFFF70
1EFFFFF20000000002FFFFFF10
08FFFFF90000000009FFFFF900
01EFFFFF100000001EFFFFF200
008FFFFF800000007FFFFF9000
001FFFFFE1000000EFFFFF2000
0009FFFFF7000006FFFFF90000
0002FFFFFD00000DFFFFF20000
00009FFFFF60005FFFFFA00000
00002FFFFFC000CFFFFF200000
000009FFFFF403FFFFFA000000
000002FFFFFB0AFFFFF2000000
0000009FFFFF6FFFFFA0000000
0000002FFFFFFFFFFF30000000
00000009FFFFFFFFFA00000000
00000002FFFFFFFFF300000000
00000000AFFFFFFFA000000000
000000002FFFFFFF3000000000
000000000AFFFFFB0000000000
0000000002FFFFF30000000000
00000000004CEC400000000000
ENDCHAR
STARTCHAR W
ENCODING 87
SWIDTH 999 0
DWIDTH 32 0
BBX 32 24 0 0
BITMAP
00388200000000166100000000298400
1BFFFC00000003EFFE30000000CFFFB1
7FFFFF3000000BFFFFA0000004FFFFF6
6FFFFF8000002FFFFFF1000009FFFFF5
2FFFFFD000007FFFFFF500000DFFFFF1
0BFFFFF30000CFFFFFFA00003FFFFFA0
06FFFFF80002FFFFFFFE10008FFFFF50
01FFFFFD0006FFFFFFFF5000DFFFFE10
00BFFFFF200BFFFFFFFFA003FFFFFA00
005FFFFF701FFFFFFFFFE108FFFFF400
001EFFFFC06FFFFFFFFFF50DFFFFE000
000AFFFFF2BFFFFEEFFFFA3FFFFF9000
0005FFFFF9FFFFF9AFFFFE9FFFFF4000
0000EFFFFFFFFFF45FFFFFFFFFFE0000
00009FFFFFFFFFD00EFFFFFFFFF90000
00004FFFFFFFFF8009FFFFFFFFF30000
00000EFFFFFFFF3004FFFFFFFFD00000
000009FFFFFFFD0000EFFFFFFF800000
000003FFFFFFF800009FFFFFFF300000
000000DFFFFFF300004FFFFFFD000000
0000008FFFFFD000000EFFFFF7000000
0000003FFFFF80000009FFFFF2000000
0000000BFFFE20000003FFFFB0000000
00000001AEC4000000005CEA10000000
ENDCHAR
STARTCHAR X
ENCODING 88
SWIDTH 741 0
DWIDTH 24 0
BBX 24 25 0 -1
BITMAP
008FD20000000000005EE500
0AFFFE200000000005FFFF60
5FFFFFD1000000003EFFFFF1
6FFFFFFB00000002EFFFFFF2
1CFFFFFFA000001DFFFFFF90
02DFFFFFF80000BFFFFFFB00
003EFFFFFF600AFFFFFFC100
0003EFFFFFF48FFFFFFD1000
00004FFFFFFFFFFFFFD20000
000006FFFFFFFFFFFE300000
0000007FFFFFFFFFE3000000
00000008FFFFFFFF50000000
00000005FFFFFFFE20000000
0000004FFFFFFFFFD1000000
000003EFFFFFFFFFFC100000
00002EFFFFFFFFFFFFB00000
0001DFFFFFF8BFFFFFFA0000
001CFFFFFF901CFFFFFF9000
00BFFFFFFB0002DFFFFFF800
0AFFFFFFC100003EFFFFFF60
4FFFFFFD20000004FFFFFFE1
7FFFFFE3000000006FFFFFF2
1DFFFF400000000008FFFFA0
01BFF50000000000009FF900
000320000000000000033000
ENDCHAR
STARTCHAR Y
ENCODING 89
SWIDTH 686 0
DWIDTH 22 0
BBX 22 25 0 -1
BITMAP
003AA100000000002AA300
08FFFC0000000000DFFF80
5FFFFF7000000008FFFFF4
6FFFFFE20000003FFFFFF5
1EFFFFFB000000CFFFFFD0
05FFFFFF500006FFFFFF40
00AFFFFFE1001EFFFFF900
001EFFFFF900AFFFFFD100
0005FFFFFF34FFFFFF4000
0000AFFFFFCDFFFFF90000
00001EFFFFFFFFFFD10000
000005FFFFFFFFFF400000
000000AFFFFFFFF9000000
0000001EFFFFFFD1000000
00000005FFFFFF40000000
00000000DFFFFD00000000
00000000DFFFFC00000000
00000000DFFFFC00000000
00000000DFFFFC00000000
00000000DFFFFC00000000
00000000DFFFFC00000000
00000000DFFFFC00000000
00000000BFFFFB00000000
000000004DFFD300000000
0000000000110000000000
ENDCHAR
STARTCHAR Z
ENCODING 90
SWIDTH 643 0
DWIDTH 21 0
BBX 20 25 0 -1
BITMAP
01677777777777777400
0DFFFFFFFFFFFFFFFF90
2FFFFFFFFFFFFFFFFFF2
3FFFFFFFFFFFFFFFFFF4
1FFFFFFFFFFFFFFFFFF2
08EFFFFFFFFFFFFFFF60
00011111114FFFFFFB00
0000000001DFFFFFE100
000000000AFFFFFF4000
000000005FFFFFF80000
00000002EFFFFFC00000
0000000CFFFFFE200000
0000008FFFFFF6000000
000004FFFFFFA0000000
00001DFFFFFD10000000
0000AFFFFFF300000000
0006FFFFFF7000000000
003FFFFFFB0000000000
01CFFFFFF97777777640
09FFFFFFFFFFFFFFFFF6
1FFFFFFFFFFFFFFFFFFB
2FFFFFFFFFFFFFFFFFFB
0DFFFFFFFFFFFFFFFFF9
03CFFFFFFFFFFFFFFFD3
00011111111111111100
ENDCHAR
STARTCHAR bracketleft
ENCODING 91
SWIDTH 348 0
DWIDTH 11 0
BBX 10 33 1 -8
BITMAP
18BBBBBBA2
8FFFFFFFF8
AFFFFFFFFA
BFFFFFFFF9
BFFFFEDDC3
BFFFF70000
BFFFF70000
BFFFF70000
BFFFF70000
BFFFF70000
BFFFF70000
BFFFF70000
BFFFF70000
BFFFF70000
BFFFF70000
BFFFF70000
BFFFF70000
BFFFF70000
BFFFF70000
BFFFF70000
BFFFF70000
BFFFF70000
BFFFF70000
BFFFF70000
BFFFF70000
BFFFF70000
BFFFF70000
BFFFFA6640
BFFFFFFFF6
BFFFFFFFF9
9FFFFFFFF9
4FFFFFFFF6
0134444320
ENDCHAR
STARTCHAR backslash
ENCODING 92
SWIDTH 528 0
DWIDTH 17 0
BBX 17 27 0 -2
BITMAP
029ED2000000000000
3EFFFB000000000000
7FFFFF300000000000
3FFFFFA00000000000
0BFFFFF30000000000
04FFFFFA0000000000
00CFFFFF2000000000
004FFFFF9000000000
000CFFFFF200000000
0005FFFFF800000000
0000DFFFFE10000000
00006FFFFF80000000
00000DFFFFE1000000
000006FFFFF7000000
000000EFFFFE100000
0000007FFFFF600000
0000001EFFFFD00000
00000007FFFFF60000
00000001EFFFFD0000
000000008FFFFF5000
000000001EFFFFC000
0000000009FFFFF500
0000000002FFFFFC00
00000000009FFFFF30
00000000002FFFFF60
00000000000AFFFC10
000000000002BA5000
ENDCHAR
STARTCHAR bracketright
ENCODING 93
SWIDTH 348 0
DWIDTH 11 0
BBX 10 33 0 -8
BITMAP
19BBBBBB91
6FFFFFFFFA
8FFFFFFFFC
7FFFFFFFFD
1BDDEFFFFD
00005FFFFD
00005FFFFD
00005FFFFD
00005FFFFD
00005FFFFD
00005FFFFD
00005FFFFD
00005FFFFD
00005FFFFD
00005FFFFD
00005FFFFD
00005FFFFD
00005FFFFD
00005FFFFD
00005FFFFD
00005FFFFD
00005FFFFD
00005FFFFD
00005FFFFD
00005FFFFD
00005FFFFD
00005FFFFD
04669FFFFD
5FFFFFFFFD
7FFFFFFFFD
7FFFFFFFFC
4FFFFFFFF6
0234444310
ENDCHAR
STARTCHAR asciicircum
ENCODING 94
SWIDTH 526 0
DWIDTH 17 0
BBX 15 10 1 8
BITMAP
0000002610000000
000004EFE3000000
00004EFFFE300000
0004EFFFFFE20000
004EFFFFFFFE2000
04EFFFFFFFFFE200
3EFFFFD5EFFFFE20
AFFFFD203EFFFF70
4FFFD20004EFFE20
06ED2000003ED400
ENDCHAR
STARTCHAR underscore
ENCODING 95
SWIDTH 826 0
DWIDTH 26 0
BBX 26 6 0 -8
BITMAP
00222222222222222222222210
3EFFFFFFFFFFFFFFFFFFFFFFF8
7FFFFFFFFFFFFFFFFFFFFFFFFE
7FFFFFFFFFFFFFFFFFFFFFFFFE
4FFFFFFFFFFFFFFFFFFFFFFFFB
02444444444444444444444441
ENDCHAR
STARTCHAR grave
ENCODING 96
SWIDTH 482 0
DWIDTH 15 0
BBX 10 7 3 18
BITMAP
0995100000
6FFFFB6100
BFFFFFFFB2
DFFFFFFFF8
5DFFFFFFF5
0038DFFFE1
0000037B50
ENDCHAR
STARTCHAR a
ENCODING 97
SWIDTH 596 0
DWIDTH 19 0
BBX 18 17 0 0
BITMAP
0000027BCA601ACCA2
00007EFFFFFCAFFFF9
0009FFFFFFFFFFFFFC
007FFFFFFFFFFFFFFC
02FFFFFFFFFFFFFFFC
09FFFFFFDCFFFFFFFC
0EFFFFF6002DFFFFFC
2FFFFFA00004FFFFFC
3FFFFF700001FFFFFC
2FFFFF900003FFFFFC
0EFFFFF5001CFFFFFC
0AFFFFFFCBEFFFFFFC
03FFFFFFFFFFFFFFFC
008FFFFFFFFFFFFFFC
000BFFFFFFFFFFFFFC
00009FFFFFFDBFFFFA
0000039DEC812BEEC3
ENDCHAR
STARTCHAR b
ENCODING 98
SWIDTH 592 0
DWIDTH 19 0
BBX 18 25 1 0
BITMAP
18AB81000000000000
8FFFFA000000000000
BFFFFD000000000000
BFFFFD000000000000
BFFFFD000000000000
BFFFFD000000000000
BFFFFD000000000000
BFFFFD000000000000
BFFFFD06BCB7100000
BFFFFECFFFFFE60000
BFFFFFFFFFFFFF8000
BFFFFFFFFFFFFFF600
BFFFFFFFFFFFFFFE10
BFFFFFFFCEFFFFFF80
BFFFFFC2007FFFFFD0
BFFFFF30000BFFFFF1
BFFFFF000008FFFFF2
BFFFFF20000AFFFFF1
BFFFFFB1006FFFFFD0
BFFFFFFEACFFFFFF90
BFFFFFFFFFFFFFFF20
BFFFFFFFFFFFFFF700
BFFFFFFFFFFFFFA000
9FFFFDEFFFFFF80000
2BEEB329CED9300000
ENDCHAR
STARTCHAR c
ENCODING 99
SWIDTH 517 0
DWIDTH 17 0
BBX 16 19 0 -1
BITMAP
0000000001000000
0000017CFFFC7100
00006EFFFFFFFE60
000AFFFFFFFFFFF6
008FFFFFFFFFFFFA
03FFFFFFFFFFFFF6
0AFFFFFFDBDFFFC0
0EFFFFF80006CB10
1FFFFFC000000000
3FFFFF9000000000
1FFFFFB000000000
0EFFFFF50004A700
0AFFFFFFB9CFFF90
03FFFFFFFFFFFFF5
009FFFFFFFFFFFFA
000BFFFFFFFFFFF7
00008FFFFFFFFF80
0000028DFFFEA300
0000000012100000
ENDCHAR
STARTCHAR d
ENCODING 100
SWIDTH 598 0
DWIDTH 19 0
BBX 17 25 1 0
BITMAP
0000000000018BB810
000000000008FFFFA0
00000000000BFFFFD0
00000000000BFFFFD0
00000000000BFFFFD0
00000000000BFFFFD0
00000000000BFFFFD0
00000000000BFFFFD0
000016BCB71BFFFFD0
0005EFFFFFDDFFFFD0
006FFFFFFFFFFFFFD0
04FFFFFFFFFFFFFFD0
1EFFFFFFFFFFFFFFD0
7FFFFFFECFFFFFFFD0
CFFFFF8001CFFFFFD0
EFFFFC00002FFFFFD0
FFFFF900000DFFFFD0
EFFFFC00001FFFFFD0
CFFFFF7000AFFFFFD0
8FFFFFFCADFFFFFFD0
1EFFFFFFFFFFFFFFD0
06FFFFFFFFFFFFFFD0
008FFFFFFFFFFFFFD0
0007FFFFFFECFFFFB0
000028CED922BEEB30
ENDCHAR
STARTCHAR e
ENCODING 101
SWIDTH 573 0
DWIDTH 18 0
BBX 18 19 0 -1
BITMAP
000000001321000000
000003AEFFFFD81000
00019FFFFFFFFFD300
001CFFFFFFFFFFFE20
00AFFFFFFFFFFFFFC0
04FFFFFFFEEFFFFFF3
0AFFFFFD4007FFFFF6
0EFFFFE20001FFFFF8
2FFFFFD8888BFFFFF7
3FFFFFFFFFFFFFFFF3
2FFFFFFFFFFFFFFF70
0FFFFFE66666666200
0BFFFFF60000014100
05FFFFFFC889CFFD10
00CFFFFFFFFFFFFF70
002EFFFFFFFFFFFFA0
0003DFFFFFFFFFFF60
000017DFFFFFFFD600
000000024666420000
ENDCHAR
STARTCHAR f
ENCODING 102
SWIDTH 450 0
DWIDTH 14 0
BBX 14 25 0 0
BITMAP
000000059BCA30
000002DFFFFFD0
00002EFFFFFFF1
0000BFFFFFFFF1
0003FFFFFFFFD0
0007FFFFFECB40
0008FFFFF20000
0009FFFFF10000
069DFFFFFBCCA2
4FFFFFFFFFFFFB
7FFFFFFFFFFFFD
7FFFFFFFFFFFFD
5FFFFFFFFFFFFA
08ADFFFFFBBB92
0009FFFFF10000
0009FFFFF10000
0009FFFFF10000
0009FFFFF10000
0009FFFFF10000
0009FFFFF10000
0009FFFFF10000
0009FFFFF10000
0009FFFFF10000
0007FFFFE00000
0001BFFE500000
ENDCHAR
STARTCHAR g
ENCODING 103
SWIDTH 585 0
DWIDTH 19 0
BBX 18 25 0 -8
BITMAP
0000038CCA504CED90
00008FFFFFFADFFFF4
000BFFFFFFFFFFFFF6
009FFFFFFFFFFFFFF7
03FFFFFFFFFFFFFFF7
0AFFFFFEAAEFFFFFF7
0EFFFFE2002DFFFFF7
2FFFFF700006FFFFF7
3FFFFF500004FFFFF7
1FFFFF900008FFFFF7
0DFFFFF7117FFFFFF7
08FFFFFFFFFFFFFFF7
01EFFFFFFFFFFFFFF7
005FFFFFFFFFFFFFF7
0006FFFFFFFFFFFFF7
00004CFFFFE6FFFFF7
000000367512FFFFF6
000054000007FFFFF5
0008FFA3005EFFFFF1
004FFFFFEEFFFFFFB0
00AFFFFFFFFFFFFF30
007FFFFFFFFFFFF500
0007FFFFFFFFFE5000
000028DFFFFD810000
000000023320000000
ENDCHAR
STARTCHAR h
ENCODING 104
SWIDTH 605 0
DWIDTH 19 0
BBX 18 25 1 0
BITMAP
18AB81000000000000
8FFFFA000000000000
BFFFFD000000000000
BFFFFD000000000000
BFFFFD000000000000
BFFFFD000000000000
BFFFFD000000000000
BFFFFD000000000000
BFFFFD039BB8300000
BFFFFD7FFFFFF90000
BFFFFFFFFFFFFFB000
BFFFFFFFFFFFFFF900
BFFFFFFFFFFFFFFF20
BFFFFFFFCDFFFFFF90
BFFFFFC2005FFFFFD0
BFFFFF20000BFFFFF0
BFFFFD000008FFFFF1
BFFFFD000008FFFFF1
BFFFFD000008FFFFF1
BFFFFD000008FFFFF1
BFFFFD000008FFFFF1
BFFFFD000008FFFFF1
BFFFFD000008FFFFF1
9FFFFB000006FFFFE0
2CFFC4000001AEFD60
ENDCHAR
STARTCHAR i
ENCODING 105
SWIDTH 255 0
DWIDTH 8 0
BBX 6 25 1 0
BITMAP
18AB81
8FFFFA
BFFFFD
BFFFFD
8FFFFB
1ACDA2
000000
000000
19CC92
8FFFFB
BFFFFD
BFFFFD
BFFFFD
BFFFFD
BFFFFD
BFFFFD
BFFFFD
BFFFFD
BFFFFD
BFFFFD
BFFFFD
BFFFFD
BFFFFD
9FFFFB
2CFFC4
ENDCHAR
STARTCHAR j
ENCODING 106
SWIDTH 252 0
DWIDTH 8 0
BBX 12 33 -5 -8
BITMAP
00000017AA81
0000008FFFF9
000000BFFFFC
000000BFFFFC
0000008FFFF9
00000019CC91
000000000000
000000000000
0000002BEEC2
0000009FFFFA
000000BFFFFC
000000BFFFFC
000000BFFFFC
000000BFFFFC
000000BFFFFC
000000BFFFFC
000000BFFFFC
000000BFFFFC
000000BFFFFC
000000BFFFFC
000000BFFFFC
000000BFFFFC
000000BFFFFC
000000BFFFFC
000000CFFFFB
000002FFFFFA
00247EFFFFF6
0BFFFFFFFFE1
2FFFFFFFFF70
3FFFFFFFFA00
2FFFFFFF8000
0BFFFEA30000
003320000000
ENDCHAR
STARTCHAR k
ENCODING 107
SWIDTH 536 0
DWIDTH 17 0
BBX 16 26 1 -1
BITMAP
18BB920000000000
8FFFFA0000000000
BFFFFD0000000000
BFFFFD0000000000
BFFFFD0000000000
BFFFFD0000000000
BFFFFD0000000000
BFFFFD0000000000
BFFFFD0000020000
BFFFFD0003CFC100
BFFFFD004EFFFC00
BFFFFD05FFFFFF50
BFFFFD6FFFFFFF70
BFFFFFFFFFFFFB00
BFFFFFFFFFFF9000
BFFFFFFFFFF70000
BFFFFFFFFF800000
BFFFFFFFFFF60000
BFFFFFFFFFFF8000
BFFFFFFFFFFFFB10
BFFFFD5FFFFFFFC1
BFFFFD04EFFFFFF8
BFFFFD004EFFFFF7
9FFFFB0003EFFFD1
2CFFC400002AFD20
0000000000002000
ENDCHAR
STARTCHAR l
ENCODING 108
SWIDTH 327 0
DWIDTH 10 0
BBX 9 25 1 0
BITMAP
18BC920000
8FFFFA0000
BFFFFD0000
BFFFFD0000
BFFFFD0000
BFFFFD0000
BFFFFD0000
BFFFFD0000
BFFFFD0000
BFFFFD0000
BFFFFD0000
BFFFFD0000
BFFFFD0000
BFFFFD0000
BFFFFD0000
BFFFFD0000
BFFFFD0000
BFFFFD0000
BFFFFE0000
AFFFFF7510
9FFFFFFFB0
6FFFFFFFE0
2FFFFFFFF0
09FFFFFFD0
005ADFFE60
ENDCHAR
STARTCHAR m
ENCODING 109
SWIDTH 851 0
DWIDTH 27 0
BBX 25 17 1 0
BITMAP
19CCA205BDB7100029CDA40000
8FFFF97FFFFFE307FFFFFF9000
BFFFFEFFFFFFFD7FFFFFFFF700
BFFFFFFFFFFFFFFFFFFFFFFF10
BFFFFFFFFFFFFFFFFFFFFFFF70
BFFFFFFDEFFFFFFFECFFFFFFA0
BFFFFF700BFFFFFD103FFFFFC0
BFFFFF0005FFFFF8000CFFFFD0
BFFFFE0003FFFFF7000AFFFFE0
BFFFFE0003FFFFF7000AFFFFE0
BFFFFE0003FFFFF7000AFFFFE0
BFFFFE0003FFFFF7000AFFFFE0
BFFFFE0003FFFFF7000AFFFFE0
BFFFFE0003FFFFF7000AFFFFE0
BFFFFE0003FFFFF7000AFFFFE0
9FFFFC0001FFFFF50008FFFFC0
2CFFC400007DFE900002BEFD40
ENDCHAR
STARTCHAR n
ENCODING 110
SWIDTH 606 0
DWIDTH 19 0
BBX 18 17 1 0
BITMAP
1ACDA304ACC9400000
9FFFFB8FFFFFFA1000
BFFFFFFFFFFFFFC100
BFFFFFFFFFFFFFFA00
BFFFFFFFFFFFFFFF30
BFFFFFFECDFFFFFF90
BFFFFFB1006FFFFFD0
BFFFFF10000BFFFFF0
BFFFFD000008FFFFF1
BFFFFD000008FFFFF2
BFFFFD000008FFFFF2
BFFFFD000008FFFFF2
BFFFFD000008FFFFF2
BFFFFD000008FFFFF2
BFFFFD000007FFFFF2
9FFFFB000006FFFFE0
2BEEC30000019EED60
ENDCHAR
STARTCHAR o
ENCODING 111
SWIDTH 600 0
DWIDTH 19 0
BBX 19 19 0 -1
BITMAP
00000000233100000000
000003AEFFFFB5000000
00008FFFFFFFFFB10000
000BFFFFFFFFFFFD1000
009FFFFFFFFFFFFFC000
03FFFFFFFFFFFFFFF600
0AFFFFFFA78EFFFFFD00
0EFFFFF40002EFFFFF20
2FFFFFA000007FFFFF50
3FFFFF8000005FFFFF60
2FFFFF9000006FFFFF50
0EFFFFE30002DFFFFF30
0AFFFFFF968EFFFFFD00
03FFFFFFFFFFFFFFF700
008FFFFFFFFFFFFFC000
000BFFFFFFFFFFFE2000
00008FFFFFFFFFC20000
000003AFFFFFB5000000
00000000343100000000
ENDCHAR
STARTCHAR p
ENCODING 112
SWIDTH 582 0
DWIDTH 19 0
BBX 17 25 1 -8
BITMAP
1ADCA117BCB6100000
8FFFFBDFFFFFD40000
BFFFFFFFFFFFFF5000
BFFFFFFFFFFFFFF300
BFFFFFFFFFFFFFFC00
BFFFFFFDADFFFFFF40
BFFFFFA0008FFFFF90
BFFFFF10000DFFFFB0
BFFFFE00000AFFFFC0
BFFFFF30001EFFFFB0
BFFFFFC202BFFFFF80
BFFFFFFFEFFFFFFF30
BFFFFFFFFFFFFFFA00
BFFFFFFFFFFFFFD100
BFFFFFFFFFFFFD2000
BFFFFCBFFFFFA20000
BFFFFB037872000000
BFFFFB000000000000
BFFFFB000000000000
BFFFFB000000000000
BFFFFB000000000000
BFFFFB000000000000
AFFFFA000000000000
5FFFF5000000000000
024420000000000000
ENDCHAR
STARTCHAR q
ENCODING 113
SWIDTH 582 0
DWIDTH 19 0
BBX 18 25 0 -8
BITMAP
0000038BCA404BDC70
00008FFFFFF9EFFFF3
000AFFFFFFFFFFFFF5
008FFFFFFFFFFFFFF5
03FFFFFFFFFFFFFFF5
0AFFFFFFBBFFFFFFF5
0EFFFFE3003EFFFFF5
2FFFFF700007FFFFF5
3FFFFF500005FFFFF5
2FFFFF900008FFFFF5
0DFFFFF6006FFFFFF5
09FFFFFFFFFFFFFFF5
02EFFFFFFFFFFFFFF5
006FFFFFFFFFFFFFF5
0007FFFFFFFFFFFFF5
00004DFFFFF8FFFFF5
000000478622FFFFF5
000000000002FFFFF5
000000000002FFFFF5
000000000002FFFFF5
000000000002FFFFF5
000000000002FFFFF5
000000000001FFFFF4
000000000000AFFFD1
000000000000034300
ENDCHAR
STARTCHAR r
ENCODING 114
SWIDTH 457 0
DWIDTH 15 0
BBX 14 17 1 0
BITMAP
19CDA306DFEB40
8FFFFCBFFFFFE0
BFFFFFFFFFFFF2
BFFFFFFFFFFFE0
BFFFFFFFFFFF90
BFFFFFF979DB10
BFFFFF40000000
BFFFFE00000000
BFFFFE00000000
BFFFFE00000000
BFFFFE00000000
BFFFFE00000000
BFFFFE00000000
BFFFFE00000000
BFFFFE00000000
9FFFFC00000000
2BEFC400000000
ENDCHAR
STARTCHAR s
ENCODING 115
SWIDTH 489 0
DWIDTH 16 0
BBX 15 19 0 -1
BITMAP
0000001231000000
00029EFFFFEA4000
005FFFFFFFFFFB00
02EFFFFFFFFFFF10
07FFFFFFFFFFFB00
09FFFFB446BFE200
09FFFFB100011000
06FFFFFFC9610000
02FFFFFFFFFFA100
008FFFFFFFFFFD10
0008FFFFFFFFFF60
000028DFFFFFFFB0
009B60015BFFFFC0
07FFFD744BFFFFC0
1EFFFFFFFFFFFF90
2FFFFFFFFFFFFF30
08FFFFFFFFFFF700
0028DFFFFFEA4000
0000013442000000
ENDCHAR
STARTCHAR t
ENCODING 116
SWIDTH 449 0
DWIDTH 14 0
BBX 14 23 0 0
BITMAP
00005997100000
0005FFFFB00000
0008FFFFE00000
0009FFFFF00000
0009FFFFF00000
0009FFFFF00000
09BDFFFFFBCCA2
5FFFFFFFFFFFFA
7FFFFFFFFFFFFD
7FFFFFFFFFFFFD
5FFFFFFFFFFFFA
09BDFFFFFBBCA2
0009FFFFF00000
0009FFFFF00000
0009FFFFF00000
0009FFFFF00000
0009FFFFF00000
0008FFFFF84300
0006FFFFFFFF90
0002FFFFFFFFF0
0000AFFFFFFFF0
00001BFFFFFFD0
0000005ADEFD50
ENDCHAR
STARTCHAR u
ENCODING 117
SWIDTH 606 0
DWIDTH 19 0
BBX 18 17 1 0
BITMAP
2ADDA20000008CDC50
9FFFFB000005FFFFE0
BFFFFD000007FFFFF1
BFFFFE000007FFFFF2
BFFFFE000007FFFFF2
BFFFFE000007FFFFF2
BFFFFE000007FFFFF2
BFFFFE000007FFFFF2
BFFFFE000008FFFFF2
AFFFFF10000AFFFFF2
8FFFFFA0005FFFFFF2
4FFFFFFDBCFFFFFFF2
0DFFFFFFFFFFFFFFF2
05FFFFFFFFFFFFFFF2
008FFFFFFFFFFFFFF2
0007FFFFFFD7FFFFE0
000028CED811AEED60
ENDCHAR
STARTCHAR v
ENCODING 118
SWIDTH 638 0
DWIDTH 20 0
BBX 20 19 0 -1
BITMAP
00011000000000002000
02AFF5000000001CFD50
2EFFFE100000008FFFF6
7FFFFF80000002FFFFFD
4FFFFFE1000009FFFFFB
0CFFFFF800002FFFFFF3
03FFFFFE2000AFFFFFA0
00AFFFFF9003FFFFFE20
002EFFFFF20BFFFFF700
0007FFFFF93FFFFFD000
0000DFFFFFCFFFFF5000
00005FFFFFFFFFFB0000
00000BFFFFFFFFF20000
000002FFFFFFFF800000
0000008FFFFFFE100000
0000001EFFFFF6000000
00000006FFFFC0000000
000000008FFC20000000
00000000012000000000
ENDCHAR
STARTCHAR w
ENCODING 119
SWIDTH 793 0
DWIDTH 25 0
BBX 25 18 0 -1
BITMAP
03BFE4000008DB300000BFD600
3FFFFD0000AFFFE20008FFFF80
7FFFFF4002FFFFF8000EFFFFD0
3FFFFFA008FFFFFD004FFFFFA0
0DFFFFF10DFFFFFF40AFFFFF40
07FFFFF64FFFFFFF91FFFFFD00
01EFFFFC9FFFFFFFE7FFFFF700
009FFFFFEFFFFFFFFFFFFFE100
003FFFFFFFFFFFFFFFFFFF9000
000CFFFFFFFFFFFFFFFFFF3000
0006FFFFFFFF8FFFFFFFFC0000
0001EFFFFFFF1AFFFFFFF60000
00009FFFFFFB05FFFFFFE10000
00002FFFFFF500EFFFFF900000
00000BFFFFE1008FFFFF200000
000005FFFF80002EFFFA000000
0000007EFA000004EFB1000000
00000000100000000100000000
ENDCHAR
STARTCHAR x
ENCODING 120
SWIDTH 567 0
DWIDTH 18 0
BBX 18 19 0 -1
BITMAP
000100000000001000
01AFC20000001AFC10
0BFFFD200001CFFFD1
6FFFFFD2001CFFFFF8
6FFFFFFD21CFFFFFF8
0BFFFFFFDBFFFFFFD1
01CFFFFFFFFFFFFD20
001CFFFFFFFFFFD200
0001CFFFFFFFFD2000
00001EFFFFFFF30000
0000BFFFFFFFFC1000
000BFFFFFFFFFFC100
00BFFFFFFFFFFFFC10
0AFFFFFFECFFFFFFC1
5FFFFFFE21CFFFFFF7
6FFFFFE2001DFFFFF8
1CFFFE200001DFFFD1
01BFD20000001BFC20
000200000000002000
ENDCHAR
STARTCHAR y
ENCODING 121
SWIDTH 604 0
DWIDTH 19 0
BBX 19 26 0 -8
BITMAP
00022000000000010000
02BFF500000002DFD600
2EFFFE10000009FFFF80
7FFFFF9000001FFFFFC0
2FFFFFF300008FFFFF80
09FFFFFB0001EFFFFF20
01EFFFFF5006FFFFFA00
006FFFFFE10DFFFFF300
000CFFFFF95FFFFFB000
0004FFFFFFDFFFFF5000
0000AFFFFFFFFFFD0000
00001EFFFFFFFFF60000
000007FFFFFFFFE10000
000000DFFFFFFF800000
0000004FFFFFFF200000
0000000BFFFFFA000000
0000000DFFFFF3000000
0000005FFFFFB0000000
000000CFFFFF40000000
000003FFFFFD00000000
00000AFFFFF600000000
00001FFFFFE000000000
00006FFFFF8000000000
00007FFFFF1000000000
000009FFF90000000000
00000027700000000000
ENDCHAR
STARTCHAR z
ENCODING 122
SWIDTH 586 0
DWIDTH 19 0
BBX 18 17 0 0
BITMAP
008CDDDDDDDDDDDB30
04FFFFFFFFFFFFFFE2
07FFFFFFFFFFFFFFF7
07FFFFFFFFFFFFFFF6
04FFFFFFFFFFFFFFD1
006ABBBBCFFFFFFE30
00000002DFFFFFD200
0000003EFFFFFC2000
000005EFFFFFC10000
00006FFFFFFB100000
0008FFFFFFA0000000
009FFFFFFE99999971
08FFFFFFFFFFFFFFFA
1FFFFFFFFFFFFFFFFE
2FFFFFFFFFFFFFFFFE
0CFFFFFFFFFFFFFFFC
02BFFFFFFFFFFFFFD4
ENDCHAR
STARTCHAR braceleft
ENCODING 123
SWIDTH 381 0
DWIDTH 12 0
BBX 12 33 0 -8
BITMAP
00000006AB91
000002CFFFF9
00000CFFFFFB
00006FFFFFF9
0000AFFFFDB2
0000CFFFD000
0000DFFFC000
0000DFFFC000
0000DFFFC000
0000DFFFC000
0000DFFFC000
0000DFFFB000
0000EFFFA000
0017FFFF7000
2EFFFFFF2000
7FFFFFF90000
7FFFFFF30000
5FFFFFFD0000
069DFFFF5000
0001FFFF8000
0000DFFFA000
0000CFFFB000
0000CFFFB000
0000CFFFB000
0000CFFFB000
0000DFFFB000
0000DFFFB000
0000BFFFE630
00008FFFFFF7
00002FFFFFFA
000006FFFFFA
0000005DFFF5
000000002310
ENDCHAR
STARTCHAR bar
ENCODING 124
SWIDTH 217 0
DWIDTH 7 0
BBX 5 33 1 -8
BITMAP
19B910
8FFF70
AFFF90
BFFFA0
BFFFA0
BFFFA0
BFFFA0
BFFFA0
BFFFA0
BFFFA0
BFFFA0
BFFFA0
BFFFA0
BFFFA0
BFFFA0
BFFFA0
BFFFA0
BFFFA0
BFFFA0
BFFFA0
BFFFA0
BFFFA0
BFFFA0
BFFFA0
BFFFA0
BFFFA0
BFFFA0
BFFFA0
BFFFA0
BFFFA0
AFFF90
7FFF50
046400
ENDCHAR
STARTCHAR braceright
ENCODING 125
SWIDTH 381 0
DWIDTH 12 0
BBX 12 33 0 -8
BITMAP
18BA71000000
6FFFFE300000
8FFFFFE10000
6FFFFFF80000
1ADFFFFD0000
000AFFFF0000
0009FFFF0000
0009FFFF0000
0009FFFF0000
0009FFFF0000
0009FFFF0000
0009FFFF0000
0008FFFF1000
0004FFFF9200
0000EFFFFFE4
00006FFFFFFA
00002EFFFFFA
0000BFFFFFF8
0002FFFFE981
0006FFFF3000
0008FFFF0000
0009FFFF0000
0009FFFF0000
0009FFFF0000
0009FFFF0000
0009FFFF0000
0009FFFF0000
025DFFFE0000
4FFFFFFA0000
7FFFFFF40000
7FFFFF900000
3EFFE6000000
013200000000
ENDCHAR
STARTCHAR asciitilde
ENCODING 126
SWIDTH 651 0
DWIDTH 21 0
BBX 18 8 1 5
BITMAP
000000100000001000
0004BFFFB4001CFA10
008FFFFFFF83BFFFD1
07FFFFFFFFFFFFFFF4
2FFFFFFFFFFFFFFFD1
6FFFFFEFFFFFFFFF40
1CFFF706EFFFFFE400
008D800029CDC82000
ENDCHAR
STARTCHAR exclamdown
ENCODING 161
SWIDTH 268 0
DWIDTH 9 0
BBX 7 25 1 -8
BITMAP
01343000
3EFFFB00
9FFFFF30
BFFFFF40
AFFFFF40
6FFFFE10
06AA8200
00000000
00000000
19CCB500
7FFFFF10
8FFFFF20
8FFFFF20
8FFFFF20
8FFFFF20
8FFFFF20
8FFFFF20
8FFFFF20
8FFFFF20
8FFFFF20
8FFFFF20
8FFFFF20
8FFFFF20
3FFFFB00
01443000
ENDCHAR
STARTCHAR cent
ENCODING 162
SWIDTH 434 0
DWIDTH 14 0
BBX 13 25 0 -3
BITMAP
00000014400000
000000CFF70000
000000FFF90000
000001FFFA0000
000001FFFA0000
000001FFFA0000
00005CFFFFA300
000AFFFFFFFF70
00AFFFFFFFFFF0
06FFFFFFFFFFC0
0CFFFFE89EFE30
1FFFFE10016300
3FFFF900000000
2FFFFA00000000
1FFFFF5005A500
0BFFFFFDDFFF50
03FFFFFFFFFFE0
006FFFFFFFFFE0
0005EFFFFFFD30
000017FFFD6100
000001FFFA0000
000001FFFA0000
000000FFFA0000
000000EFF80000
00000039810000
ENDCHAR
STARTCHAR sterling
ENCODING 163
SWIDTH 675 0
DWIDTH 22 0
BBX 22 24 0 0
BITMAP
0000000001578752000000
00000004BFFFFFFFC60000
0000009FFFFFFFFFFFC200
00000AFFFFFFFFFFFFFD10
00006FFFFFFFFFFFFFFF60
0000CFFFFFFCBCFFFFFF60
0003FFFFFB200017FFFC10
0006FFFFE2000000497100
0008FFFFA0000000000000
0009FFFF80000000000000
079DFFFFD9998200000000
6FFFFFFFFFFFFB00000000
8FFFFFFFFFFFFD00000000
6FFFFFFFFFFFFC00000000
18AADFFFFEAA9300000000
00007FFFFC000000000000
00006FFFFD000000000000
00008FFFFC000000000000
0001DFFFFB333333333200
0009FFFFFFFFFFFFFFFFA0
003FFFFFFFFFFFFFFFFFF1
006FFFFFFFFFFFFFFFFFF2
003FFFFFFFFFFFFFFFFFF0
0006DFFFFFFFFFFFFFFD70
ENDCHAR
STARTCHAR currency
ENCODING 164
SWIDTH 677 0
DWIDTH 22 0
BBX 21 25 0 0
BITMAP
0069300000000000058200
0AFFE100000000004FFF50
1FFFFA0000000002DFFFC0
0CFFFFFCA9999ACFFFFF80
04FFFFFFFFFFFFFFFFFD10
007FFFFFFFFFFFFFFFE300
000CFFFFFFFFFFFFFF7000
005FFFFFFFFFFFFFFFE100
00CFFFFE731149FFFFF700
02FFFFE20000006FFFFC00
05FFFF900000000DFFFF00
07FFFF500000000AFFFF20
08FFFF4000000009FFFF30
07FFFF500000000AFFFF20
06FFFF800000000CFFFF10
03FFFFE10000004FFFFD00
00DFFFFC300016EFFFF800
007FFFFFFECDFFFFFFF200
000CFFFFFFFFFFFFFF8000
005FFFFFFFFFFFFFFFD100
02EFFFFFFFFFFFFFFFFB00
0BFFFFFECBBBCDEFFFFF60
2FFFFB2000000004EFFFC0
1DFFE200000000006FFF70
018C50000000000009B500
ENDCHAR
STARTCHAR yen
ENCODING 165
SWIDTH 677 0
DWIDTH 22 0
BBX 22 24 0 0
BITMAP
0017600000000000276000
05EFF90000000001DFFD30
4FFFFF4000000009FFFFE1
7FFFFFD10000003FFFFFF2
1EFFFFF8000000CFFFFFB0
06FFFFFF300007FFFFFF20
00BFFFFFC0002EFFFFF700
002EFFFFF600BFFFFFC000
0006FFFFFE15FFFFFE2000
0000BFFFFFAEFFFFF70000
00002EFFFFFFFFFFB00000
000006FFFFFFFFFE200000
000068EFFFFFFFFC850000
0007FFFFFFFFFFFFFF2000
0008FFFFFFFFFFFFFF3000
0002CEEEFFFFFFEEDA0000
00000000FFFFFA00000000
00000000FFFFFA00000000
0002DFFFFFFFFFFFEB0000
0008FFFFFFFFFFFFFF3000
0006FFFFFFFFFFFFFF2000
00005677FFFFFC77630000
00000000CFFFF700000000
000000004CEEB100000000
ENDCHAR
STARTCHAR brokenbar
ENCODING 166
SWIDTH 215 0
DWIDTH 7 0
BBX 5 33 1 -8
BITMAP
19B910
8FFF60
AFFF80
BFFF90
BFFF90
BFFF90
BFFF90
BFFF90
BFFF90
BFFF90
BFFF90
BFFF90
BFFF90
9FFF70
2AC910
000000
000000
046400
7FFF50
BFFF80
BFFF90
BFFF90
BFFF90
BFFF90
BFFF90
BFFF90
BFFF90
BFFF90
BFFF90
BFFF90
AFFF80
4FFE30
012000
ENDCHAR
STARTCHAR section
ENCODING 167
SWIDTH 560 0
DWIDTH 18 0
BBX 18 33 0 -8
BITMAP
000001578863000000
00008EFFFFFFE81000
001BFFFFFFFFFFC100
009FFFFFFFFFFFFA00
03FFFFFFFFFFFFFA00
08FFFFFC79DFFFF200
0BFFFFC00019FE5000
0BFFFFA00000110000
0AFFFFF50000000000
06FFFFFFDA63000000
01EFFFFFFFFFD82000
006FFFFFFFFFFFE500
00DFFFFFFFFFFFFF30
05FFFFFFFFFFFFFF90
0AFFFFF748DFFFFFE0
0BFFFFB00009FFFFF1
0BFFFFB00005FFFFF1
09FFFFFA300AFFFFF0
04FFFFFFFEDFFFFFB0
00CFFFFFFFFFFFFF50
002CFFFFFFFFFFFD00
00007EFFFFFFFFFF50
00000059DFFFFFFFC0
00000000028FFFFFF0
005B81000007FFFFF1
06FFFC100006FFFFF1
1FFFFFC3002DFFFFE0
2FFFFFFFDDFFFFFF90
09FFFFFFFFFFFFFF20
00BFFFFFFFFFFFF600
0009FFFFFFFFFE5000
00003AEFFFFD710000
000000023310000000
ENDCHAR
STARTCHAR dieresis
ENCODING 168
SWIDTH 489 0
DWIDTH 16 0
BBX 15 6 1 19
BITMAP
18AB9200039BA700
7FFFFC000DFFFF60
AFFFFF001FFFFF90
BFFFFF001FFFFF90
9FFFFD000EFFFF70
2BEEC40005DEEB10
ENDCHAR
STARTCHAR copyright
ENCODING 169
SWIDTH 711 0
DWIDTH 23 0
BBX 22 21 0 3
BITMAP
00000026ACDDDC96200000
00003BFFFFFFFFFFFA1000
0006FFFFFEDCDEFFFFD300
004FFFC620000027DFFD10
00DFF800059A95001BFF90
06FFB003DFFFFFD301DFF1
0AFF303FFFFFFFFB007FF6
0EFE00DFFFDADFF7003FFA
1FFB05FFF8000560000FFC
2FFA09FFD0000000000DFD
3FF90AFFB0000000000DFE
2FFA09FFD0000000000DFD
1FFB05FFF7000460000EFC
0EFE01DFFFC9BFF6002FFA
0AFF304FFFFFFFFB007FF6
05FFA004DFFFFFE501DFF1
00DFF70006ABA7101AFFA0
004FFFB510000026DFFE10
0006FFFFFEDCDEFFFFE300
00004CFFFFFFFFFFFA2000
00000037BCDEDCA7200000
ENDCHAR
STARTCHAR ordfeminine
ENCODING 170
SWIDTH 445 0
DWIDTH 14 0
BBX 13 13 0 10
BITMAP
00006BC816CB60
002DFFFFDFFFD0
01DFFFFFFFFFE0
08FFFFFFFFFFE0
0EFFFB45EFFFE0
2FFFE1006FFFE0
3FFFD0004FFFE0
1FFFF601BFFFE0
0BFFFFDEFFFFE0
03FFFFFFFFFFE0
006FFFFFFFFFE0
0004DFFF7BFFB0
00000231003200
ENDCHAR
STARTCHAR guillemotleft
ENCODING 171
SWIDTH 668 0
DWIDTH 21 0
BBX 21 17 0 0
BITMAP
0000000395000000079200
0000005FFF700000BFFE20
000005FFFFF2000BFFFFB0
00005FFFFFF300BFFFFFB0
0005FFFFFF600BFFFFFD20
005FFFFFF600BFFFFFD200
05FFFFFF600BFFFFFD2000
2FFFFFF6009FFFFFD20000
7FFFFF8000DFFFFF200000
4FFFFFE300AFFFFFB00000
08FFFFFE301DFFFFFB0000
008FFFFFE302DFFFFFA000
0008FFFFFE302DFFFFFA00
00008FFFFFE102DFFFFF90
000008FFFFF3002DFFFFC0
0000008FFFA00002DFFF40
00000006D80000001AC400
ENDCHAR
STARTCHAR logicalnot
ENCODING 172
SWIDTH 526 0
DWIDTH 17 0
BBX 17 11 0 4
BITMAP
001111111111111000
1DFFFFFFFFFFFFFC10
6FFFFFFFFFFFFFFF50
8FFFFFFFFFFFFFFF50
7FFFFFFFFFFFFFFF50
3FFFFFFFFFFFFFFF50
036666666666FFFF50
000000000000FFFF50
000000000000EFFF50
000000000000DFFF40
0000000000006EFB10
ENDCHAR
STARTCHAR registered
ENCODING 174
SWIDTH 711 0
DWIDTH 23 0
BBX 22 21 0 3
BITMAP
00000026ACDDDC96200000
00003BFFFFFFFFFFFA1000
0006FFFFFEDCDEFFFFD300
004FFFC620000027DFFD10
00DFF805BCCCB7101BFF90
06FFB00CFFFFFFD301DFF1
0AFF300CFFFFFFFD007FF6
0EFE000CFFB7BFFF502FFA
1FFB000CFF700DFF600EFC
2FFA000CFF725FFF500DFD
3FF9000CFFFFFFFF100DFE
2FFA000CFFFFFFF7000DFD
1FFB000CFFFFFFF9000EFC
0EFE000CFF839FFE103FFA
0AFF300CFF702FFF607FF6
05FFA00BFF500AFF61EFF1
00DFF701540001741CFFA0
004FFFB510000038EFFE10
0006FFFFFEDCDEFFFFE300
00004CFFFFFFFFFFFA2000
00000037BCDEDCA7200000
ENDCHAR
STARTCHAR degree
ENCODING 176
SWIDTH 407 0
DWIDTH 13 0
BBX 13 12 0 13
BITMAP
00003787300000
001AFFFFFA1000
01CFFFFFFFC100
08FFFFFFFFF800
0EFFF737FFFE00
2FFFA0009FFF20
3FFF80008FFF30
1FFFD101DFFF10
0BFFFECEFFFC00
03FFFFFFFFF300
004EFFFFFE5000
00028DED920000
ENDCHAR
STARTCHAR plusminus
ENCODING 177
SWIDTH 505 0
DWIDTH 16 0
BBX 16 18 0 0
BITMAP
0000002552000000
000002EFFF300000
000005FFFF700000
000005FFFF700000
06BCCDFFFFECCC80
1FFFFFFFFFFFFFF4
3FFFFFFFFFFFFFF5
2FFFFFFFFFFFFFF4
09EFFFFFFFFFFEB1
000005FFFF700000
000004FFFF700000
000001EFFF300000
0000001552000000
0046666666666400
08FFFFFFFFFFFFA0
0BFFFFFFFFFFFFD0
0AFFFFFFFFFFFFD0
04DEFFFFFFFFFE60
ENDCHAR
STARTCHAR twosuperior
ENCODING 178
SWIDTH 455 0
DWIDTH 15 0
BBX 15 18 0 6
BITMAP
00017CFFD9200000
002DFFFFFFE40000
01DFFFFFFFFF3000
08FFFFFFFFFFC000
0EFFFFCAFFFFF300
2FFFFC006FFFF600
3FFFF8005FFFF700
1EFFF400CFFFF500
0499501BFFFFE100
000006EFFFFF7000
0004CFFFFFFA0000
008FFFFFFF900000
07FFFFFFFD998300
0EFFFFFFFFFFFE00
2FFFFFFFFFFFFF10
0FFFFFFFFFFFFF00
05DFFFFFFFFFFA00
0001111111111000
ENDCHAR
STARTCHAR threesuperior
ENCODING 179
SWIDTH 457 0
DWIDTH 15 0
BBX 14 18 0 6
BITMAP
00006BEFEB4000
001BFFFFFFF900
00AFFFFFFFFF80
05FFFFFFFFFFF2
07FFFF85CFFFF6
02EFFA004FFFF6
001781019FFFF4
000004EFFFFFB0
000008FFFFFF60
000006FFFFFFF3
05BC80458FFFFA
2FFFF6000DFFFC
2FFFFD204FFFFB
0CFFFFFEFFFFF7
05FFFFFFFFFFE1
008FFFFFFFFE30
0005DFFFFFA200
00000245410000
ENDCHAR
STARTCHAR acute
ENCODING 180
SWIDTH 605 0
DWIDTH 19 0
BBX 11 7 4 18
BITMAP
00000048B200
00159EFFFB00
08EFFFFFFF10
2FFFFFFFFF30
1FFFFFFFF900
0AFFFEA51000
02B940000000
ENDCHAR
STARTCHAR mu
ENCODING 181
SWIDTH 601 0
DWIDTH 19 0
BBX 17 24 1 -7
BITMAP
1ACDA2000001ADDB30
8FFFFA000007FFFFC0
BFFFFD000009FFFFE0
BFFFFD000009FFFFE0
BFFFFD000009FFFFE0
BFFFFD000009FFFFE0
BFFFFD000009FFFFE0
BFFFFD000009FFFFE0
BFFFFD00000AFFFFE0
BFFFFF10000CFFFFE0
BFFFFFA1008FFFFFE0
BFFFFFFECEFFFFFFE0
BFFFFFFFFFFFFFFFE0
BFFFFFFFFFFFFFFFE0
BFFFFFFFFFFFFFFFE0
BFFFFFFFFFD7FFFFB0
BFFFFD5AB8118BB920
BFFFFD000000000000
BFFFFD000000000000
BFFFFD000000000000
BFFFFD000000000000
BFFFFD000000000000
9FFFFB000000000000
3DFFD4000000000000
ENDCHAR
STARTCHAR paragraph
ENCODING 182
SWIDTH 614 0
DWIDTH 20 0
BBX 18 28 0 -8
BITMAP
000378999999999971
01BFFFFFFFFFFFFFF9
08FFFFFFFFFFFFFFFB
0DFFFFFFFFF99DFFFC
0FFFFFFFFFF109FFFC
1FFFFFFFFFF109FFFC
0FFFFFFFFFF109FFFC
0EFFFFFFFFF109FFFC
0BFFFFFFFFF109FFFC
05FFFFFFFFF109FFFC
008FFFFFFFF109FFFC
000157AFFFF109FFFC
0000005FFFF109FFFC
0000005FFFF109FFFC
0000005FFFF109FFFC
0000005FFFF109FFFC
0000005FFFF109FFFC
0000005FFFF109FFFC
0000005FFFF109FFFC
0000005FFFF109FFFC
0000005FFFF109FFFC
0000005FFFF109FFFC
0000005FFFF109FFFC
0000005FFFF109FFFC
0000005FFFF109FFFC
0000004FFFF008FFFB
0000001FFFB005FFF7
000000026510004650
ENDCHAR
STARTCHAR periodcentered
ENCODING 183
SWIDTH 237 0
DWIDTH 8 0
BBX 7 7 0 6
BITMAP
04BDC910
1EFFFF90
3FFFFFB0
3FFFFFC0
1FFFFFA0
08EFFD30
00021000
ENDCHAR
STARTCHAR cedilla
ENCODING 184
SWIDTH 559 0
DWIDTH 18 0
BBX 7 8 5 -7
BITMAP
07CEA300
4FFFFF30
1EFEFFB0
0230FFD0
1CECFFC0
5FFFFF50
09FFE500
00110000
ENDCHAR
STARTCHAR onesuperior
ENCODING 185
SWIDTH 321 0
DWIDTH 10 0
BBX 9 18 0 6
BITMAP
000007CB30
0000AFFFD0
001BFFFFF0
01CFFFFFF0
1DFFFFFFF0
7FFFFFFFF0
4FFFFFFFF0
08FFEFFFF0
0021BFFFF0
0000BFFFF0
0000BFFFF0
0000BFFFF0
0000BFFFF0
0000BFFFF0
0000BFFFF0
0000AFFFE0
00005EFF80
0000001000
ENDCHAR
STARTCHAR ordmasculine
ENCODING 186
SWIDTH 439 0
DWIDTH 14 0
BBX 14 13 0 10
BITMAP
000027AA720000
0008FFFFFF9000
00AFFFFFFFFB00
06FFFFFFFFFF70
0DFFFD66CFFFE0
2FFFF2001EFFF2
3FFFD0000CFFF3
2FFFF2001EFFF2
0DFFFD65CFFFE0
06FFFFFFFFFF80
00AFFFFFFFFC10
0008FFFFFFA100
000027AA830000
ENDCHAR
STARTCHAR guillemotright
ENCODING 187
SWIDTH 669 0
DWIDTH 21 0
BBX 21 17 0 0
BITMAP
0079200000029600000000
0AFFE300002EFFA0000000
5FFFFE3000CFFFFA000000
5FFFFFE300CFFFFFA00000
09FFFFFE302DFFFFFA0000
009FFFFFE302DFFFFFA000
0008FFFFFE302DFFFFFA00
00008FFFFFD102DFFFFF80
00000BFFFFF4002FFFFFD0
00005FFFFFE100BFFFFFA0
0005FFFFFF500BFFFFFD10
005FFFFFF600BFFFFFD100
05FFFFFF600BFFFFFD1000
4FFFFFF600AFFFFFD10000
6FFFFF5000CFFFFD100000
1CFFF500004FFFD1000000
01AC40000004CA10000000
ENDCHAR
STARTCHAR onequarter
ENCODING 188
SWIDTH 786 0
DWIDTH 25 0
BBX 23 26 1 -1
BITMAP
0000385000000008F8000000
0006FFF30000002FFE000000
007FFFF50000009FF8000000
09FFFFF5000002FFE1000000
4FFFFFF500000AFF70000000
3FFFFFF500003FFD10000000
05BBFFF50000BFF600000000
0005FFF50004FFD000000000
0005FFF5000CFF5000000000
0005FFF5005FFC0000000000
0005FFF500DFF40000000000
0005FFF506FFB03630056300
0005FFF40DFF31EFF55FFF20
0001AC917FFA05FFF67FFF30
00000001EFF309FFF37FFF40
00000008FFA00CFFE07FFF40
0000001EFF201FFFB07FFF40
0000008FF9005FFFA49FFF40
000002FFE1008FFFFFFFFF40
000009FF8000AFFFFFFFFF40
00002FFE10007FFFFFFFFF40
0000AFF700000344449FFF40
0003FFD100000000007FFF40
000BFF6000000000007FFF30
002FFD0000000000002CDB00
0008D4000000000000000000
ENDCHAR
STARTCHAR onehalf
ENCODING 189
SWIDTH 804 0
DWIDTH 26 0
BBX 23 26 1 -1
BITMAP
0000385000000008F8000000
0006FFF30000002FFE000000
007FFFF50000009FF8000000
09FFFFF5000002FFE1000000
4FFFFFF500000AFF70000000
3FFFFFF500003FFD10000000
05BBFFF50000BFF600000000
0005FFF50004FFD000000000
0005FFF5000CFF5000000000
0005FFF5005FFC0000000000
0005FFF500DFF40000000000
0005FFF506FFB00378610000
0005FFF40DFF31AFFFFE6000
0001AC917FFA0BFFFFFFF500
00000001EFF34FFFFFFFFD00
00000008FFA09FFF83BFFF30
0000001EFF20AFFF107FFF40
0000008FF9008FFC01DFFF20
000002FFE10003403DFFFC00
000009FF8000002AFFFFE300
00002FFE100005EFFFFD3000
0000AFF700003FFFFFFCBA30
0003FFD100009FFFFFFFFFB0
000BFF6000009FFFFFFFFFC0
002FFD0000002CEFFFFFFE70
0008D4000000000000000000
ENDCHAR
STARTCHAR threequarters
ENCODING 190
SWIDTH 842 0
DWIDTH 27 0
BBX 24 26 1 -1
BITMAP
00016885000000000BE50000
005EFFFFD20000005FFC0000
04FFFFFFFD100000CFF50000
0CFFFEFFFF600006FFC00000
09FFA03FFF90000DFF400000
0079105FFF70006FFB000000
00007FFFFD1001EFF3000000
0000AFFFFE2007FFA0000000
057438AFFFA01EFF20000000
5FFF300CFFD08FF900000000
4FFFC36FFFC2EFF200000000
0EFFFFFFFF79FF8056201562
04EFFFFFFB2FFE13FFE29FFE
003BFFFD70AFF708FFF3AFFF
0000121003FFE10CFFF1AFFF
000000000BFF601FFFC0AFFF
000000004FFD004FFF80AFFF
00000000BFF6008FFF74CFFF
00000004FFC000BFFFFFFFFF
0000000CFF5000DFFFFFFFFF
0000005FFC0000AFFFFFFFFF
000000DFF40000034444BFFF
000006FFB00000000000AFFF
00001DFF300000000000AFFF
00005FFA0000000000004CD8
000019D20000000000000000
ENDCHAR
STARTCHAR questiondown
ENCODING 191
SWIDTH 511 0
DWIDTH 16 0
BBX 16 25 0 -8
BITMAP
000001AEEC600000
000007FFFFF20000
00000AFFFFF40000
00000AFFFFF40000
000007FFFFF20000
000001BFFE700000
0000000000000000
0000000000000000
0000004786100000
000003FFFF900000
000019FFFFC00000
0005EFFFFFB00000
007FFFFFFF700000
04FFFFFFFA000000
0BFFFFFA30000000
1FFFFF5000003100
2FFFFD00000CFE91
2FFFFE00004FFFFB
0EFFFF9213DFFFFC
0AFFFFFFFFFFFFF7
03FFFFFFFFFFFFE1
007FFFFFFFFFFF30
0006FFFFFFFFE400
000029DFFFC71000
0000000010000000
ENDCHAR
STARTCHAR Agrave
ENCODING 192
SWIDTH 765 0
DWIDTH 24 0
BBX 24 32 0 -1
BITMAP
00000003A830000000000000
0000000CFFFD940000000000
0000002FFFFFFFE700000000
0000004FFFFFFFFF10000000
0000001AFFFFFFFE00000000
0000000016BFFFF900000000
0000000000015AB100000000
000000000005620000000000
0000000001CFFF5000000000
0000000008FFFFE100000000
000000001EFFFFF700000000
000000007FFFFFFD00000000
00000001EFFFFFFF60000000
00000006FFFFFFFFD0000000
0000000DFFFFFFFFF6000000
0000006FFFFFFFFFFD000000
000000DFFFFFFFFFFF500000
000005FFFFFD8FFFFFC00000
00000DFFFFF71EFFFFF50000
00005FFFFFE107FFFFFC0000
0000CFFFFF7001EFFFFF4000
0004FFFFFFCBBBEFFFFFB000
000CFFFFFFFFFFFFFFFFF400
004FFFFFFFFFFFFFFFFFFB00
00BFFFFFFFFFFFFFFFFFFF30
03FFFFFFFFFFFFFFFFFFFFA0
0BFFFFF9000000002FFFFFF3
2FFFFFF20000000009FFFFFA
7FFFFF900000000002FFFFFE
3FFFFF200000000000AFFFFB
04CFF80000000000002EFF91
000330000000000000014100
ENDCHAR
STARTCHAR Aacute
ENCODING 193
SWIDTH 765 0
DWIDTH 24 0
BBX 24 33 0 -1
BITMAP
000000000000000110000000
00000000000026BFE2000000
00000000027CFFFFF9000000
000000004FFFFFFFFD000000
000000006FFFFFFFFC000000
000000003FFFFFFD81000000
000000000CFFC72000000000
000000000152000000000000
000000000005620000000000
0000000001CFFF5000000000
0000000008FFFFE100000000
000000001EFFFFF700000000
000000007FFFFFFD00000000
00000001EFFFFFFF60000000
00000006FFFFFFFFD0000000
0000000DFFFFFFFFF6000000
0000006FFFFFFFFFFD000000
000000DFFFFFFFFFFF500000
000005FFFFFD8FFFFFC00000
00000DFFFFF71EFFFFF50000
00005FFFFFE107FFFFFC0000
0000CFFFFF7001EFFFFF4000
0004FFFFFFCBBBEFFFFFB000
000CFFFFFFFFFFFFFFFFF400
004FFFFFFFFFFFFFFFFFFB00
00BFFFFFFFFFFFFFFFFFFF30
03FFFFFFFFFFFFFFFFFFFFA0
0BFFFFF9000000002FFFFFF3
2FFFFFF20000000009FFFFFA
7FFFFF900000000002FFFFFE
3FFFFF200000000000AFFFFB
04CFF80000000000002EFF91
000330000000000000014100
ENDCHAR
STARTCHAR Acircumflex
ENCODING 194
SWIDTH 765 0
DWIDTH 24 0
BBX 24 33 0 -1
BITMAP
000000000000200000000000
0000000015AEFD8300000000
0000003AEFFFFFFFD8100000
000001FFFFFFFFFFFF800000
000001FFFFFFFFFFFF800000
0000009FFFFB8DFFFF200000
0000001AC820005BD6000000
000000000000000000000000
000000000005620000000000
0000000001CFFF5000000000
0000000008FFFFE100000000
000000001EFFFFF700000000
000000007FFFFFFD00000000
00000001EFFFFFFF60000000
00000006FFFFFFFFD0000000
0000000DFFFFFFFFF6000000
0000006FFFFFFFFFFD000000
000000DFFFFFFFFFFF500000
000005FFFFFD8FFFFFC00000
00000DFFFFF71EFFFFF50000
00005FFFFFE107FFFFFC0000
0000CFFFFF7001EFFFFF4000
0004FFFFFFCBBBEFFFFFB000
000CFFFFFFFFFFFFFFFFF400
004FFFFFFFFFFFFFFFFFFB00
00BFFFFFFFFFFFFFFFFFFF30
03FFFFFFFFFFFFFFFFFFFFA0
0BFFFFF9000000002FFFFFF3
2FFFFFF20000000009FFFFFA
7FFFFF900000000002FFFFFE
3FFFFF200000000000AFFFFB
04CFF80000000000002EFF91
000330000000000000014100
ENDCHAR
STARTCHAR Atilde
ENCODING 195
SWIDTH 765 0
DWIDTH 24 0
BBX 24 33 0 -1
BITMAP
000000000020000010000000
00000002AFFE700AF9000000
0000002EFFFFFCBFFF700000
000000CFFFFFFFFFFF700000
000001FFFFFFFFFFFD100000
000000AFF81AFFFFD2000000
000000068000499600000000
000000000000000000000000
000000000005620000000000
0000000001CFFF5000000000
0000000008FFFFE100000000
000000001EFFFFF700000000
000000007FFFFFFD00000000
00000001EFFFFFFF60000000
00000006FFFFFFFFD0000000
0000000DFFFFFFFFF6000000
0000006FFFFFFFFFFD000000
000000DFFFFFFFFFFF500000
000005FFFFFD8FFFFFC00000
00000DFFFFF71EFFFFF50000
00005FFFFFE107FFFFFC0000
0000CFFFFF7001EFFFFF4000
0004FFFFFFCBBBEFFFFFB000
000CFFFFFFFFFFFFFFFFF400
004FFFFFFFFFFFFFFFFFFB00
00BFFFFFFFFFFFFFFFFFFF30
03FFFFFFFFFFFFFFFFFFFFA0
0BFFFFF9000000002FFFFFF3
2FFFFFF20000000009FFFFFA
7FFFFF900000000002FFFFFE
3FFFFF200000000000AFFFFB
04CFF80000000000002EFF91
000330000000000000014100
ENDCHAR
STARTCHAR Adieresis
ENCODING 196
SWIDTH 765 0
DWIDTH 24 0
BBX 24 33 0 -1
BITMAP
000000022000000121000000
000004EFFE40009FFFC10000
00000BFFFFC002FFFFF60000
00000CFFFFD003FFFFF80000
00000CFFFFD003FFFFF70000
000008FFFF9000DFFFF30000
000000688600002788400000
000000000000000000000000
000000000005620000000000
0000000001CFFF5000000000
0000000008FFFFE100000000
000000001EFFFFF700000000
000000007FFFFFFD00000000
00000001EFFFFFFF60000000
00000006FFFFFFFFD0000000
0000000DFFFFFFFFF6000000
0000006FFFFFFFFFFD000000
000000DFFFFFFFFFFF500000
000005FFFFFD8FFFFFC00000
00000DFFFFF71EFFFFF50000
00005FFFFFE107FFFFFC0000
0000CFFFFF7001EFFFFF4000
0004FFFFFFCBBBEFFFFFB000
000CFFFFFFFFFFFFFFFFF400
004FFFFFFFFFFFFFFFFFFB00
00BFFFFFFFFFFFFFFFFFFF30
03FFFFFFFFFFFFFFFFFFFFA0
0BFFFFF9000000002FFFFFF3
2FFFFFF20000000009FFFFFA
7FFFFF900000000002FFFFFE
3FFFFF200000000000AFFFFB
04CFF80000000000002EFF91
000330000000000000014100
ENDCHAR
STARTCHAR Aring
ENCODING 197
SWIDTH 765 0
DWIDTH 24 0
BBX 24 31 0 -1
BITMAP
000000000015630000000000
0000000005EFFFA100000000
000000004FFECFFB00000000
00000000AFB005FF20000000
00000000DF5000DF50000000
00000000CF7001EF40000000
000000008FE86CFE10000000
000000001BFFFFF400000000
0000000007FFFFE100000000
000000001EFFFFF700000000
000000007FFFFFFD00000000
00000000DFFFFFFF60000000
00000006FFFFFFFFD0000000
0000000DFFFFFFFFF6000000
0000006FFFFFFFFFFD000000
000000DFFFFFFFFFFF500000
000005FFFFFD8FFFFFC00000
00000CFFFFF71EFFFFF50000
00005FFFFFE107FFFFFC0000
0000CFFFFF7001EFFFFF4000
0004FFFFFFCBBBEFFFFFB000
000BFFFFFFFFFFFFFFFFF400
004FFFFFFFFFFFFFFFFFFB00
00BFFFFFFFFFFFFFFFFFFF30
03FFFFFFFFFFFFFFFFFFFFA0
0AFFFFF9000000002FFFFFF3
3FFFFFF20000000009FFFFFA
7FFFFF900000000002FFFFFE
3FFFFF200000000000AFFFFB
04CFF80000000000002EFF91
000330000000000000014100
ENDCHAR
STARTCHAR AE
ENCODING 198
SWIDTH 1148 0
DWIDTH 37 0
BBX 36 25 0 -1
BITMAP
000000000000000000577777777777777750
00000000000000001CFFFFFFFFFFFFFFFFF9
0000000000000001CFFFFFFFFFFFFFFFFFFD
000000000000000BFFFFFFFFFFFFFFFFFFFE
00000000000000AFFFFFFFFFFFFFFFFFFFFC
00000000000009FFFFFFFFFFFFFFFFFFFFF6
0000000000007FFFFFFFFFF7333333333210
000000000006FFFFFFFFFFF5000000000000
00000000004FFFFFFFFFFFF5000000000000
0000000003EFFFFFFBFFFFFB999999830000
000000002EFFFFFF85FFFFFFFFFFFFFF2000
00000002DFFFFFF905FFFFFFFFFFFFFF6000
0000001DFFFFFFA005FFFFFFFFFFFFFF6000
000001CFFFFFFB1005FFFFFFFFFFFFFF4000
00000AFFFFFFF8888AFFFFFFFFFFFFFA0000
00009FFFFFFFFFFFFFFFFFF6111111100000
0008FFFFFFFFFFFFFFFFFFF5000000000000
007FFFFFFFFFFFFFFFFFFFF5000000000000
05FFFFFFFFFFFFFFFFFFFFFCBBBBBBBBBA81
4FFFFFFF7444444447FFFFFFFFFFFFFFFFFA
DFFFFFF70000000005FFFFFFFFFFFFFFFFFD
EFFFFF800000000004FFFFFFFFFFFFFFFFFE
6FFFFA000000000001DFFFFFFFFFFFFFFFFB
08FFA00000000000002BEFFFFFFFFFFFFED4
002300000000000000000000000000000000
ENDCHAR
STARTCHAR Ccedilla
ENCODING 199
SWIDTH 679 0
DWIDTH 22 0
BBX 21 31 0 -7
BITMAP
000000000379BB96200000
00000006DFFFFFFFFB4000
000003DFFFFFFFFFFFFA10
00006FFFFFFFFFFFFFFFA0
0007FFFFFFFFFFFFFFFFD0
004FFFFFFFFFFFFFFFFF80
00CFFFFFFD620028FFFC10
05FFFFFF90000000299100
0AFFFFFA00000000000000
0EFFFFF200000000000000
1FFFFFB000000000000000
2FFFFF8000000000000000
3FFFFF7000000000000000
1FFFFF9000000000000000
0FFFFFD000000000000000
0BFFFFF500000000000000
07FFFFFD20000000012000
01EFFFFFE50000008FF500
007FFFFFFFD8679EFFFF20
000BFFFFFFFFFFFFFFFFA0
0001CFFFFFFFFFFFFFFFD0
00001AFFFFFFFFFFFFFF50
0000005EFFFFFFFFFFC400
000000006BFFFFFEA50000
0000000000DFFFE2000000
0000000000DFFFFA000000
0000000000252EFE000000
00000000007D9FFD000000
0000000001FFFFF7000000
00000000007FFE70000000
0000000000012000000000
ENDCHAR
STARTCHAR Egrave
ENCODING 200
SWIDTH 638 0
DWIDTH 20 0
BBX 19 31 1 0
BITMAP
00000199500000000000
000008FFFEA610000000
00000DFFFFFFFA100000
00000EFFFFFFFF500000
000007EFFFFFFF400000
000000049EFFFE000000
000000000038B4000000
03677777777777776300
5FFFFFFFFFFFFFFFFF40
AFFFFFFFFFFFFFFFFF80
BFFFFFFFFFFFFFFFFF90
BFFFFFFFFFFFFFFFFF70
BFFFFFFFFFFFFFFFFE20
BFFFFE33333333332000
BFFFFE00000000000000
BFFFFE00000000000000
BFFFFF88888887100000
BFFFFFFFFFFFFFC00000
BFFFFFFFFFFFFFF10000
BFFFFFFFFFFFFFF10000
BFFFFFFFFFFFFFE00000
BFFFFFFFFFFFFE600000
BFFFFE22222210000000
BFFFFE00000000000000
BFFFFE00000000000000
BFFFFFAAAAAAAAAA9600
BFFFFFFFFFFFFFFFFF50
BFFFFFFFFFFFFFFFFF80
BFFFFFFFFFFFFFFFFF90
9FFFFFFFFFFFFFFFFF70
2BEFFFFFFFFFFFFFEB10
ENDCHAR
STARTCHAR Eacute
ENCODING 201
SWIDTH 638 0
DWIDTH 20 0
BBX 19 32 1 0
BITMAP
00000000000011000000
00000000027BFE100000
00000038CFFFFF700000
000005FFFFFFFFC00000
000007FFFFFFFFA00000
000004FFFFFFC7100000
000000DFFC7200000000
00000025100000000000
03677777777777776300
5FFFFFFFFFFFFFFFFF40
AFFFFFFFFFFFFFFFFF80
BFFFFFFFFFFFFFFFFF90
BFFFFFFFFFFFFFFFFF70
BFFFFFFFFFFFFFFFFE20
BFFFFE33333333332000
BFFFFE00000000000000
BFFFFE00000000000000
BFFFFF88888887100000
BFFFFFFFFFFFFFC00000
BFFFFFFFFFFFFFF10000
BFFFFFFFFFFFFFF10000
BFFFFFFFFFFFFFE00000
BFFFFFFFFFFFFE600000
BFFFFE22222210000000
BFFFFE00000000000000
BFFFFE00000000000000
BFFFFFAAAAAAAAAA9600
BFFFFFFFFFFFFFFFFF50
BFFFFFFFFFFFFFFFFF80
BFFFFFFFFFFFFFFFFF90
9FFFFFFFFFFFFFFFFF70
2BEFFFFFFFFFFFFFEB10
ENDCHAR
STARTCHAR Ecircumflex
ENCODING 202
SWIDTH 638 0
DWIDTH 20 0
BBX 19 32 1 0
BITMAP
00000000020000000000
0000005AEFD830000000
0003AEFFFFFFFD810000
000EFFFFFFFFFFF90000
000EFFFFFFFFFFFA0000
0008FFFFB7DFFFF40000
00009C930005BD700000
00000000000000000000
03677777777777776300
5FFFFFFFFFFFFFFFFF40
AFFFFFFFFFFFFFFFFF80
BFFFFFFFFFFFFFFFFF90
BFFFFFFFFFFFFFFFFF70
BFFFFFFFFFFFFFFFFE20
BFFFFE33333333332000
BFFFFE00000000000000
BFFFFE00000000000000
BFFFFF88888887100000
BFFFFFFFFFFFFFC00000
BFFFFFFFFFFFFFF10000
BFFFFFFFFFFFFFF10000
BFFFFFFFFFFFFFE00000
BFFFFFFFFFFFFE600000
BFFFFE22222210000000
BFFFFE00000000000000
BFFFFE00000000000000
BFFFFFAAAAAAAAAA9600
BFFFFFFFFFFFFFFFFF50
BFFFFFFFFFFFFFFFFF80
BFFFFFFFFFFFFFFFFF90
9FFFFFFFFFFFFFFFFF70
2BEFFFFFFFFFFFFFEB10
ENDCHAR
STARTCHAR Edieresis
ENCODING 203
SWIDTH 638 0
DWIDTH 20 0
BBX 19 32 1 0
BITMAP
00001200000002200000
002DFFF70006EFFE3000
008FFFFE000EFFFF9000
009FFFFF100FFFFFB000
009FFFFF100FFFFFA000
005FFFFC000AFFFF6000
00058871000168850000
00000000000000000000
03677777777777776300
5FFFFFFFFFFFFFFFFF40
AFFFFFFFFFFFFFFFFF80
BFFFFFFFFFFFFFFFFF90
BFFFFFFFFFFFFFFFFF70
BFFFFFFFFFFFFFFFFE20
BFFFFE33333333332000
BFFFFE00000000000000
BFFFFE00000000000000
BFFFFF88888887100000
BFFFFFFFFFFFFFC00000
BFFFFFFFFFFFFFF10000
BFFFFFFFFFFFFFF10000
BFFFFFFFFFFFFFE00000
BFFFFFFFFFFFFE600000
BFFFFE22222210000000
BFFFFE00000000000000
BFFFFE00000000000000
BFFFFFAAAAAAAAAA9600
BFFFFFFFFFFFFFFFFF50
BFFFFFFFFFFFFFFFFF80
BFFFFFFFFFFFFFFFFF90
9FFFFFFFFFFFFFFFFF70
2BEFFFFFFFFFFFFFEB10
ENDCHAR
STARTCHAR Igrave
ENCODING 204
SWIDTH 267 0
DWIDTH 9 0
BBX 10 31 -2 0
BITMAP
05A7200000
1FFFFC8300
6FFFFFFFD5
7FFFFFFFFD
2CFFFFFFFB
0027CFFFF6
0000016A90
0000266500
0003FFFFB0
0008FFFFF1
0008FFFFF2
0008FFFFF2
0008FFFFF2
0008FFFFF2
0008FFFFF2
0008FFFFF2
0008FFFFF2
0008FFFFF2
0008FFFFF2
0008FFFFF2
0008FFFFF2
0008FFFFF2
0008FFFFF2
0008FFFFF2
0008FFFFF2
0008FFFFF2
0008FFFFF2
0008FFFFF2
0008FFFFF2
0007FFFFE0
0001AEFD60
ENDCHAR
STARTCHAR Iacute
ENCODING 205
SWIDTH 269 0
DWIDTH 9 0
BBX 11 32 0 0
BITMAP
000000001000
000015AEF500
016BFFFFFC00
2EFFFFFFFF10
3FFFFFFFFE10
0EFFFFFD9300
09FFD8300000
005200000000
002665000000
03FFFFC00000
07FFFFF10000
08FFFFF20000
08FFFFF20000
08FFFFF20000
08FFFFF20000
08FFFFF20000
08FFFFF20000
08FFFFF20000
08FFFFF20000
08FFFFF20000
08FFFFF20000
08FFFFF20000
08FFFFF20000
08FFFFF20000
08FFFFF20000
08FFFFF20000
08FFFFF20000
08FFFFF20000
08FFFFF20000
08FFFFF20000
06FFFFE10000
01AEFD600000
ENDCHAR
STARTCHAR Icircumflex
ENCODING 206
SWIDTH 270 0
DWIDTH 9 0
BBX 13 32 -2 0
BITMAP
00000020000000
0005AEFD830000
3AEFFFFFFFD810
EFFFFFFFFFFF90
EFFFFFFFFFFF90
8FFFFB7DFFFF30
09C930005BD600
00000000000000
00002665000000
0003FFFFC00000
0007FFFFF10000
0008FFFFF20000
0008FFFFF20000
0008FFFFF20000
0008FFFFF20000
0008FFFFF20000
0008FFFFF20000
0008FFFFF20000
0008FFFFF20000
0008FFFFF20000
0008FFFFF20000
0008FFFFF20000
0008FFFFF20000
0008FFFFF20000
0008FFFFF20000
0008FFFFF20000
0008FFFFF20000
0008FFFFF20000
0008FFFFF20000
0008FFFFF20000
0006FFFFE10000
0001AEFD600000
ENDCHAR
STARTCHAR Idieresis
ENCODING 207
SWIDTH 268 0
DWIDTH 9 0
BBX 15 32 -3 0
BITMAP
0022000000121000
3EFFE50008FFFD10
AFFFFC001FFFFF70
BFFFFE002FFFFF90
BFFFFE002FFFFF80
7FFFFA000DFFFF40
0588610002788400
0000000000000000
0000026751000000
00002FFFFC000000
00006FFFFF200000
00007FFFFF300000
00007FFFFF300000
00007FFFFF300000
00007FFFFF300000
00007FFFFF300000
00007FFFFF300000
00007FFFFF300000
00007FFFFF300000
00007FFFFF300000
00007FFFFF300000
00007FFFFF300000
00007FFFFF300000
00007FFFFF300000
00007FFFFF300000
00007FFFFF300000
00007FFFFF300000
00007FFFFF300000
00007FFFFF300000
00007FFFFF300000
00005FFFFF100000
000009EFD7000000
ENDCHAR
STARTCHAR Eth
ENCODING 208
SWIDTH 775 0
DWIDTH 25 0
BBX 24 24 0 0
BITMAP
000026777777653000000000
0002FFFFFFFFFFFEA3000000
0006FFFFFFFFFFFFFF910000
0007FFFFFFFFFFFFFFFC2000
0007FFFFFFFFFFFFFFFFD200
0007FFFFFFFFFFFFFFFFFC10
0007FFFFF63335AFFFFFFF70
0007FFFFF3000003DFFFFFE1
0007FFFFF30000002DFFFFF6
0007FFFFF300000005FFFFFA
09DFFFFFFED6000000EFFFFD
2FFFFFFFFFFE000000BFFFFE
3FFFFFFFFFFE000000AFFFFE
1EFFFFFFFFFC000000CFFFFD
025AFFFFF851000001FFFFFB
0007FFFFF300000009FFFFF7
0007FFFFF30000007FFFFFF3
0007FFFFF300002AFFFFFFA0
0007FFFFFCBBBDFFFFFFFF20
0007FFFFFFFFFFFFFFFFF600
0007FFFFFFFFFFFFFFFF8000
0006FFFFFFFFFFFFFFF60000
0004FFFFFFFFFFFFFA200000
00009EFFFFFFEDB730000000
ENDCHAR
STARTCHAR Ntilde
ENCODING 209
SWIDTH 720 0
DWIDTH 23 0
BBX 21 32 1 0
BITMAP
0000000021000010000000
0000008EFFA106FC200000
00000BFFFFFE9FFFC00000
00007FFFFFFFFFFFB00000
0000CFFFFFFFFFFF300000
00005FFC17FFFFE5000000
0000049200289720000000
0000000000000000000000
0366400000000000466300
5FFFFA0000000008FFFF60
AFFFFF700000000CFFFFA0
BFFFFFF40000000DFFFFB0
BFFFFFFD1000000DFFFFC0
BFFFFFFFA000000DFFFFC0
BFFFFFFFF600000DFFFFC0
BFFFFFFFFF30000DFFFFC0
BFFFFFFFFFD1000DFFFFC0
BFFFFFFFFFFA000DFFFFC0
BFFFFFFFFFFF600DFFFFC0
BFFFFE7FFFFFF30DFFFFC0
BFFFFE0AFFFFFD1DFFFFC0
BFFFFE01DFFFFFADFFFFC0
BFFFFE003FFFFFFFFFFFC0
BFFFFE0006FFFFFFFFFFC0
BFFFFE0000AFFFFFFFFFC0
BFFFFE00001DFFFFFFFFC0
BFFFFE000003EFFFFFFFC0
BFFFFE0000006FFFFFFFC0
BFFFFE0000000AFFFFFFC0
BFFFFE00000001DFFFFFB0
9FFFFC000000003EFFFF90
2CFFC40000000004DFFC20
ENDCHAR
STARTCHAR Ograve
ENCODING 210
SWIDTH 775 0
DWIDTH 25 0
BBX 24 32 0 -1
BITMAP
000000019950000000000000
00000008FFFEA61000000000
0000000DFFFFFFFA10000000
0000000FFFFFFFFF60000000
00000007EFFFFFFF40000000
00000000049EFFFE00000000
00000000000038B400000000
00000000158ABA8400000000
00000019EFFFFFFFE7000000
000005EFFFFFFFFFFFD30000
00008FFFFFFFFFFFFFFE5000
0006FFFFFFFFFFFFFFFFF300
003FFFFFFFFFEFFFFFFFFE10
00BFFFFFFC40016DFFFFFF90
03FFFFFF80000001BFFFFFF2
08FFFFFA000000000CFFFFF6
0DFFFFE10000000004FFFFFB
0FFFFFB00000000000EFFFFD
2FFFFF800000000000BFFFFE
3FFFFF700000000000AFFFFF
2FFFFF900000000000BFFFFD
0FFFFFC00000000000EFFFFC
0CFFFFF40000000006FFFFF8
08FFFFFD100000002EFFFFF4
02FFFFFFC2000004DFFFFFD0
009FFFFFFFA656BFFFFFFF50
001DFFFFFFFFFFFFFFFFFA00
0002EFFFFFFFFFFFFFFFD100
00003DFFFFFFFFFFFFFC1000
000002AFFFFFFFFFFF910000
00000004AEFFFFFEA3000000
000000000035643000000000
ENDCHAR
STARTCHAR Oacute
ENCODING 211
SWIDTH 775 0
DWIDTH 25 0
BBX 24 33 0 -1
BITMAP
000000000000000110000000
00000000000027CFD1000000
00000000038DFFFFF7000000
000000006FFFFFFFFB000000
000000008FFFFFFFFA000000
000000005FFFFFFC71000000
000000000DFFB62000000000
000000000251000000000000
00000000158ABA8400000000
00000019EFFFFFFFE7000000
000005EFFFFFFFFFFFD30000
00008FFFFFFFFFFFFFFE5000
0006FFFFFFFFFFFFFFFFF300
003FFFFFFFFFEFFFFFFFFE10
00BFFFFFFC40016DFFFFFF90
03FFFFFF80000001BFFFFFF2
08FFFFFA000000000CFFFFF6
0DFFFFE10000000004FFFFFB
0FFFFFB00000000000EFFFFD
2FFFFF800000000000BFFFFE
3FFFFF700000000000AFFFFF
2FFFFF900000000000BFFFFD
0FFFFFC00000000000EFFFFC
0CFFFFF40000000006FFFFF8
08FFFFFD100000002EFFFFF4
02FFFFFFC2000004DFFFFFD0
009FFFFFFFA656BFFFFFFF50
001DFFFFFFFFFFFFFFFFFA00
0002EFFFFFFFFFFFFFFFD100
00003DFFFFFFFFFFFFFC1000
000002AFFFFFFFFFFF910000
00000004AEFFFFFEA3000000
000000000035643000000000
ENDCHAR
STARTCHAR Ocircumflex
ENCODING 212
SWIDTH 775 0
DWIDTH 25 0
BBX 24 33 0 -1
BITMAP
000000000000200000000000
00000000049EFE9400000000
00000029EFFFFFFFE9100000
000000DFFFFFFFFFFFB00000
000000CFFFFFFFFFFFB00000
0000006FFFFC7CFFFF500000
00000008C930004AD8000000
000000000000000000000000
00000000158ABA8400000000
00000019EFFFFFFFE7000000
000005EFFFFFFFFFFFD30000
00008FFFFFFFFFFFFFFE5000
0006FFFFFFFFFFFFFFFFF300
003FFFFFFFFFEFFFFFFFFE10
00BFFFFFFC40016DFFFFFF90
03FFFFFF80000001BFFFFFF2
08FFFFFA000000000CFFFFF6
0DFFFFE10000000004FFFFFB
0FFFFFB00000000000EFFFFD
2FFFFF800000000000BFFFFE
3FFFFF700000000000AFFFFF
2FFFFF900000000000BFFFFD
0FFFFFC00000000000EFFFFC
0CFFFFF40000000006FFFFF8
08FFFFFD100000002EFFFFF4
02FFFFFFC2000004DFFFFFD0
009FFFFFFFA656BFFFFFFF50
001DFFFFFFFFFFFFFFFFFA00
0002EFFFFFFFFFFFFFFFD100
00003DFFFFFFFFFFFFFC1000
000002AFFFFFFFFFFF910000
00000004AEFFFFFEA3000000
000000000035643000000000
ENDCHAR
STARTCHAR Otilde
ENCODING 213
SWIDTH 775 0
DWIDTH 25 0
BBX 24 33 0 -1
BITMAP
000000000011000001000000
000000003BFFE600CF800000
00000004EFFFFFBBFFF50000
0000000DFFFFFFFFFFF50000
0000003FFFFFFFFFFFB00000
0000000BFF62BFFFFC100000
000000007700059950000000
000000000000000000000000
00000000158ABA8400000000
00000019EFFFFFFFE7000000
000005EFFFFFFFFFFFD30000
00008FFFFFFFFFFFFFFE5000
0006FFFFFFFFFFFFFFFFF300
003FFFFFFFFFEFFFFFFFFE10
00BFFFFFFC40016DFFFFFF90
03FFFFFF80000001BFFFFFF2
08FFFFFA000000000CFFFFF6
0DFFFFE10000000004FFFFFB
0FFFFFB00000000000EFFFFD
2FFFFF800000000000BFFFFE
3FFFFF700000000000AFFFFF
2FFFFF900000000000BFFFFD
0FFFFFC00000000000EFFFFC
0CFFFFF40000000006FFFFF8
08FFFFFD100000002EFFFFF4
02FFFFFFC2000004DFFFFFD0
009FFFFFFFA656BFFFFFFF50
001DFFFFFFFFFFFFFFFFFA00
0002EFFFFFFFFFFFFFFFD100
00003DFFFFFFFFFFFFFC1000
000002AFFFFFFFFFFF910000
00000004AEFFFFFEA3000000
000000000035643000000000
ENDCHAR
STARTCHAR Odieresis
ENCODING 214
SWIDTH 775 0
DWIDTH 25 0
BBX 24 33 0 -1
BITMAP
000000022000000121000000
000005EFFE4000AFFFC10000
00000CFFFFB003FFFFF50000
00000DFFFFC004FFFFF70000
00000DFFFFC004FFFFF60000
000009FFFF8001EFFFF20000
000001688500002787300000
000000000000000000000000
00000000158ABA8400000000
00000019EFFFFFFFE7000000
000005EFFFFFFFFFFFD30000
00008FFFFFFFFFFFFFFE5000
0006FFFFFFFFFFFFFFFFF300
003FFFFFFFFFEFFFFFFFFE10
00BFFFFFFC40016DFFFFFF90
03FFFFFF80000001BFFFFFF2
08FFFFFA000000000CFFFFF6
0DFFFFE10000000004FFFFFB
0FFFFFB00000000000EFFFFD
2FFFFF800000000000BFFFFE
3FFFFF700000000000AFFFFF
2FFFFF900000000000BFFFFD
0FFFFFC00000000000EFFFFC
0CFFFFF40000000006FFFFF8
08FFFFFD100000002EFFFFF4
02FFFFFFC2000004DFFFFFD0
009FFFFFFFA656BFFFFFFF50
001DFFFFFFFFFFFFFFFFFA00
0002EFFFFFFFFFFFFFFFD100
00003DFFFFFFFFFFFFFC1000
000002AFFFFFFFFFFF910000
00000004AEFFFFFEA3000000
000000000035643000000000
ENDCHAR
STARTCHAR multiply
ENCODING 215
SWIDTH 521 0
DWIDTH 17 0
BBX 16 15 0 1
BITMAP
007EA1000003CD40
08FFFC10004EFFF3
2FFFFFC104EFFFFC
1EFFFFFC5EFFFFFA
04FFFFFFFFFFFFC1
004FFFFFFFFFFD10
0004FFFFFFFFD100
00007FFFFFFF2000
0004EFFFFFFFC100
004EFFFFFFFFFC10
03EFFFFFFFFFFFC1
1EFFFFFC5FFFFFF9
2FFFFFC104FFFFFC
09FFFC10004FFFF5
009FB1000004DE50
ENDCHAR
STARTCHAR Oslash
ENCODING 216
SWIDTH 775 0
DWIDTH 25 0
BBX 24 27 0 -2
BITMAP
0000000000000001DEA20000
00000000159ABA7AFFFF4000
00000019EFFFFFFFFFFF8000
000005EFFFFFFFFFFFFF4000
00008FFFFFFFFFFFFFFF4000
0006FFFFFFFFFFFFFFFFE300
003FFFFFFFFFEFFFFFFFFE10
00BFFFFFFC407FFFFFFFFF80
03FFFFFF8001EFFFFFFFFFF1
08FFFFF90006FFFFFEFFFFF6
0DFFFFE1000DFFFFE5FFFFFA
0FFFFFA0006FFFFF70EFFFFC
2FFFFF8000DFFFFE10BFFFFE
3FFFFF7005FFFFF800AFFFFF
2FFFFF900CFFFFE100BFFFFD
1FFFFFC05FFFFF8000EFFFFC
0CFFFFF4CFFFFF1006FFFFF9
08FFFFFEFFFFF9002EFFFFF4
02FFFFFFFFFFF204EFFFFFD0
008FFFFFFFFFC6BFFFFFFF50
001DFFFFFFFFFFFFFFFFFA00
0002EFFFFFFFFFFFFFFFD100
00002EFFFFFFFFFFFFFC1000
00001FFFFFFFFFFFFF910000
00004FFFFFFFFFFEA3000000
00001BFFFB35653000000000
0000005AB200000000000000
ENDCHAR
STARTCHAR Ugrave
ENCODING 217
SWIDTH 726 0
DWIDTH 23 0
BBX 21 32 1 -1
BITMAP
0000099510000000000000
00006FFFFB610000000000
0000BFFFFFFFB200000000
0000DFFFFFFFF700000000
00006EFFFFFFF600000000
00000048DFFFE100000000
00000000037B5000000000
0477500000000000477500
6FFFF90000000006FFFF90
AFFFFD000000000AFFFFD0
BFFFFE000000000BFFFFE0
BFFFFF000000000BFFFFE0
BFFFFF000000000BFFFFE0
BFFFFF000000000BFFFFE0
BFFFFF000000000BFFFFE0
BFFFFF000000000BFFFFE0
BFFFFF000000000BFFFFE0
BFFFFF000000000BFFFFE0
BFFFFF000000000BFFFFE0
BFFFFF000000000BFFFFE0
AFFFFF100000000BFFFFE0
9FFFFF200000000DFFFFD0
7FFFFF700000002FFFFFA0
3FFFFFD00000009FFFFF70
0DFFFFF9000005FFFFFF20
07FFFFFFC756AFFFFFFA00
01DFFFFFFFFFFFFFFFF200
004FFFFFFFFFFFFFFF7000
0005FFFFFFFFFFFFF90000
00004EFFFFFFFFFE700000
0000018EFFFFFE92000000
0000000035643000000000
ENDCHAR
STARTCHAR Uacute
ENCODING 218
SWIDTH 726 0
DWIDTH 23 0
BBX 21 33 1 -1
BITMAP
0000000000000011000000
0000000000027CFD100000
0000000038DFFFFF700000
00000006FFFFFFFFB00000
00000008FFFFFFFFA00000
00000005FFFFFFC7100000
00000000DFFB6200000000
0000000025100000000000
0477500000000000477500
6FFFF90000000006FFFF90
AFFFFD000000000AFFFFD0
BFFFFE000000000BFFFFE0
BFFFFF000000000BFFFFE0
BFFFFF000000000BFFFFE0
BFFFFF000000000BFFFFE0
BFFFFF000000000BFFFFE0
BFFFFF000000000BFFFFE0
BFFFFF000000000BFFFFE0
BFFFFF000000000BFFFFE0
BFFFFF000000000BFFFFE0
BFFFFF000000000BFFFFE0
AFFFFF100000000BFFFFE0
9FFFFF200000000DFFFFD0
7FFFFF700000002FFFFFA0
3FFFFFD00000009FFFFF70
0DFFFFF9000005FFFFFF20
07FFFFFFC756AFFFFFFA00
01DFFFFFFFFFFFFFFFF200
004FFFFFFFFFFFFFFF7000
0005FFFFFFFFFFFFF90000
00004EFFFFFFFFFE700000
0000018EFFFFFE92000000
0000000035643000000000
ENDCHAR
STARTCHAR Ucircumflex
ENCODING 219
SWIDTH 726 0
DWIDTH 23 0
BBX 21 33 1 -1
BITMAP
0000000000110000000000
000000016BFFC720000000
000005BFFFFFFFFC600000
00004FFFFFFFFFFFF50000
00004FFFFFFFFFFFF50000
00000CFFFF99EFFFD10000
000002BC710017CD300000
0000000000000000000000
0477500000000000477500
6FFFF90000000006FFFF90
AFFFFD000000000AFFFFD0
BFFFFE000000000BFFFFE0
BFFFFF000000000BFFFFE0
BFFFFF000000000BFFFFE0
BFFFFF000000000BFFFFE0
BFFFFF000000000BFFFFE0
BFFFFF000000000BFFFFE0
BFFFFF000000000BFFFFE0
BFFFFF000000000BFFFFE0
BFFFFF000000000BFFFFE0
BFFFFF000000000BFFFFE0
AFFFFF100000000BFFFFE0
9FFFFF200000000DFFFFD0
7FFFFF700000002FFFFFA0
3FFFFFD00000009FFFFF70
0DFFFFF9000005FFFFFF20
07FFFFFFC756AFFFFFFA00
01DFFFFFFFFFFFFFFFF200
004FFFFFFFFFFFFFFF7000
0005FFFFFFFFFFFFF90000
00004EFFFFFFFFFE700000
0000018EFFFFFE92000000
0000000035643000000000
ENDCHAR
STARTCHAR Udieresis
ENCODING 220
SWIDTH 726 0
DWIDTH 23 0
BBX 21 33 1 -1
BITMAP
0000012100000022000000
0001CFFF80005EFFE40000
0006FFFFF100CFFFFB0000
0008FFFFF200EFFFFC0000
0008FFFFF200DFFFFC0000
0004FFFFD0009FFFF80000
0000488720001688500000
0000000000000000000000
0477500000000000477500
6FFFF90000000006FFFF90
AFFFFD000000000AFFFFD0
BFFFFE000000000BFFFFE0
BFFFFF000000000BFFFFE0
BFFFFF000000000BFFFFE0
BFFFFF000000000BFFFFE0
BFFFFF000000000BFFFFE0
BFFFFF000000000BFFFFE0
BFFFFF000000000BFFFFE0
BFFFFF000000000BFFFFE0
BFFFFF000000000BFFFFE0
BFFFFF000000000BFFFFE0
AFFFFF100000000BFFFFE0
9FFFFF200000000DFFFFD0
7FFFFF700000002FFFFFA0
3FFFFFD00000009FFFFF70
0DFFFFF9000005FFFFFF20
07FFFFFFC756AFFFFFFA00
01DFFFFFFFFFFFFFFFF200
004FFFFFFFFFFFFFFF7000
0005FFFFFFFFFFFFF90000
00004EFFFFFFFFFE700000
0000018EFFFFFE92000000
0000000035643000000000
ENDCHAR
STARTCHAR Yacute
ENCODING 221
SWIDTH 686 0
DWIDTH 22 0
BBX 22 33 0 -1
BITMAP
0000000000000020000000
0000000000159EF7000000
000000016AEFFFFE000000
0000000DFFFFFFFF300000
0000001FFFFFFFFF200000
0000000DFFFFFE94000000
00000006FFD94000000000
0000000043000000000000
003AA100000000002AA300
08FFFC0000000000DFFF80
5FFFFF7000000008FFFFF4
6FFFFFE20000003FFFFFF5
1EFFFFFB000000CFFFFFD0
05FFFFFF500006FFFFFF40
00AFFFFFE1001EFFFFF900
001EFFFFF900AFFFFFD100
0005FFFFFF34FFFFFF4000
0000AFFFFFCDFFFFF90000
00001EFFFFFFFFFFD10000
000005FFFFFFFFFF400000
000000AFFFFFFFF9000000
0000001EFFFFFFD1000000
00000005FFFFFF40000000
00000000DFFFFD00000000
00000000DFFFFC00000000
00000000DFFFFC00000000
00000000DFFFFC00000000
00000000DFFFFC00000000
00000000DFFFFC00000000
00000000DFFFFC00000000
00000000BFFFFB00000000
000000004DFFD300000000
0000000000110000000000
ENDCHAR
STARTCHAR Thorn
ENCODING 222
SWIDTH 634 0
DWIDTH 20 0
BBX 19 24 1 0
BITMAP
03664000000000000000
5FFFF900000000000000
AFFFFD00000000000000
BFFFFE33333100000000
BFFFFFFFFFFFC5000000
BFFFFFFFFFFFFFC20000
BFFFFFFFFFFFFFFE3000
BFFFFFFFFFFFFFFFE100
BFFFFFFFFFFFFFFFF800
BFFFFF77778EFFFFFE00
BFFFFE000001CFFFFF30
BFFFFE0000005FFFFF50
BFFFFE0000004FFFFF60
BFFFFE0000008FFFFF40
BFFFFE000006FFFFFF20
BFFFFFDDDDFFFFFFFC00
BFFFFFFFFFFFFFFFF500
BFFFFFFFFFFFFFFFA000
BFFFFFFFFFFFFFFA0000
BFFFFFFFFFFFFD500000
BFFFFFCCCBB950000000
BFFFFE00000000000000
9FFFFC00000000000000
2BEEC400000000000000
ENDCHAR
STARTCHAR germandbls
ENCODING 223
SWIDTH 633 0
DWIDTH 20 0
BBX 19 26 1 -1
BITMAP
00000000100000000000
00016BDEFFEC82000000
007EFFFFFFFFFF600000
09FFFFFFFFFFFFF30000
2FFFFFFFFFFFFFF80000
7FFFFFFCABFFFFF90000
9FFFFF6000CFFFF70000
AFFFFE0003FFFFF30000
BFFFFC001DFFFFC00000
BFFFFC008FFFFF300000
BFFFFC00EFFFF6000000
BFFFFC01FFFFE0000000
BFFFFC01FFFFF8000000
BFFFFC00BFFFFFA10000
BFFFFC003FFFFFFD3000
BFFFFC0005EFFFFFE300
BFFFFC00002CFFFFFC00
BFFFFC0000008FFFFF30
BFFFFC0000000DFFFF50
BFFFFC0058301EFFFF60
BFFFFC02FFFDDFFFFF50
BFFFFC06FFFFFFFFFF30
BFFFFC08FFFFFFFFFC00
BFFFFC07FFFFFFFFE300
9FFFFB007BEFFFD92000
2CFFD300000111000000
ENDCHAR
STARTCHAR agrave
ENCODING 224
SWIDTH 596 0
DWIDTH 19 0
BBX 18 25 0 0
BITMAP
0000007A6100000000
000004FFFFC7200000
000009FFFFFFFD3000
00000AFFFFFFFFA000
000004DFFFFFFF8000
000000037CFFFF3000
000000000027B70000
000000000000000000
0000027BCA601ACCA2
00007EFFFFFCAFFFF9
0009FFFFFFFFFFFFFC
007FFFFFFFFFFFFFFC
02FFFFFFFFFFFFFFFC
09FFFFFFDCFFFFFFFC
0EFFFFF6002DFFFFFC
2FFFFFA00004FFFFFC
3FFFFF700001FFFFFC
2FFFFF900003FFFFFC
0EFFFFF5001CFFFFFC
0AFFFFFFCBEFFFFFFC
03FFFFFFFFFFFFFFFC
008FFFFFFFFFFFFFFC
000BFFFFFFFFFFFFFC
00009FFFFFFDBFFFFA
0000039DEC812BEEC3
ENDCHAR
STARTCHAR aacute
ENCODING 225
SWIDTH 596 0
DWIDTH 19 0
BBX 18 25 0 0
BITMAP
0000000000049A1000
000000015AEFFF9000
000001AFFFFFFFE000
000004FFFFFFFFF100
000002FFFFFFFE8000
000000CFFFE9400000
0000003B8400000000
000000000000000000
0000027BCA601ACCA2
00007EFFFFFCAFFFF9
0009FFFFFFFFFFFFFC
007FFFFFFFFFFFFFFC
02FFFFFFFFFFFFFFFC
09FFFFFFDCFFFFFFFC
0EFFFFF6002DFFFFFC
2FFFFFA00004FFFFFC
3FFFFF700001FFFFFC
2FFFFF900003FFFFFC
0EFFFFF5001CFFFFFC
0AFFFFFFCBEFFFFFFC
03FFFFFFFFFFFFFFFC
008FFFFFFFFFFFFFFC
000BFFFFFFFFFFFFFC
00009FFFFFFDBFFFFA
0000039DEC812BEEC3
ENDCHAR
STARTCHAR acircumflex
ENCODING 226
SWIDTH 596 0
DWIDTH 19 0
BBX 18 25 0 0
BITMAP
0000000038B8300000
0000038DFFFFFD8300
0000AFFFFFFFFFFF70
0000EFFFFFFFFFFFC0
00009FFFFFDFFFFF80
00002DFF9304AFFD10
000001310000025100
000000000000000000
0000027BCA601ACCA2
00007EFFFFFCAFFFF9
0009FFFFFFFFFFFFFC
007FFFFFFFFFFFFFFC
02FFFFFFFFFFFFFFFC
09FFFFFFDCFFFFFFFC
0EFFFFF6002DFFFFFC
2FFFFFA00004FFFFFC
3FFFFF700001FFFFFC
2FFFFF900003FFFFFC
0EFFFFF5001CFFFFFC
0AFFFFFFCBEFFFFFFC
03FFFFFFFFFFFFFFFC
008FFFFFFFFFFFFFFC
000BFFFFFFFFFFFFFC
00009FFFFFFDBFFFFA
0000039DEC812BEEC3
ENDCHAR
STARTCHAR atilde
ENCODING 227
SWIDTH 596 0
DWIDTH 19 0
BBX 18 25 0 0
BITMAP
00000038A93003A500
000007FFFFF83DFF60
00005FFFFFFFFFFFB0
0000DFFFFFFFFFFF50
0000CFFE7DFFFFF900
00001BE4019EFD6000
000000000000000000
000000000000000000
0000027BCA601ACCA2
00007EFFFFFCAFFFF9
0009FFFFFFFFFFFFFC
007FFFFFFFFFFFFFFC
02FFFFFFFFFFFFFFFC
09FFFFFFDCFFFFFFFC
0EFFFFF6002DFFFFFC
2FFFFFA00004FFFFFC
3FFFFF700001FFFFFC
2FFFFF900003FFFFFC
0EFFFFF5001CFFFFFC
0AFFFFFFCBEFFFFFFC
03FFFFFFFFFFFFFFFC
008FFFFFFFFFFFFFFC
000BFFFFFFFFFFFFFC
00009FFFFFFDBFFFFA
0000039DEC812BEEC3
ENDCHAR
STARTCHAR adieresis
ENCODING 228
SWIDTH 596 0
DWIDTH 19 0
BBX 18 25 0 0
BITMAP
00018BB9200039BA70
0008FFFFB000EFFFF5
000BFFFFE002FFFFF9
000BFFFFE002FFFFF9
0009FFFFC000EFFFF7
0002BEEC40005DEEA1
000000000000000000
000000000000000000
0000027BCA601ACCA2
00007EFFFFFCAFFFF9
0009FFFFFFFFFFFFFC
007FFFFFFFFFFFFFFC
02FFFFFFFFFFFFFFFC
09FFFFFFDCFFFFFFFC
0EFFFFF6002DFFFFFC
2FFFFFA00004FFFFFC
3FFFFF700001FFFFFC
2FFFFF900003FFFFFC
0EFFFFF5001CFFFFFC
0AFFFFFFCBEFFFFFFC
03FFFFFFFFFFFFFFFC
008FFFFFFFFFFFFFFC
000BFFFFFFFFFFFFFC
00009FFFFFFDBFFFFA
0000039DEC812BEEC3
ENDCHAR
STARTCHAR aring
ENCODING 229
SWIDTH 596 0
DWIDTH 19 0
BBX 18 24 0 0
BITMAP
000000004CFC400000
00000003FEBEF30000
00000009F303F90000
0000000BF001FB0000
00000007FA5AF70000
00000001BFFFB10000
000000000464000000
0000027BCA601ACCA2
00007EFFFFFCAFFFF9
0009FFFFFFFFFFFFFC
007FFFFFFFFFFFFFFC
02FFFFFFFFFFFFFFFC
09FFFFFFDCFFFFFFFC
0EFFFFF6002DFFFFFC
2FFFFFA00004FFFFFC
3FFFFF700001FFFFFC
2FFFFF900003FFFFFC
0EFFFFF5001CFFFFFC
0AFFFFFFCBEFFFFFFC
03FFFFFFFFFFFFFFFC
008FFFFFFFFFFFFFFC
000BFFFFFFFFFFFFFC
00009FFFFFFDBFFFFA
0000039DEC812BEEC3
ENDCHAR
STARTCHAR ae
ENCODING 230
SWIDTH 910 0
DWIDTH 29 0
BBX 29 19 0 -1
BITMAP
000000001100000000000000000000
000049DFFFEA300028CEFFD9300000
002BFFFFFFFFF918FFFFFFFFFA0000
02EFFFFFFFFFFFEFFFFFFFFFFFB000
0AFFFFFFFFFFFFFFFFFFFFFFFFF700
09FFFFFFFFFFFFFFFFFFEEFFFFFE00
02EFFFE623CFFFFFFFC3009FFFFF30
004EFD20001FFFFFFE10003FFFFF40
00014000000AFFFFFD8888CFFFFF30
00049CEEDB79FFFFFFFFFFFFFFFE00
01BFFFFFFFFFFFFFFFFFFFFFFFE400
0BFFFFFFFFFFFFFFFD555555541000
2FFFFD300137FFFFFF600000351000
3FFFFC00002BFFFFFFFD99ADFFB000
1FFFFFB88BFFFFFFFFFFFFFFFFF400
0CFFFFFFFFFFFDDFFFFFFFFFFFF700
03FFFFFFFFFFB12CFFFFFFFFFFE200
003BFFFFFFC500005BEFFFFEA61000
000013443100000000023210000000
ENDCHAR
STARTCHAR ccedilla
ENCODING 231
SWIDTH 524 0
DWIDTH 17 0
BBX 16 25 0 -7
BITMAP
0000000023200000
0000029EFFFFB500
00008FFFFFFFFFB1
000BFFFFFFFFFFFB
009FFFFFFFFFFFFD
04FFFFFFFFFFFFF8
0AFFFFFFDACFFFD1
0EFFFFF80004BB20
2FFFFFD000000000
3FFFFFB000000000
2FFFFFD000000000
0EFFFFF70003A800
0AFFFFFFC9BFFFB1
04FFFFFFFFFFFFF8
009FFFFFFFFFFFFE
000BFFFFFFFFFFFB
00009FFFFFFFFFB1
000003AFFFFFB500
0000007FFFFD1000
0000003FFEFF7000
0000000424FFA000
0000002EDCFF8000
0000007FFFFE2000
0000001BFFC30000
0000000011000000
ENDCHAR
STARTCHAR egrave
ENCODING 232
SWIDTH 573 0
DWIDTH 18 0
BBX 18 26 0 -1
BITMAP
000005B73000000000
00001EFFFD84000000
00005FFFFFFFE60000
00006FFFFFFFFE0000
00002BFFFFFFFC0000
00000026BFFFF70000
00000000015AA00000
000000001321000000
000003AEFFFFD81000
00019FFFFFFFFFD300
001CFFFFFFFFFFFE20
00AFFFFFFFFFFFFFC0
04FFFFFFFEEFFFFFF3
0AFFFFFD4007FFFFF6
0EFFFFE20001FFFFF8
2FFFFFD8888BFFFFF7
3FFFFFFFFFFFFFFFF3
2FFFFFFFFFFFFFFF70
0FFFFFE66666666200
0BFFFFF60000014100
05FFFFFFC889CFFD10
00CFFFFFFFFFFFFF70
002EFFFFFFFFFFFFA0
0003DFFFFFFFFFFF60
000017DFFFFFFFD600
000000024666420000
ENDCHAR
STARTCHAR eacute
ENCODING 233
SWIDTH 573 0
DWIDTH 18 0
BBX 18 26 0 -1
BITMAP
000000000016A80000
000000027BFFFF5000
000002CFFFFFFFA000
000008FFFFFFFFB000
000006FFFFFFFD4000
000002FFFFD8300000
0000006B7200000000
000000001321000000
000003AEFFFFD81000
00019FFFFFFFFFD300
001CFFFFFFFFFFFE20
00AFFFFFFFFFFFFFC0
04FFFFFFFEEFFFFFF3
0AFFFFFD4007FFFFF6
0EFFFFE20001FFFFF8
2FFFFFD8888BFFFFF7
3FFFFFFFFFFFFFFFF3
2FFFFFFFFFFFFFFF70
0FFFFFE66666666200
0BFFFFF60000014100
05FFFFFFC889CFFD10
00CFFFFFFFFFFFFF70
002EFFFFFFFFFFFFA0
0003DFFFFFFFFFFF60
000017DFFFFFFFD600
000000024666420000
ENDCHAR
STARTCHAR ecircumflex
ENCODING 234
SWIDTH 573 0
DWIDTH 18 0
BBX 18 26 0 -1
BITMAP
000000038B83000000
000038DFFFFFD83000
0009FFFFFFFFFFF800
000DFFFFFFFFFFFD00
0009FFFFFDFFFFF800
0001DFFA303AFFD100
000013100000141000
000000001321000000
000003AEFFFFD81000
00019FFFFFFFFFD300
001CFFFFFFFFFFFE20
00AFFFFFFFFFFFFFC0
04FFFFFFFEEFFFFFF3
0AFFFFFD4007FFFFF6
0EFFFFE20001FFFFF8
2FFFFFD8888BFFFFF7
3FFFFFFFFFFFFFFFF3
2FFFFFFFFFFFFFFF70
0FFFFFE66666666200
0BFFFFF60000014100
05FFFFFFC889CFFD10
00CFFFFFFFFFFFFF70
002EFFFFFFFFFFFFA0
0003DFFFFFFFFFFF60
000017DFFFFFFFD600
000000024666420000
ENDCHAR
STARTCHAR edieresis
ENCODING 235
SWIDTH 573 0
DWIDTH 18 0
BBX 18 26 0 -1
BITMAP
0029BB810005ABA500
00BFFFF8002FFFFF30
00EFFFFB004FFFFF60
00EFFFFC005FFFFF60
00CFFFF9002FFFFF40
004CEEB20008DED900
000000000000000000
000000001321000000
000003AEFFFFD81000
00019FFFFFFFFFD300
001CFFFFFFFFFFFE20
00AFFFFFFFFFFFFFC0
04FFFFFFFEEFFFFFF3
0AFFFFFD4007FFFFF6
0EFFFFE20001FFFFF8
2FFFFFD8888BFFFFF7
3FFFFFFFFFFFFFFFF3
2FFFFFFFFFFFFFFF70
0FFFFFE66666666200
0BFFFFF60000014100
05FFFFFFC889CFFD10
00CFFFFFFFFFFFFF70
002EFFFFFFFFFFFFA0
0003DFFFFFFFFFFF60
000017DFFFFFFFD600
000000024666420000
ENDCHAR
STARTCHAR igrave
ENCODING 236
SWIDTH 255 0
DWIDTH 8 0
BBX 10 25 -2 0
BITMAP
05B7200000
1EFFFD8400
5FFFFFFFE6
7FFFFFFFFD
2BFFFFFFFB
0026BFFFF7
0000015AA0
0000000000
00019CC920
0008FFFFB0
000BFFFFD0
000BFFFFD0
000BFFFFD0
000BFFFFD0
000BFFFFD0
000BFFFFD0
000BFFFFD0
000BFFFFD0
000BFFFFD0
000BFFFFD0
000BFFFFD0
000BFFFFD0
000BFFFFD0
0009FFFFB0
0002CFFC40
ENDCHAR
STARTCHAR iacute
ENCODING 237
SWIDTH 255 0
DWIDTH 8 0
BBX 10 25 0 0
BITMAP
0000015990
0016BFFFF6
2BFFFFFFFB
7FFFFFFFFD
5FFFFFFFE6
1EFFFD8400
05B7300000
0000000000
019CC92000
08FFFFB000
0BFFFFD000
0BFFFFD000
0BFFFFD000
0BFFFFD000
0BFFFFD000
0BFFFFD000
0BFFFFD000
0BFFFFD000
0BFFFFD000
0BFFFFD000
0BFFFFD000
0BFFFFD000
0BFFFFD000
09FFFFB000
02CFFC4000
ENDCHAR
STARTCHAR icircumflex
ENCODING 238
SWIDTH 255 0
DWIDTH 8 0
BBX 14 25 -3 0
BITMAP
0000159A610000
015AEFFFFFB610
1DFFFFFFFFFFE3
4FFFFFFFFFFFF7
1EFFFFFEFFFFF3
05FFD7106CFF90
00230000003400
00000000000000
000019CC920000
00008FFFFB0000
0000BFFFFD0000
0000BFFFFD0000
0000BFFFFD0000
0000BFFFFD0000
0000BFFFFD0000
0000BFFFFD0000
0000BFFFFD0000
0000BFFFFD0000
0000BFFFFD0000
0000BFFFFD0000
0000BFFFFD0000
0000BFFFFD0000
0000BFFFFD0000
00009FFFFB0000
00002CFFC40000
ENDCHAR
STARTCHAR idieresis
ENCODING 239
SWIDTH 255 0
DWIDTH 8 0
BBX 16 25 -4 0
BITMAP
039BA700006ABA40
0DFFFF6003FFFFF1
1FFFFFA006FFFFF4
1FFFFFA006FFFFF4
0EFFFF8004FFFFF2
05DEEB10009DED70
0000000000000000
0000000000000000
0000019CC9200000
000008FFFFB00000
00000AFFFFD00000
00000AFFFFE00000
00000AFFFFE00000
00000AFFFFE00000
00000AFFFFE00000
00000AFFFFE00000
00000AFFFFE00000
00000AFFFFE00000
00000AFFFFE00000
00000AFFFFE00000
00000AFFFFE00000
00000AFFFFE00000
00000AFFFFE00000
000009FFFFC00000
000002BEFD400000
ENDCHAR
STARTCHAR eth
ENCODING 240
SWIDTH 585 0
DWIDTH 19 0
BBX 18 27 0 -1
BITMAP
000000000089100000
0000006836FF900000
000007FFFFFF500000
00000EFFFFFC000000
00000EFFFFFFB10000
000002CFFFFFFC1000
000002EFFFFFFFA000
000008FF92CFFFF600
000001AA000BFFFE10
000000157751CFFF70
000018EFFFFE9FFFD0
0003DFFFFFFFFFFFF3
003EFFFFFFFFFFFFF7
00DFFFFFFFFFFFFFFA
07FFFFFFDCEFFFFFFC
0CFFFFF60019FFFFFD
1FFFFF900000DFFFFE
2FFFFF500000AFFFFD
2FFFFF600000BFFFFC
1FFFFFC10003FFFFFA
0BFFFFFD648EFFFFF5
05FFFFFFFFFFFFFFD0
00BFFFFFFFFFFFFF40
001DFFFFFFFFFFF700
0001AFFFFFFFFF6000
000004BFFFFEA20000
000000013431000000
ENDCHAR
STARTCHAR ntilde
ENCODING 241
SWIDTH 606 0
DWIDTH 19 0
BBX 18 25 1 0
BITMAP
000017AA6000981000
0003EFFFFC39FFC000
001EFFFFFFFFFFF200
007FFFFFFFFFFFB000
006FFF9AFFFFFD2000
0007E9005DFE910000
000000000000000000
000000000000000000
1ACDA304ACC9400000
9FFFFB8FFFFFFA1000
BFFFFFFFFFFFFFC100
BFFFFFFFFFFFFFFA00
BFFFFFFFFFFFFFFF30
BFFFFFFECDFFFFFF90
BFFFFFB1006FFFFFD0
BFFFFF10000BFFFFF0
BFFFFD000008FFFFF1
BFFFFD000008FFFFF2
BFFFFD000008FFFFF2
BFFFFD000008FFFFF2
BFFFFD000008FFFFF2
BFFFFD000008FFFFF2
BFFFFD000007FFFFF2
9FFFFB000006FFFFE0
2BEEC30000019EED60
ENDCHAR
STARTCHAR ograve
ENCODING 242
SWIDTH 600 0
DWIDTH 19 0
BBX 19 26 0 -1
BITMAP
000002A9400000000000
00000AFFFEA510000000
00001FFFFFFFF9000000
00002FFFFFFFFF300000
000009EFFFFFFF100000
000000159EFFFC000000
000000000048B3000000
00000000233100000000
000003AEFFFFB5000000
00008FFFFFFFFFB10000
000BFFFFFFFFFFFD1000
009FFFFFFFFFFFFFC000
03FFFFFFFFFFFFFFF600
0AFFFFFFA78EFFFFFD00
0EFFFFF40002EFFFFF20
2FFFFFA000007FFFFF50
3FFFFF8000005FFFFF60
2FFFFF9000006FFFFF50
0EFFFFE30002DFFFFF30
0AFFFFFF968EFFFFFD00
03FFFFFFFFFFFFFFF700
008FFFFFFFFFFFFFC000
000BFFFFFFFFFFFE2000
00008FFFFFFFFFC20000
000003AFFFFFB5000000
00000000343100000000
ENDCHAR
STARTCHAR oacute
ENCODING 243
SWIDTH 600 0
DWIDTH 19 0
BBX 19 26 0 -1
BITMAP
0000000000059A100000
000000016AEFFF800000
000001AFFFFFFFD00000
000005FFFFFFFFF00000
000003FFFFFFFE700000
000000DFFFE940000000
0000004B830000000000
00000000233100000000
000003AEFFFFB5000000
00008FFFFFFFFFB10000
000BFFFFFFFFFFFD1000
009FFFFFFFFFFFFFC000
03FFFFFFFFFFFFFFF600
0AFFFFFFA78EFFFFFD00
0EFFFFF40002EFFFFF20
2FFFFFA000007FFFFF50
3FFFFF8000005FFFFF60
2FFFFF9000006FFFFF50
0EFFFFE30002DFFFFF30
0AFFFFFF968EFFFFFD00
03FFFFFFFFFFFFFFF700
008FFFFFFFFFFFFFC000
000BFFFFFFFFFFFE2000
00008FFFFFFFFFC20000
000003AFFFFFB5000000
00000000343100000000
ENDCHAR
STARTCHAR ocircumflex
ENCODING 244
SWIDTH 600 0
DWIDTH 19 0
BBX 19 26 0 -1
BITMAP
000000027B9400000000
000027CFFFFFE9400000
0006FFFFFFFFFFFB0000
000AFFFFFFFFFFFF1000
0005FFFFFEFFFFFC0000
0000BFFB5028EFF30000
00000320000014200000
00000000233100000000
000003AEFFFFB5000000
00008FFFFFFFFFB10000
000BFFFFFFFFFFFD1000
009FFFFFFFFFFFFFC000
03FFFFFFFFFFFFFFF600
0AFFFFFFA78EFFFFFD00
0EFFFFF40002EFFFFF20
2FFFFFA000007FFFFF50
3FFFFF8000005FFFFF60
2FFFFF9000006FFFFF50
0EFFFFE30002DFFFFF30
0AFFFFFF968EFFFFFD00
03FFFFFFFFFFFFFFF700
008FFFFFFFFFFFFFC000
000BFFFFFFFFFFFE2000
00008FFFFFFFFFC20000
000003AFFFFFB5000000
00000000343100000000
ENDCHAR
STARTCHAR otilde
ENCODING 245
SWIDTH 600 0
DWIDTH 19 0
BBX 19 26 0 -1
BITMAP
0000018AA5001A700000
00004EFFFFB3BFFA0000
0002EFFFFFFFFFFF0000
0009FFFFFFFFFFF90000
0008FFF8BFFFFFC10000
00008F7007DFE8100000
00000000000000000000
00000000233100000000
000003AEFFFFB5000000
00008FFFFFFFFFB10000
000BFFFFFFFFFFFD1000
009FFFFFFFFFFFFFC000
03FFFFFFFFFFFFFFF600
0AFFFFFFA78EFFFFFD00
0EFFFFF40002EFFFFF20
2FFFFFA000007FFFFF50
3FFFFF8000005FFFFF60
2FFFFF9000006FFFFF50
0EFFFFE30002DFFFFF30
0AFFFFFF968EFFFFFD00
03FFFFFFFFFFFFFFF700
008FFFFFFFFFFFFFC000
000BFFFFFFFFFFFE2000
00008FFFFFFFFFC20000
000003AFFFFFB5000000
00000000343100000000
ENDCHAR
STARTCHAR odieresis
ENCODING 246
SWIDTH 600 0
DWIDTH 19 0
BBX 19 26 0 -1
BITMAP
0018AB9200039BA70000
007FFFFB000DFFFF6000
00AFFFFF001FFFFF9000
00BFFFFF001FFFFF9000
009FFFFD000EFFFF7000
002BEEC40005DEEA1000
00000000000000000000
00000000233100000000
000003AEFFFFB5000000
00008FFFFFFFFFB10000
000BFFFFFFFFFFFD1000
009FFFFFFFFFFFFFC000
03FFFFFFFFFFFFFFF600
0AFFFFFFA78EFFFFFD00
0EFFFFF40002EFFFFF20
2FFFFFA000007FFFFF50
3FFFFF8000005FFFFF60
2FFFFF9000006FFFFF50
0EFFFFE30002DFFFFF30
0AFFFFFF968EFFFFFD00
03FFFFFFFFFFFFFFF700
008FFFFFFFFFFFFFC000
000BFFFFFFFFFFFE2000
00008FFFFFFFFFC20000
000003AFFFFFB5000000
00000000343100000000
ENDCHAR
STARTCHAR divide
ENCODING 247
SWIDTH 503 0
DWIDTH 16 0
BBX 16 18 0 0
BITMAP
0000003763000000
000003FFFF600000
000008FFFF900000
000008FFFF900000
000005FFFF700000
0000007BB8100000
0001111111111100
0AFFFFFFFFFFFFB0
2FFFFFFFFFFFFFF3
3FFFFFFFFFFFFFF4
1EFFFFFFFFFFFFF2
0278888888888730
0000001341000000
000002EFFE300000
000007FFFF900000
000008FFFFA00000
000006FFFF800000
000001ADEB200000
ENDCHAR
STARTCHAR oslash
ENCODING 248
SWIDTH 600 0
DWIDTH 19 0
BBX 19 27 0 -5
BITMAP
0000000000001AC71000
0000000000008FFFD200
000000000001EFFFF700
000000000008FFFFF400
00000000233EFFFFD000
0000029EFFFFFFFF6000
00008FFFFFFFFFFD0000
000AFFFFFFFFFFFD1000
009FFFFFFFFFFFFFC000
03FFFFFFFFFFFFFFF600
0AFFFFFFA79EFFFFFD00
0EFFFFF40002EFFFFF20
2FFFFFA000007FFFFF50
3FFFFF8000005FFFFF60
2FFFFF9000006FFFFF50
0EFFFFE30001DFFFFF30
0AFFFFFF858EFFFFFD00
04FFFFFFFFFFFFFFF700
00AFFFFFFFFFFFFFD000
001CFFFFFFFFFFFE2000
000AFFFFFFFFFFC20000
002FFFFFFFFFC6000000
009FFFFF643100000000
01FFFFFB000000000000
05FFFFF4000000000000
02EFFFC0000000000000
0017DC30000000000000
ENDCHAR
STARTCHAR ugrave
ENCODING 249
SWIDTH 606 0
DWIDTH 19 0
BBX 18 25 1 0
BITMAP
00002A840000000000
0000AFFFEA51000000
0001FFFFFFFF900000
0002FFFFFFFFF30000
00009EFFFFFFF10000
0000015AEFFFB00000
00000000049B200000
000000000000000000
2ADDA20000008CDC50
9FFFFB000005FFFFE0
BFFFFD000007FFFFF1
BFFFFE000007FFFFF2
BFFFFE000007FFFFF2
BFFFFE000007FFFFF2
BFFFFE000007FFFFF2
BFFFFE000007FFFFF2
BFFFFE000008FFFFF2
AFFFFF10000AFFFFF2
8FFFFFA0005FFFFFF2
4FFFFFFDBCFFFFFFF2
0DFFFFFFFFFFFFFFF2
05FFFFFFFFFFFFFFF2
008FFFFFFFFFFFFFF2
0007FFFFFFD7FFFFE0
000028CED811AEED60
ENDCHAR
STARTCHAR uacute
ENCODING 250
SWIDTH 606 0
DWIDTH 19 0
BBX 18 25 1 0
BITMAP
000000000027A50000
000000038DFFFF1000
000005DFFFFFFF6000
00000CFFFFFFFF7000
00000BFFFFFFFC2000
000005FFFFB7200000
0000009A6100000000
000000000000000000
2ADDA20000008CDC50
9FFFFB000005FFFFE0
BFFFFD000007FFFFF1
BFFFFE000007FFFFF2
BFFFFE000007FFFFF2
BFFFFE000007FFFFF2
BFFFFE000007FFFFF2
BFFFFE000007FFFFF2
BFFFFE000008FFFFF2
AFFFFF10000AFFFFF2
8FFFFFA0005FFFFFF2
4FFFFFFDBCFFFFFFF2
0DFFFFFFFFFFFFFFF2
05FFFFFFFFFFFFFFF2
008FFFFFFFFFFFFFF2
0007FFFFFFD7FFFFE0
000028CED811AEED60
ENDCHAR
STARTCHAR ucircumflex
ENCODING 251
SWIDTH 606 0
DWIDTH 19 0
BBX 18 25 1 0
BITMAP
00000016A950000000
00016BFFFFFEA50000
004FFFFFFFFFFFC100
008FFFFFFFFFFFF300
003FFFFFEFFFFFD000
0009FFC6018EFF5000
000032000000430000
000000000000000000
2ADDA20000008CDC50
9FFFFB000005FFFFE0
BFFFFD000007FFFFF1
BFFFFE000007FFFFF2
BFFFFE000007FFFFF2
BFFFFE000007FFFFF2
BFFFFE000007FFFFF2
BFFFFE000007FFFFF2
BFFFFE000008FFFFF2
AFFFFF10000AFFFFF2
8FFFFFA0005FFFFFF2
4FFFFFFDBCFFFFFFF2
0DFFFFFFFFFFFFFFF2
05FFFFFFFFFFFFFFF2
008FFFFFFFFFFFFFF2
0007FFFFFFD7FFFFE0
000028CED811AEED60
ENDCHAR
STARTCHAR udieresis
ENCODING 252
SWIDTH 606 0
DWIDTH 19 0
BBX 18 25 1 0
BITMAP
007AB9300029BB8100
05FFFFE000BFFFF800
08FFFFF200EFFFFC00
08FFFFF200EFFFFC00
06FFFFE100CFFFFA00
01AEED60003CEEB200
000000000000000000
000000000000000000
2ADDA20000008CDC50
9FFFFB000005FFFFE0
BFFFFD000007FFFFF1
BFFFFE000007FFFFF2
BFFFFE000007FFFFF2
BFFFFE000007FFFFF2
BFFFFE000007FFFFF2
BFFFFE000007FFFFF2
BFFFFE000008FFFFF2
AFFFFF10000AFFFFF2
8FFFFFA0005FFFFFF2
4FFFFFFDBCFFFFFFF2
0DFFFFFFFFFFFFFFF2
05FFFFFFFFFFFFFFF2
008FFFFFFFFFFFFFF2
0007FFFFFFD7FFFFE0
000028CED811AEED60
ENDCHAR
STARTCHAR yacute
ENCODING 253
SWIDTH 604 0
DWIDTH 19 0
BBX 19 33 0 -8
BITMAP
0000000000037B400000
0000000048DFFFE00000
0000007EFFFFFFF40000
000000EFFFFFFFF50000
000000CFFFFFFFB10000
0000007FFFFB61000000
0000001AA51000000000
00022000000000010000
02BFF500000002DFD600
2EFFFE10000009FFFF80
7FFFFF9000001FFFFFC0
2FFFFFF300008FFFFF80
09FFFFFB0001EFFFFF20
01EFFFFF5006FFFFFA00
006FFFFFE10DFFFFF300
000CFFFFF95FFFFFB000
0004FFFFFFDFFFFF5000
0000AFFFFFFFFFFD0000
00001EFFFFFFFFF60000
000007FFFFFFFFE10000
000000DFFFFFFF800000
0000004FFFFFFF200000
0000000BFFFFFA000000
0000000DFFFFF3000000
0000005FFFFFB0000000
000000CFFFFF40000000
000003FFFFFD00000000
00000AFFFFF600000000
00001FFFFFE000000000
00006FFFFF8000000000
00007FFFFF1000000000
000009FFF90000000000
00000027700000000000
ENDCHAR
STARTCHAR thorn
ENCODING 254
SWIDTH 580 0
DWIDTH 19 0
BBX 17 34 1 -8
BITMAP
002200000000000000
4EFFD1000000000000
9FFFF6000000000000
BFFFF7000000000000
BFFFF8000000000000
BFFFF8000000000000
BFFFF8000000000000
BFFFF8000000000000
BFFFF8000000000000
BFFFF829CCA5000000
BFFFFBFFFFFFC20000
BFFFFFFFFFFFFE3000
BFFFFFFFFFFFFFE100
BFFFFFFFFFFFFFFA00
BFFFFFFECFFFFFFF30
BFFFFF8001CFFFFF70
BFFFFD00002FFFFFA0
BFFFF900000DFFFFB0
BFFFFC00001FFFFFA0
BFFFFF6001BFFFFF80
BFFFFFFCAEFFFFFF30
BFFFFFFFFFFFFFFB00
BFFFFFFFFFFFFFE200
BFFFFFFFFFFFFF5000
BFFFFDFFFFFFE40000
BFFFF74ADEC7100000
BFFFF7000000000000
BFFFF7000000000000
BFFFF7000000000000
BFFFF7000000000000
BFFFF7000000000000
9FFFF6000000000000
4FFFE1000000000000
013300000000000000
ENDCHAR
STARTCHAR ydieresis
ENCODING 255
SWIDTH 604 0
DWIDTH 19 0
BBX 19 33 0 -8
BITMAP
0004ABA600007AB93000
001EFFFF4006FFFFE000
003FFFFF7008FFFFF200
003FFFFF8009FFFFF200
001FFFFF5006FFFFE100
0007DEDA0001AEED6000
00000000000000000000
00022000000000010000
02BFF500000002DFD600
2EFFFE10000009FFFF80
7FFFFF9000001FFFFFC0
2FFFFFF300008FFFFF80
09FFFFFB0001EFFFFF20
01EFFFFF5006FFFFFA00
006FFFFFE10DFFFFF300
000CFFFFF95FFFFFB000
0004FFFFFFDFFFFF5000
0000AFFFFFFFFFFD0000
00001EFFFFFFFFF60000
000007FFFFFFFFE10000
000000DFFFFFFF800000
0000004FFFFFFF200000
0000000BFFFFFA000000
0000000DFFFFF3000000
0000005FFFFFB0000000
000000CFFFFF40000000
000003FFFFFD00000000
00000AFFFFF600000000
00001FFFFFE000000000
00006FFFFF8000000000
00007FFFFF1000000000
000009FFF90000000000
00000027700000000000
ENDCHAR
STARTCHAR dotlessi
ENCODING 305
SWIDTH 255 0
DWIDTH 8 0
BBX 6 17 1 0
BITMAP
19CC92
8FFFFB
BFFFFD
BFFFFD
BFFFFD
BFFFFD
BFFFFD
BFFFFD
BFFFFD
BFFFFD
BFFFFD
BFFFFD
BFFFFD
BFFFFD
BFFFFD
9FFFFB
2CFFC4
ENDCHAR
STARTCHAR Lslash
ENCODING 321
SWIDTH 687 0
DWIDTH 22 0
BBX 22 24 0 0
BITMAP
0000026651000000000000
00003FFFFC000000000000
00007FFFFF100000000000
00008FFFFF200000000000
00008FFFFF200000000000
00008FFFFF200000000000
00008FFFFF200000000000
00008FFFFF200000000000
00008FFFFF68CC20000000
00008FFFFFFFFF90000000
0004BFFFFFFFFFC0000000
09EFFFFFFFFFFF70000000
2FFFFFFFFFEB6200000000
1FFFFFFFFF200000000000
09FEDFFFFF200000000000
00208FFFFF200000000000
00008FFFFF200000000000
00008FFFFF200000000000
00008FFFFF200000000000
00008FFFFFCBBBBBBBBA50
00008FFFFFFFFFFFFFFFF1
00007FFFFFFFFFFFFFFFF3
00006FFFFFFFFFFFFFFFF2
00001AEFFFFFFFFFFFFE90
ENDCHAR
STARTCHAR lslash
ENCODING 322
SWIDTH 468 0
DWIDTH 15 0
BBX 15 25 0 0
BITMAP
000019BC91000000
00009FFFF9000000
0000CFFFFC000000
0000CFFFFC000000
0000CFFFFC000000
0000CFFFFC000000
0000CFFFFC000000
0000CFFFFC000000
0000CFFFFC000000
0000CFFFFD5ADA00
0000CFFFFFFFFF40
0015DFFFFFFFFF70
2CFFFFFFFFFFFE30
7FFFFFFFFFD95100
5FFFFFFFFD000000
1DFDEFFFFC000000
0120CFFFFC000000
0000CFFFFC000000
0000CFFFFD000000
0000BFFFFF751000
0000AFFFFFFFA000
00007FFFFFFFD000
00003FFFFFFFE000
00000AFFFFFFC000
0000006BDFFE6000
ENDCHAR
STARTCHAR OE
ENCODING 338
SWIDTH 1092 0
DWIDTH 35 0
BBX 35 24 0 0
BITMAP
000000000256777777777777777777775100
00000007DFFFFFFFFFFFFFFFFFFFFFFFFC00
000004DFFFFFFFFFFFFFFFFFFFFFFFFFFF10
00005FFFFFFFFFFFFFFFFFFFFFFFFFFFFF20
0005FFFFFFFFFFFFFFFFFFFFFFFFFFFFFF10
002EFFFFFFFFFFFFFFFFFFFFFFFFFFFFF800
00BFFFFFFD621114FFFFF933333333332000
04FFFFFF90000003FFFFF700000000000000
09FFFFFA00000003FFFFF700000000000000
0DFFFFF200000003FFFFFC88888884000000
1FFFFFB000000003FFFFFFFFFFFFFF500000
2FFFFF8000000003FFFFFFFFFFFFFF900000
3FFFFF7000000003FFFFFFFFFFFFFF900000
1FFFFF9000000003FFFFFFFFFFFFFF700000
0FFFFFD000000003FFFFFFFFFFFFFC100000
0BFFFFF500000003FFFFF822222210000000
06FFFFFE20000003FFFFF700000000000000
01EFFFFFE5000003FFFFF700000000000000
006FFFFFFFD98889FFFFFCAAAAAAAAAA8200
000AFFFFFFFFFFFFFFFFFFFFFFFFFFFFFD00
0001CFFFFFFFFFFFFFFFFFFFFFFFFFFFFF10
00001AFFFFFFFFFFFFFFFFFFFFFFFFFFFF20
0000005DFFFFFFFFFFFFFFFFFFFFFFFFFE00
0000000049CEFFFFFFFFFFFFFFFFFFFFE600
ENDCHAR
STARTCHAR oe
ENCODING 339
SWIDTH 944 0
DWIDTH 30 0
BBX 30 19 0 -1
BITMAP
000000001220000000000000000000
0000029EFFFEA400017BEFFD940000
00008FFFFFFFFFA17FFFFFFFFFB100
000AFFFFFFFFFFFEFFFFFFFFFFFC00
009FFFFFFFFFFFFFFFFFFFFFFFFF80
03FFFFFFFFFFFFFFFFFFFEEFFFFFF1
0AFFFFFFA7AFFFFFFFFD4008FFFFF5
0EFFFFF40002EFFFFFF20002FFFFF6
2FFFFFA000008FFFFFE8888BFFFFF4
3FFFFF7000005FFFFFFFFFFFFFFFE1
3FFFFF8000007FFFFFFFFFFFFFFE40
1FFFFFE20001DFFFFFE55555554100
0BFFFFFE857EFFFFFFF70000035100
04FFFFFFFFFFFFFFFFFFDA9ADFFC00
00AFFFFFFFFFFFFFFFFFFFFFFFFF50
000CFFFFFFFFFFFFFFFFFFFFFFFF80
00019FFFFFFFFFC3BFFFFFFFFFFE30
000005CFFFFFD60004AEFFFFEB6100
000000014542000000002331000000
ENDCHAR
STARTCHAR Scaron
ENCODING 352
SWIDTH 583 0
DWIDTH 19 0
BBX 18 33 0 -1
BITMAP
000011000000010000
0002EFC60028EF9000
000AFFFFEBFFFFF500
000FFFFFFFFFFFFA00
000DFFFFFFFFFFF800
00017CFFFFFFEA5000
00000026BD95000000
000000000000000000
0000037BCCB9510000
0001AFFFFFFFFE7000
001CFFFFFFFFFFFA00
00AFFFFFFFFFFFFF60
03FFFFFFFFFFFFFF50
08FFFFFE87AFFFFC00
0BFFFFF20004DFD200
0BFFFFE00000020000
0AFFFFF70000000000
06FFFFFFD962000000
01EFFFFFFFFFD83000
005FFFFFFFFFFFFA10
0005EFFFFFFFFFFFA0
000017DFFFFFFFFFF3
000000038BFFFFFFF9
000000000019FFFFFB
008ED4000000EFFFFC
08FFFF500001FFFFFB
2FFFFFF8102AFFFFF9
1FFFFFFFFEFFFFFFF4
07FFFFFFFFFFFFFFC0
00AFFFFFFFFFFFFE20
0008FFFFFFFFFFC200
000029EFFFFFB50000
000000024431000000
ENDCHAR
STARTCHAR scaron
ENCODING 353
SWIDTH 489 0
DWIDTH 16 0
BBX 15 26 0 -1
BITMAP
006A7100027A5000
05FFFF95AFFFF400
0BFFFFFFFFFFFB00
0CFFFFFFFFFFFD00
04CFFFFFFFFFC400
00027CFFFC720000
0000002410000000
0000001231000000
00029EFFFFEA4000
005FFFFFFFFFFB00
02EFFFFFFFFFFF10
07FFFFFFFFFFFB00
09FFFFB446BFE200
09FFFFB100011000
06FFFFFFC9610000
02FFFFFFFFFFA100
008FFFFFFFFFFD10
0008FFFFFFFFFF60
000028DFFFFFFFB0
009B60015BFFFFC0
07FFFD744BFFFFC0
1EFFFFFFFFFFFF90
2FFFFFFFFFFFFF30
08FFFFFFFFFFF700
0028DFFFFFEA4000
0000013442000000
ENDCHAR
STARTCHAR Ydieresis
ENCODING 376
SWIDTH 686 0
DWIDTH 22 0
BBX 22 33 0 -1
BITMAP
0000012100000012100000
00009FFFC1002DFFF80000
0002FFFFF6007FFFFF1000
0003FFFFF7009FFFFF2000
0003FFFFF7008FFFFF2000
0000DFFFF3004FFFFD0000
0000278840000488710000
0000000000000000000000
003AA100000000002AA300
08FFFC0000000000DFFF80
5FFFFF7000000008FFFFF4
6FFFFFE20000003FFFFFF5
1EFFFFFB000000CFFFFFD0
05FFFFFF500006FFFFFF40
00AFFFFFE1001EFFFFF900
001EFFFFF900AFFFFFD100
0005FFFFFF34FFFFFF4000
0000AFFFFFCDFFFFF90000
00001EFFFFFFFFFFD10000
000005FFFFFFFFFF400000
000000AFFFFFFFF9000000
0000001EFFFFFFD1000000
00000005FFFFFF40000000
00000000DFFFFD00000000
00000000DFFFFC00000000
00000000DFFFFC00000000
00000000DFFFFC00000000
00000000DFFFFC00000000
00000000DFFFFC00000000
00000000DFFFFC00000000
00000000BFFFFB00000000
000000004DFFD300000000
0000000000110000000000
ENDCHAR
STARTCHAR Zcaron
ENCODING 381
SWIDTH 643 0
DWIDTH 21 0
BBX 20 33 0 -1
BITMAP
00000110000000100000
00003EFC50029EF80000
0000CFFFFDBFFFFF4000
0001FFFFFFFFFFFF9000
0000EFFFFFFFFFFF7000
000017CFFFFFFE940000
000000027CD940000000
00000000000000000000
01677777777777777400
0DFFFFFFFFFFFFFFFF90
2FFFFFFFFFFFFFFFFFF2
3FFFFFFFFFFFFFFFFFF4
1FFFFFFFFFFFFFFFFFF2
08EFFFFFFFFFFFFFFF60
00011111114FFFFFFB00
0000000001DFFFFFE100
000000000AFFFFFF4000
000000005FFFFFF80000
00000002EFFFFFC00000
0000000CFFFFFE200000
0000008FFFFFF6000000
000004FFFFFFA0000000
00001DFFFFFD10000000
0000AFFFFFF300000000
0006FFFFFF7000000000
003FFFFFFB0000000000
01CFFFFFF97777777640
09FFFFFFFFFFFFFFFFF6
1FFFFFFFFFFFFFFFFFFB
2FFFFFFFFFFFFFFFFFFB
0DFFFFFFFFFFFFFFFFF9
03CFFFFFFFFFFFFFFFD3
00011111111111111100
ENDCHAR
STARTCHAR zcaron
ENCODING 382
SWIDTH 586 0
DWIDTH 19 0
BBX 18 25 0 0
BITMAP
00005A8200016A7000
0002FFFFB59EFFF700
0008FFFFFFFFFFFE00
000AFFFFFFFFFFFF10
0002BFFFFFFFFFD500
0000016BFFFC720000
000000001420000000
000000000000000000
008CDDDDDDDDDDDB30
04FFFFFFFFFFFFFFE2
07FFFFFFFFFFFFFFF7
07FFFFFFFFFFFFFFF6
04FFFFFFFFFFFFFFD1
006ABBBBCFFFFFFE30
00000002DFFFFFD200
0000003EFFFFFC2000
000005EFFFFFC10000
00006FFFFFFB100000
0008FFFFFFA0000000
009FFFFFFE99999971
08FFFFFFFFFFFFFFFA
1FFFFFFFFFFFFFFFFE
2FFFFFFFFFFFFFFFFE
0CFFFFFFFFFFFFFFFC
02BFFFFFFFFFFFFFD4
ENDCHAR
STARTCHAR florin
ENCODING 402
SWIDTH 529 0
DWIDTH 17 0
BBX 17 32 0 -8
BITMAP
0000000000169BB800
0000000006EFFFFF50
000000008FFFFFFF70
00000005FFFFFFFF50
0000000DFFFFFFFF20
0000004FFFFFECA400
0000007FFFFF200000
0000009FFFFE000000
0005BDEFFFFFBCC910
002FFFFFFFFFFFFF50
006FFFFFFFFFFFFF60
007FFFFFFFFFFFFF50
005FFFFFFFFFFFFE10
0007ABFFFFFBAA9300
000005FFFFF3000000
000007FFFFF1000000
000009FFFFF0000000
00000AFFFFD0000000
00000CFFFFB0000000
00000EFFFFA0000000
00000FFFFF80000000
00002FFFFF60000000
00003FFFFF40000000
00005FFFFF30000000
00007FFFFF10000000
0024CFFFFD00000000
1CFFFFFFF800000000
9FFFFFFFF200000000
DFFFFFFF8000000000
FFFFFFFB0000000000
9FFFFC600000000000
022200000000000000
ENDCHAR
STARTCHAR circumflex
ENCODING 710
SWIDTH 603 0
DWIDTH 19 0
BBX 13 7 3 18
BITMAP
000027B9400000
027CFFFFFE9400
6FFFFFFFFFFFB0
AFFFFFFFFFFFF0
6FFFFFEFFFFFB0
0CFFB5029EFE30
00310000014200
ENDCHAR
STARTCHAR caron
ENCODING 711
SWIDTH 600 0
DWIDTH 19 0
BBX 13 7 3 18
BITMAP
05A8200017A600
3FFFFA59EFFF60
9FFFFFFFFFFFD0
AFFFFFFFFFFFF0
2BFFFFFFFFFC50
0016BFFFC72000
00000142000000
ENDCHAR
STARTCHAR dotaccent
ENCODING 729
SWIDTH 285 0
DWIDTH 9 0
BBX 7 7 1 22
BITMAP
00011000
07EFFC10
0EFFFF60
1FFFFF80
1FFFFF70
0BFFFF30
01677300
ENDCHAR
STARTCHAR ring
ENCODING 730
SWIDTH 378 0
DWIDTH 12 0
BBX 10 9 1 21
BITMAP
0001552000
007FFFF900
06FFDDFF80
0DF9007FE0
1FF2001FF2
0FF4003FF1
0AFE76DFC0
01DFFFFE20
0017CC8100
ENDCHAR
STARTCHAR ogonek
ENCODING 731
SWIDTH 570 0
DWIDTH 18 0
BBX 7 8 5 -7
BITMAP
007DEA20
0BFFFFC0
3FFFEF80
6FF81400
4FFEBF60
0DFFFFD0
02BFFD40
00012000
ENDCHAR
STARTCHAR tilde
ENCODING 732
SWIDTH 584 0
DWIDTH 19 0
BBX 14 6 2 19
BITMAP
0017AA70008910
02DFFFFD48FFD1
0DFFFFFFFFFFF4
5FFFFFFFFFFFC0
4FFFA9FFFFFE20
05EA004CFEA200
ENDCHAR
STARTCHAR endash
ENCODING 8211
SWIDTH 561 0
DWIDTH 18 0
BBX 18 6 0 6
BITMAP
025555555555555510
3FFFFFFFFFFFFFFFE2
7FFFFFFFFFFFFFFFF6
7FFFFFFFFFFFFFFFF7
5FFFFFFFFFFFFFFFF4
08CCCCCCCCCCCCCC90
ENDCHAR
STARTCHAR emdash
ENCODING 8212
SWIDTH 693 0
DWIDTH 22 0
BBX 22 6 0 6
BITMAP
0255555555555555555530
3FFFFFFFFFFFFFFFFFFFF5
7FFFFFFFFFFFFFFFFFFFFA
7FFFFFFFFFFFFFFFFFFFFA
5FFFFFFFFFFFFFFFFFFFF8
08CCCCCCCCCCCCCCCCCCA2
ENDCHAR
STARTCHAR quoteleft
ENCODING 8216
SWIDTH 237 0
DWIDTH 8 0
BBX 7 12 0 12
BITMAP
00002630
0007FFA0
006FFF80
01EFF600
07FFD000
0CFFC200
0FFFFF50
2FFFFFB0
3FFFFFC0
2FFFFFB0
0DFFFF70
02799600
ENDCHAR
STARTCHAR quoteright
ENCODING 8217
SWIDTH 237 0
DWIDTH 8 0
BBX 7 12 0 12
BITMAP
01566300
0CFFFF60
2FFFFFB0
3FFFFFC0
2FFFFFB0
0CFFFF90
016FFF60
003FFF20
00AFFA00
0DFFE200
2FFE4000
08710000
ENDCHAR
STARTCHAR quotesinglbase
ENCODING 8218
SWIDTH 237 0
DWIDTH 8 0
BBX 7 12 0 -6
BITMAP
05CEEA20
1FFFFF90
3FFFFFB0
3FFFFFC0
1FFFFFA0
06DFFF80
002FFF40
006FFE00
05EFF600
2FFFA000
1FE80000
01000000
ENDCHAR
STARTCHAR quotedblleft
ENCODING 8220
SWIDTH 482 0
DWIDTH 15 0
BBX 15 12 0 12
BITMAP
0000263000002620
0007FFA00009FF80
006FFF80009FFF60
01EFF60004FFF400
07FFD0000AFFA000
0CFFC2001FFFA100
0FFFFF503FFFFE30
2FFFFFB05FFFFF80
3FFFFFC06FFFFF90
2FFFFFB05FFFFF80
0DFFFF701EFFFF50
0279960003898400
ENDCHAR
STARTCHAR quotedblright
ENCODING 8221
SWIDTH 482 0
DWIDTH 15 0
BBX 15 12 0 12
BITMAP
0156630001566200
0CFFFF601EFFFF30
2FFFFFB05FFFFF80
3FFFFFC05FFFFF90
2FFFFFB05FFFFF80
0CFFFF901EFFFF70
016FFF60029FFF40
003FFF20006FFE00
00AFFA0001CFF800
0DFFE2002EFFD100
2FFE40005FFD2000
0871000018610000
ENDCHAR
STARTCHAR quotedblbase
ENCODING 8222
SWIDTH 482 0
DWIDTH 15 0
BBX 15 12 0 -6
BITMAP
05CEEA2007DED910
1FFFFF903FFFFF60
3FFFFFB05FFFFF90
3FFFFFC05FFFFF90
1FFFFFA03FFFFF80
06DFFF8008EFFF60
002FFF40005FFF20
006FFE00008FFB00
05EFF60007FFF300
2FFFA0004FFF8000
1FE800003FD60000
0100000001000000
ENDCHAR
STARTCHAR dagger
ENCODING 8224
SWIDTH 527 0
DWIDTH 17 0
BBX 17 30 0 -6
BITMAP
0000008DDC60000000
000003FFFFF1000000
000005FFFFF3000000
000005FFFFF3000000
000005FFFFF3000000
000005FFFFF3000000
000005FFFFF3000000
026647FFFFF6565200
3FFFFFFFFFFFFFFE20
7FFFFFFFFFFFFFFF50
7FFFFFFFFFFFFFFF60
5FFFFFFFFFFFFFFF30
06AA8AFFFFF99A9500
000005FFFFF3000000
000005FFFFF3000000
000005FFFFF3000000
000005FFFFF3000000
000005FFFFF3000000
000005FFFFF3000000
000005FFFFF3000000
000005FFFFF3000000
000005FFFFF3000000
000005FFFFF3000000
000005FFFFF3000000
000005FFFFF3000000
000005FFFFF3000000
000005FFFFF3000000
000005FFFFF3000000
000004FFFFF1000000
000000AFFE80000000
ENDCHAR
STARTCHAR daggerdbl
ENCODING 8225
SWIDTH 527 0
DWIDTH 17 0
BBX 17 30 0 -6
BITMAP
0000008DDC60000000
000003FFFFF1000000
000005FFFFF3000000
000005FFFFF3000000
000005FFFFF3000000
000005FFFFF3000000
000005FFFFF3000000
026647FFFFF6565200
3FFFFFFFFFFFFFFE20
7FFFFFFFFFFFFFFF50
7FFFFFFFFFFFFFFF60
5FFFFFFFFFFFFFFF30
06AA8AFFFFF99A9500
000005FFFFF3000000
000005FFFFF3000000
000005FFFFF3000000
000005FFFFF3000000
047769FFFFF7787300
4FFFFFFFFFFFFFFF20
7FFFFFFFFFFFFFFF50
7FFFFFFFFFFFFFFF50
4FFFFFFFFFFFFFFF20
048879FFFFF8788300
000005FFFFF3000000
000005FFFFF3000000
000005FFFFF3000000
000005FFFFF3000000
000005FFFFF3000000
000004FFFFF1000000
000000AFFE80000000
ENDCHAR
STARTCHAR bullet
ENCODING 8226
SWIDTH 342 0
DWIDTH 11 0
BBX 11 10 0 5
BITMAP
0017BBA71000
03EFFFFFD200
0BFFFFFFFA00
1FFFFFFFFF00
3FFFFFFFFF20
2FFFFFFFFF10
1FFFFFFFFE00
0AFFFFFFF900
01CFFFFFB100
000478740000
ENDCHAR
STARTCHAR ellipsis
ENCODING 8230
SWIDTH 911 0
DWIDTH 29 0
BBX 29 6 0 0
BITMAP
05CEEA2000008DED9000001ADED600
1FFFFF900004FFFFF500007FFFFF20
3FFFFFB00006FFFFF800009FFFFF50
3FFFFFC00006FFFFF800009FFFFF50
1FFFFFA00004FFFFF600007FFFFF30
06DFFC2000008EFEA000001BFFD700
ENDCHAR
STARTCHAR perthousand
ENCODING 8240
SWIDTH 1223 0
DWIDTH 39 0
BBX 37 26 1 -1
BITMAP
000000000000000008E8000000000000000000
00026874000000002FFE000000000000000000
009FFFFFD3000000AFF8000000000000000000
09FFFFFFFE100003FFE1000000000000000000
2FFFFFFFFF80000BFF70000000000000000000
7FFF957EFFD0003FFD00000000000000000000
AFFD0008FFF000BFF600000000000000000000
BFFB0007FFF104FFD000000000000000000000
AFFE000AFFF00CFF5000000000000000000000
7FFFC7AFFFC05FFC0000000000000000000000
2FFFFFFFFF70DFF40000000000000000000000
07FFFFFFFD16FFB00000000000000000000000
006EFFFFB20DFF300000000000000000000000
00004552007FFA003ADDC710000028CDC92000
0000000001EFF207FFFFFFD20004EFFFFFE400
0000000008FF904FFFFFFFFB001EFFFFFFFE10
000000001EFF20BFFFFFFFFF307FFFFFFFFF70
000000009FF901FFFB106FFF70BFFE203EFFB0
00000002FFE102FFF5000EFF80DFF9000AFFC0
00000009FF8002FFF5000EFF90DFF9000AFFC0
0000003FFE1001FFFA005FFF70CFFD102EFFB0
000000AFF70000CFFFDDFFFF408FFFECEFFF80
000003FFD000005FFFFFFFFD002FFFFFFFFF20
00000BFF60000009FFFFFFE30005FFFFFFF600
00002FFD000000006CFFEA2000003BEFFB4000
000008D4000000000001000000000001000000
ENDCHAR
STARTCHAR guilsinglleft
ENCODING 8249
SWIDTH 383 0
DWIDTH 12 0
BBX 12 17 0 0
BITMAP
00000004CA10
0000005FFFC1
000005FFFFF9
00005FFFFFFA
0005FFFFFFE2
005FFFFFFE30
05FFFFFFE300
3FFFFFFE3000
7FFFFFF50000
4FFFFFFD2000
07FFFFFFD200
007FFFFFFD20
0007FFFFFFD1
00007FFFFFF9
000007FFFFFA
0000007FFFE2
00000006EC20
ENDCHAR
STARTCHAR guilsinglright
ENCODING 8250
SWIDTH 383 0
DWIDTH 12 0
BBX 12 17 0 0
BITMAP
008C60000000
0AFFF9000000
5FFFFF900000
6FFFFFF90000
0CFFFFFF9000
01CFFFFFF900
001CFFFFFF90
0001CFFFFFF6
00002FFFFFFB
0000BFFFFFF8
000BFFFFFFB0
00BFFFFFFB00
0AFFFFFFB000
5FFFFFFB0000
6FFFFFB00000
0CFFFB000000
01AF90000000
ENDCHAR
STARTCHAR fraction
ENCODING 8260
SWIDTH 433 0
DWIDTH 14 0
BBX 16 26 1 -1
BITMAP
0000000000001ED3
0000000000009FF8
000000000002FFE1
00000000000AFF70
00000000003FFE10
0000000000BFF600
0000000004FFD000
000000000CFF5000
000000005FFC0000
00000000CFF50000
00000005FFC00000
0000000DFF400000
0000006FFB000000
000001EFF3000000
000007FFA0000000
00001EFF20000000
00008FF900000000
0002EFF200000000
0009FF8000000000
002FFE1000000000
00AFF70000000000
03FFE10000000000
0BFF700000000000
4FFD000000000000
9FF6000000000000
3BC0000000000000
ENDCHAR
STARTCHAR Euro
ENCODING 8364
SWIDTH 612 0
DWIDTH 20 0
BBX 19 25 0 0
BITMAP
000000000379AAAA9710
00000005CFFFFFFFFF80
0000009FFFFFFFFFFFB0
000008FFFFFFFFFFFFB0
00003FFFFFFFFFFFFFA0
0000AFFFFFFFEEEEEB20
0001FFFFFF7100000000
0005FFFFF90000000000
19ADFFFFFCAAAAAA5000
7FFFFFFFFFFFFFFFE000
7FFFFFFFFFFFFFFFE000
2ABFFFFFEBBBBBBB6000
000EFFFFA00000000000
056EFFFFC66666662000
6FFFFFFFFFFFFFFFD000
7FFFFFFFFFFFFFFFE000
3EFFFFFFFFFFFFFE9000
0006FFFFF50000000000
0001FFFFFD1000000000
0000BFFFFFEB99999600
00004FFFFFFFFFFFFF80
000009FFFFFFFFFFFFB0
000001CFFFFFFFFFFFB0
00000019FFFFFFFFFF90
0000000028CDEEEEEB20
ENDCHAR
STARTCHAR trademark
ENCODING 8482
SWIDTH 840 0
DWIDTH 27 0
BBX 26 14 0 7
BITMAP
03444444444100430000001420
5FFFFFFFFFFD0AFFB00002EFF4
7FFFFFFFFFFF0EFFF7000CFFF8
6FFFFFFFFFFD0EFFFF308FFFF9
0688DFFFA8730EFFFFD5FFFFF9
0000BFFF40000EFFFFFFFFFFF9
0000BFFF40000EFFFFFFFFFFF9
0000BFFF40000EFFFFFFFFFFF9
0000BFFF40000EFFFEFFFEFFF9
0000BFFF40000EFFF5FFD6FFF9
0000BFFF40000EFFF03715FFF9
0000BFFF40000EFFF00005FFF9
00008FFF20000DFFD00004FFF7
00000453000002551000003640
ENDCHAR
STARTCHAR minus
ENCODING 8722
SWIDTH 581 0
DWIDTH 19 0
BBX 18 6 0 6
BITMAP
014555555555555530
0DFFFFFFFFFFFFFFF6
2FFFFFFFFFFFFFFFFB
3FFFFFFFFFFFFFFFFC
1FFFFFFFFFFFFFFFFA
05BCCCCCCCCCCCCCA2
ENDCHAR
STARTCHAR f_f
ENCODING 64256
SWIDTH 803 0
DWIDTH 26 0
BBX 26 25 0 0
BITMAP
00000005ACCB40000049BCC700
000003DFFFFFD0001AFFFFFF30
00002EFFFFFFF100BFFFFFFF50
0000BFFFFFFFF107FFFFFFFF50
0003FFFFFFFFD00DFFFFFFFF20
0007FFFFFEBA302FFFFFECB600
0008FFFFF200004FFFFF600000
0009FFFFF100004FFFFF500000
09BDFFFFFBBCCBCFFFFFCCDB50
5FFFFFFFFFFFFFFFFFFFFFFFF1
7FFFFFFFFFFFFFFFFFFFFFFFF3
7FFFFFFFFFFFFFFFFFFFFFFFF3
5FFFFFFFFFFFFFFFFFFFFFFFE0
09BDFFFFFABBBBCFFFFFCBBA40
0009FFFFF100004FFFFF500000
0009FFFFF100004FFFFF500000
0009FFFFF100004FFFFF500000
0009FFFFF100004FFFFF500000
0009FFFFF100004FFFFF500000
0009FFFFF100004FFFFF500000
0009FFFFF100004FFFFF500000
0009FFFFF100004FFFFF500000
0009FFFFF100004FFFFF500000
0007FFFFE000002FFFFF300000
0001BEFD50000008EFE8000000
ENDCHAR
STARTCHAR fi
ENCODING 64257
SWIDTH 709 0
DWIDTH 23 0
BBX 22 25 0 0
BITMAP
000000059BCA300049BA50
000002DFFFFFD001EFFFF3
00002EFFFFFFF103FFFFF6
0000BFFFFFFFF103FFFFF6
0003FFFFFFFFD001FFFFF4
0007FFFFFECB40005CDC70
0008FFFFF2000000000000
0009FFFFF1000000000000
069DFFFFFBCCA2005BCB60
4FFFFFFFFFFFFB01FFFFF4
7FFFFFFFFFFFFD03FFFFF6
7FFFFFFFFFFFFD03FFFFF6
5FFFFFFFFFFFFA03FFFFF6
08ADFFFFFBBB9203FFFFF6
0009FFFFF1000003FFFFF6
0009FFFFF1000003FFFFF6
0009FFFFF1000003FFFFF6
0009FFFFF1000003FFFFF6
0009FFFFF1000003FFFFF6
0009FFFFF1000003FFFFF6
0009FFFFF1000003FFFFF6
0009FFFFF1000003FFFFF6
0009FFFFF1000003FFFFF6
0007FFFFE0000001FFFFF4
0001BFFE500000007EFE90
ENDCHAR
STARTCHAR fl
ENCODING 64258
SWIDTH 774 0
DWIDTH 25 0
BBX 25 25 0 0
BITMAP
000000059BCA30006BCA400000
000002DFFFFFD003FFFFE10000
00002EFFFFFFF106FFFFF30000
0000BFFFFFFFF106FFFFF30000
0003FFFFFFFFD006FFFFF30000
0007FFFFFECB4006FFFFF30000
0008FFFFF2000006FFFFF30000
0009FFFFF1000006FFFFF30000
069DFFFFFBCCA206FFFFF30000
4FFFFFFFFFFFFB06FFFFF30000
7FFFFFFFFFFFFD06FFFFF30000
7FFFFFFFFFFFFD06FFFFF30000
5FFFFFFFFFFFFA06FFFFF30000
08ADFFFFFBBB9206FFFFF30000
0009FFFFF1000006FFFFF30000
0009FFFFF1000006FFFFF30000
0009FFFFF1000006FFFFF30000
0009FFFFF1000006FFFFF30000
0009FFFFF1000006FFFFF30000
0009FFFFF1000006FFFFFA6200
0009FFFFF1000004FFFFFFFE10
0009FFFFF1000002FFFFFFFF40
0009FFFFF1000000DFFFFFFF40
0007FFFFE00000005FFFFFFF30
0001BFFE50000000039DEFFB00
ENDCHAR
STARTCHAR f_f_i
ENCODING 64259
SWIDTH 1059 0
DWIDTH 34 0
BBX 33 25 0 0
BITMAP
00000005ACCB40000049BCC70001688500
000003DFFFFFD0001AFFFFFF300AFFFF50
00002EFFFFFFF100BFFFFFFF500EFFFF90
0000BFFFFFFFF107FFFFFFFF500EFFFF90
0003FFFFFFFFD00DFFFFFFFF200CFFFF70
0007FFFFFEBA302FFFFFECB60004DFEB10
0008FFFFF200004FFFFF60000000000000
0009FFFFF100004FFFFF50000000000000
09BDFFFFFBBCCBCFFFFFCCDB50029BA700
5FFFFFFFFFFFFFFFFFFFFFFFF10BFFFF60
7FFFFFFFFFFFFFFFFFFFFFFFF30EFFFF90
7FFFFFFFFFFFFFFFFFFFFFFFF30EFFFF90
5FFFFFFFFFFFFFFFFFFFFFFFE00EFFFF90
09BDFFFFFABBBBCFFFFFCBBA400EFFFF90
0009FFFFF100004FFFFF5000000EFFFF90
0009FFFFF100004FFFFF5000000EFFFF90
0009FFFFF100004FFFFF5000000EFFFF90
0009FFFFF100004FFFFF5000000EFFFF90
0009FFFFF100004FFFFF5000000EFFFF90
0009FFFFF100004FFFFF5000000EFFFF90
0009FFFFF100004FFFFF5000000EFFFF90
0009FFFFF100004FFFFF5000000EFFFF90
0009FFFFF100004FFFFF5000000EFFFF90
0007FFFFE000002FFFFF3000000DFFFF70
0001BEFD50000008EFE800000005DFEB10
ENDCHAR
STARTCHAR .notdef
ENCODING -1
SWIDTH 500 0
DWIDTH 16 0
BBX 1 1 0 0
BITMAP
00
ENDCHAR
STARTCHAR .null
ENCODING -1
SWIDTH 0 0
DWIDTH 0 0
BBX 1 1 0 0
BITMAP
00
ENDCHAR
STARTCHAR nonmarkingreturn
ENCODING -1
SWIDTH 333 0
DWIDTH 11 0
BBX 1 1 0 0
BITMAP
00
ENDCHAR
STARTCHAR f_t
ENCODING -1
SWIDTH 814 0
DWIDTH 26 0
BBX 26 25 0 0
BITMAP
00000005ACCB40000000000000
000003DFFFFFD0000000000000
00002EFFFFFFF1017995000000
0000BFFFFFFFF10AFFFF600000
0003FFFFFFFFD00DFFFFA00000
0007FFFFFEBA300DFFFFA00000
0008FFFFF200000DFFFFA00000
0009FFFFF100000DFFFFA00000
09BDFFFFFBBCCBAEFFFFDBCC80
5FFFFFFFFFFFFFFFFFFFFFFFF5
7FFFFFFFFFFFFFFFFFFFFFFFF8
7FFFFFFFFFFFFFFFFFFFFFFFF8
5FFFFFFFFFFFFFFFFFFFFFFFF5
09BDFFFFFABBBBBEFFFFDBCC80
0009FFFFF100000DFFFFA00000
0009FFFFF100000DFFFFA00000
0009FFFFF100000DFFFFA00000
0009FFFFF100000DFFFFA00000
0009FFFFF100000DFFFFB00000
0009FFFFF100000CFFFFE64100
0009FFFFF1000009FFFFFFFF50
0009FFFFF1000004FFFFFFFFA0
0009FFFFF1000000AFFFFFFFA0
0007FFFFE00000001AFFFFFF80
0001BEFD50000000004ADFFC20
ENDCHAR
STARTCHAR t_t
ENCODING -1
SWIDTH 794 0
DWIDTH 25 0
BBX 25 23 0 0
BITMAP
00005997100000059971000000
0005FFFFB000005FFFFC000000
0008FFFFE000008FFFFF000000
0009FFFFF000008FFFFF000000
0009FFFFF000008FFFFF000000
0009FFFFF000008FFFFF000000
09BDFFFFFCCCCCDFFFFFBCCA20
5FFFFFFFFFFFFFFFFFFFFFFFB0
7FFFFFFFFFFFFFFFFFFFFFFFD0
7FFFFFFFFFFFFFFFFFFFFFFFD0
5FFFFFFFFFFFFFFFFFFFFFFFB0
09BDFFFFFABCCBDFFFFFBBCA20
0009FFFFF000008FFFFF000000
0009FFFFF000008FFFFF000000
0009FFFFF000008FFFFF000000
0009FFFFF000008FFFFF000000
0009FFFFF000008FFFFF100000
0008FFFFF843007FFFFF943000
0005FFFFFFFF904FFFFFFFFA00
0001EFFFFFFFF01EFFFFFFFF00
00007FFFFFFFF006FFFFFFFF10
000008FFFFFFD0008FFFFFFE00
00000039DEFD5000039DEFD500
ENDCHAR
STARTCHAR l_l
ENCODING -1
SWIDTH 626 0
DWIDTH 20 0
BBX 19 25 1 0
BITMAP
19CC920004BCB7000000
8FFFFA000EFFFF500000
BFFFFD001FFFFF700000
BFFFFD002FFFFF800000
BFFFFD002FFFFF800000
BFFFFD002FFFFF800000
BFFFFD002FFFFF800000
BFFFFD002FFFFF800000
BFFFFD001FFFFF800000
BFFFFD001FFFFF800000
BFFFFD001FFFFF800000
BFFFFD001FFFFF800000
BFFFFD001FFFFF800000
BFFFFD001FFFFF800000
BFFFFD001FFFFF800000
BFFFFD001FFFFF800000
BFFFFD001FFFFF800000
BFFFFD001FFFFF800000
BFFFFD001FFFFF800000
AFFFFF940FFFFFEA9400
8FFFFFFF1CFFFFFFFF40
5FFFFFFF37FFFFFFFF70
0EFFFFFF31DFFFFFFF80
04EFFFFF103DFFFFFF50
0028CED700016ADED800
ENDCHAR
STARTCHAR j_j
ENCODING -1
SWIDTH 521 0
DWIDTH 17 0
BBX 21 33 -5 -8
BITMAP
0000000588600001787300
0000007FFFF7000CFFFF20
000000BFFFFB001FFFFF50
000000BFFFFC001FFFFF60
0000009FFFFA000FFFFF40
0000002BDDB20005CED800
0000000000000000000000
0000000000000000000000
00000019BC910004ABB600
0000008FFFF9000EFFFF30
000000BFFFFC001FFFFF60
000000BFFFFC002FFFFF60
000000BFFFFC002FFFFF60
000000BFFFFC002FFFFF60
000000BFFFFC002FFFFF60
000000BFFFFC002FFFFF60
000000BFFFFC002FFFFF60
000000BFFFFC002FFFFF60
000000BFFFFC002FFFFF60
000000BFFFFC002FFFFF60
000000BFFFFC002FFFFF60
000000BFFFFC002FFFFF60
000000BFFFFC002FFFFF60
000000BFFFFC002FFFFF60
000000CFFFFB002FFFFF60
000002FFFFFA003FFFFF50
00024DFFFFF6017FFFFF30
09FFFFFFFFF19FFFFFFF10
2FFFFFFFFF83FFFFFFFB00
3FFFFFFFFB05FFFFFFF400
2FFFFFFFA104FFFFFF9000
0DFFFFC50001EFFFF80000
0156520000002665100000
ENDCHAR
ENDFONT
